<?xml version="1.0" standalone="no"?>
<!DOCTYPE svg PUBLIC "-//W3C//DTD SVG 20010904//EN"
 "http://www.w3.org/TR/2001/REC-SVG-20010904/DTD/svg10.dtd">
<svg version="1.0" xmlns="http://www.w3.org/2000/svg"
 width="512.000000pt" height="512.000000pt" viewBox="0 0 512.000000 512.000000"
 preserveAspectRatio="xMidYMid meet">
<metadata>
Created by potrace 1.14, written by Peter Selinger 2001-2017
</metadata>
<g transform="translate(0.000000,512.000000) scale(0.100000,-0.100000)"
fill="#000000" stroke="none">
<path d="M1055 5078 c-4 -24 -21 -140 -38 -258 l-32 -215 -220 -10 -220 -10
-3 -217 -2 -218 207 -2 208 -3 5 -360 c5 -335 7 -366 29 -445 70 -260 230
-410 496 -465 208 -43 497 -22 785 55 l37 10 -50 207 c-28 115 -52 209 -53
211 -1 1 -37 -7 -80 -20 -65 -19 -104 -22 -224 -23 -142 0 -146 1 -211 32
-125 58 -139 113 -139 520 l0 283 345 0 345 0 -2 228 -3 227 -342 3 -343 2 0
255 0 255 -244 0 -245 0 -6 -42z"/>
<path d="M4132 4639 c-227 -29 -423 -156 -549 -354 -15 -25 -31 -45 -35 -45
-8 0 -12 25 -36 225 l-17 140 -243 3 -242 2 0 -860 0 -860 295 0 295 0 0 428
0 427 42 75 c78 142 221 258 363 295 77 20 226 19 323 -1 42 -10 86 -17 96
-18 17 -1 26 26 77 239 41 173 54 242 46 248 -28 17 -148 49 -222 58 -90 10
-104 10 -193 -2z"/>
<path d="M1664 2078 c3 -194 8 -377 12 -407 l6 -54 -53 46 c-105 92 -210 130
-359 131 -465 1 -791 -481 -720 -1064 17 -134 47 -237 102 -350 89 -180 238
-307 418 -356 93 -25 276 -25 350 0 85 29 161 70 235 126 36 29 68 50 69 48 2
-1 12 -37 23 -78 l20 -75 241 -3 242 -2 0 1195 0 1195 -296 0 -296 0 6 -352z
m-89 -792 c91 -41 85 -17 85 -368 l0 -311 -25 -33 c-86 -112 -290 -126 -388
-26 -48 49 -73 109 -88 211 -25 173 4 376 65 456 29 38 100 83 149 96 49 12
147 0 202 -25z"/>
<path d="M2790 2200 l0 -230 258 -2 257 -3 5 -710 c6 -704 6 -711 29 -785 94
-309 325 -469 678 -470 144 0 447 52 508 88 9 5 -2 57 -50 217 -34 116 -66
210 -71 210 -5 0 -43 -9 -84 -20 -112 -29 -230 -26 -296 7 -55 29 -95 80 -113
144 -7 27 -11 315 -11 912 l0 872 -555 0 -555 0 0 -230z"/>
</g>
</svg>
