<svg width="782" height="742" viewBox="0 0 782 742" fill="none" xmlns="http://www.w3.org/2000/svg">
<path d="M209.104 596.619L241.145 625.51" stroke="#333037" stroke-width="4" stroke-linecap="round" stroke-linejoin="round"/>
<path d="M99.0938 497.378L157.988 550.531" stroke="#333037" stroke-width="4" stroke-linecap="round" stroke-linejoin="round"/>
<path d="M198.891 503.809L420.798 703.85" stroke="#333037" stroke-width="4" stroke-linecap="round" stroke-linejoin="round"/>
<path d="M85.8018 401.791L130.756 442.374" stroke="#333037" stroke-width="4" stroke-linecap="round" stroke-linejoin="round"/>
<path d="M358.391 563.977L553.607 740" stroke="#A41FE2" stroke-width="4" stroke-linecap="round" stroke-linejoin="round"/>
<path d="M63.8115 298.36L271.941 486.075" stroke="#A41FE2" stroke-width="4" stroke-linecap="round" stroke-linejoin="round"/>
<path d="M226.987 361.938L571.601 672.621" stroke="#333037" stroke-width="4" stroke-linecap="round" stroke-linejoin="round"/>
<path d="M84.5063 233.466L157.449 299.237" stroke="#333037" stroke-width="4" stroke-linecap="round" stroke-linejoin="round"/>
<path d="M511.516 534.843L594.346 609.53" stroke="#333037" stroke-width="4" stroke-linecap="round" stroke-linejoin="round"/>
<path d="M2 75.42L424.419 456.308" stroke="#333037" stroke-width="4" stroke-linecap="round" stroke-linejoin="round"/>
<path d="M340.776 297.336L753.469 669.406" stroke="#A41FE2" stroke-width="4" stroke-linecap="round" stroke-linejoin="round"/>
<path d="M158.529 132.958L254.381 219.434" stroke="#A41FE2" stroke-width="4" stroke-linecap="round" stroke-linejoin="round"/>
<path d="M420.905 285.936L687.442 526.268" stroke="#333037" stroke-width="4" stroke-linecap="round" stroke-linejoin="round"/>
<path d="M148.751 40.537L345.75 218.168" stroke="#333037" stroke-width="4" stroke-linecap="round" stroke-linejoin="round"/>
<path d="M640.761 400.573L780 526.122" stroke="#A41FE2" stroke-width="4" stroke-linecap="round" stroke-linejoin="round"/>
<path d="M269.131 65.4813L539.613 309.37" stroke="#A41FE2" stroke-width="4" stroke-linecap="round" stroke-linejoin="round"/>
<path d="M505.897 195.318L693.981 364.959" stroke="#333037" stroke-width="4" stroke-linecap="round" stroke-linejoin="round"/>
<path d="M291.446 2L432.144 128.816" stroke="#333037" stroke-width="4" stroke-linecap="round" stroke-linejoin="round"/>
<path d="M673.07 262.502L746.229 328.468" stroke="#A41FE2" stroke-width="4" stroke-linecap="round" stroke-linejoin="round"/>
<path d="M403.993 19.88L589.483 187.085" stroke="#A41FE2" stroke-width="4" stroke-linecap="round" stroke-linejoin="round"/>
<path d="M635.035 144.601L679.989 185.136" stroke="#333037" stroke-width="4" stroke-linecap="round" stroke-linejoin="round"/>
<path d="M556.093 73.4225L587.107 101.339" stroke="#333037" stroke-width="4" stroke-linecap="round" stroke-linejoin="round"/>
</svg>
