<svg display="none" xmlns="http://www.w3.org/2000/svg">
  <symbol id="server" viewBox="0 0 21 26">
    <rect x="0.404423" y="0.489628" width="20.1389" height="6.72255" rx="1.7525" stroke="white" stroke-width="0.808846"/>
    <path d="M11.5879 3.31287H14.0392" stroke="white" stroke-width="0.808846" stroke-linecap="round"/>
    <path d="M16.0449 3.31287H18.4963" stroke="white" stroke-width="0.808846" stroke-linecap="round"/>
    <rect x="0.404423" y="9.63874" width="20.1389" height="6.72255" rx="1.7525" stroke="white" stroke-width="0.808846"/>
    <path d="M11.5879 12.4621H14.0392" stroke="white" stroke-width="0.808846" stroke-linecap="round"/>
    <path d="M16.0449 12.4621H18.4963" stroke="white" stroke-width="0.808846" stroke-linecap="round"/>
    <rect x="0.404423" y="18.7878" width="20.1389" height="6.72255" rx="1.7525" stroke="white" stroke-width="0.808846"/>
    <path d="M11.5879 21.6111H14.0392" stroke="white" stroke-width="0.808846" stroke-linecap="round"/>
    <path d="M16.0449 21.6111H18.4963" stroke="white" stroke-width="0.808846" stroke-linecap="round"/>
  </symbol>
  <symbol id="checked" viewBox="0 0 28 28">
    <path d="M24.7196 3.28043C20.3456 -1.09348 13.2287 -1.09348 8.85481 3.28043C4.61059 7.52471 4.48478 14.3517 8.47739 18.7491L6.96505 20.2614L6.14918 19.4455C6.04657 19.343 5.90747 19.2853 5.76241 19.2853C5.61735 19.2853 5.4782 19.343 5.37565 19.4455L0.658397 24.1629C0.233833 24.5874 0 25.1518 0 25.7523C0 26.3527 0.233833 26.9171 0.658343 27.3417C1.08291 27.7662 1.64739 28 2.24775 28C2.84817 28 3.4126 27.7662 3.83716 27.3417L8.55446 22.6244C8.65702 22.5219 8.71467 22.3827 8.71467 22.2377C8.71467 22.0926 8.65702 21.9534 8.55446 21.8509L7.73859 21.035L9.25093 19.5227C11.3824 21.458 14.0848 22.4256 16.7872 22.4256C19.6599 22.4256 22.5326 21.3322 24.7196 19.1452C29.0935 14.7712 29.0935 7.65434 24.7196 3.28043ZM3.06362 26.5681C2.84571 26.786 2.55597 26.9061 2.24775 26.9061C1.93958 26.9061 1.6498 26.786 1.43193 26.5681C1.21396 26.3502 1.09396 26.0604 1.09396 25.7523C1.09396 25.4441 1.21396 25.1543 1.43193 24.9364L5.76241 20.6059L7.39416 22.2376L3.06362 26.5681ZM23.946 18.3716C19.9987 22.319 13.5758 22.319 9.6284 18.3717C5.68102 14.4242 5.68102 8.00134 9.62835 4.05397C11.6021 2.08025 14.1946 1.0934 16.7872 1.0934C19.3798 1.0934 21.9723 2.08025 23.946 4.05397C27.8934 8.00134 27.8934 14.4242 23.946 18.3716Z" fill="white"/>
    <path d="M25.5835 11.106C25.5411 10.8806 25.3505 10.7045 25.1251 10.6717C24.8981 10.6386 24.6647 10.7575 24.5612 10.963C24.4582 11.1674 24.491 11.4188 24.6483 11.5866C24.8026 11.7512 25.0479 11.8039 25.2564 11.7181C25.4941 11.6203 25.6346 11.3581 25.5835 11.106Z" fill="white"/>
    <path d="M24.8277 13.1905C24.5395 13.0996 24.2323 13.2595 24.1415 13.5476C23.7669 14.7347 23.1285 15.7852 22.2438 16.6698C20.7862 18.1274 18.8482 18.9302 16.7868 18.9302C14.7254 18.9302 12.7873 18.1275 11.3297 16.6698C8.32068 13.6608 8.32068 8.7648 11.3297 5.75576C12.7873 4.29812 14.7254 3.49538 16.7868 3.49538C18.8482 3.49538 20.7862 4.29812 22.2438 5.75576C23.1185 6.63049 23.7758 7.71362 24.1446 8.88798C24.2351 9.17624 24.5421 9.33645 24.8303 9.24592C25.1185 9.15545 25.2788 8.84838 25.1883 8.56018C24.7669 7.21833 24.0162 5.98106 23.0173 4.98217C21.3531 3.31788 19.1403 2.40137 16.7868 2.40137C14.4332 2.40137 12.2204 3.31788 10.5561 4.98217C7.12061 8.41774 7.12061 14.0078 10.5561 17.4434C12.2204 19.1076 14.4331 20.0242 16.7868 20.0242C19.1404 20.0242 21.3531 19.1077 23.0173 17.4434C24.0133 16.4474 24.7628 15.2141 25.1847 13.8767C25.2756 13.5886 25.1158 13.2814 24.8277 13.1905Z" fill="white"/>
    <path d="M18.2433 8.40728L16.123 10.5276L15.3311 9.73561C14.6239 9.02848 13.4733 9.02848 12.7662 9.73561C12.0591 10.4427 12.0591 11.5934 12.7662 12.3005L15.1731 14.7074C15.435 14.9693 15.779 15.1002 16.123 15.1002C16.4671 15.1002 16.8111 14.9693 17.073 14.7074L20.8082 10.9721C21.5154 10.265 21.5154 9.11441 20.8082 8.40722C20.8082 8.40722 20.8082 8.40722 20.8082 8.40717C20.101 7.70009 18.9504 7.70014 18.2433 8.40728ZM20.0347 10.1986L16.2994 13.9338C16.2022 14.0311 16.0439 14.0311 15.9466 13.9339L13.5398 11.527C13.2592 11.2464 13.2592 10.7899 13.5398 10.5093C13.6801 10.369 13.8644 10.2988 14.0487 10.2988C14.233 10.2988 14.4173 10.369 14.5575 10.5092L15.7363 11.6879C15.8389 11.7906 15.978 11.8482 16.123 11.8482C16.2681 11.8482 16.4073 11.7905 16.5098 11.6879L19.0169 9.18087C19.2975 8.90021 19.7541 8.90027 20.0347 9.18081C20.3153 9.46141 20.3153 9.91798 20.0347 10.1986Z" fill="white"/>
  </symbol>
  <symbol id="gears" viewBox="0 0 28 23">
    <path d="M27.4473 3.75182H26.8059C26.7624 3.63206 26.7136 3.51421 26.6596 3.39887L27.1133 2.94529C27.3287 2.72994 27.3287 2.37939 27.1133 2.16403L25.8359 0.8867C25.7316 0.782302 25.5928 0.724771 25.4452 0.724771C25.2977 0.724771 25.1591 0.782192 25.0545 0.886536L24.6009 1.34011C24.4856 1.28619 24.3677 1.23736 24.248 1.19393V0.552397C24.248 0.247843 24.0002 0 23.6955 0H21.8888C21.5842 0 21.3363 0.247733 21.3363 0.552397V1.19393C21.2165 1.23736 21.0987 1.28619 20.9834 1.34011L20.5298 0.886536C20.3144 0.671177 19.9639 0.671232 19.7485 0.886536L18.471 2.16403C18.2557 2.37939 18.2557 2.72994 18.471 2.94524L18.9246 3.39898C18.8707 3.51426 18.8219 3.63211 18.7785 3.75188H18.1369C17.8323 3.75188 17.5845 3.99967 17.5845 4.30433V6.11109C17.5845 6.41564 17.8322 6.66354 18.1369 6.66354H18.7785C18.8219 6.78331 18.8707 6.90116 18.9246 7.01649L18.471 7.47012C18.3667 7.57447 18.3092 7.71315 18.3092 7.86075C18.3092 8.00836 18.3667 8.14699 18.471 8.25133L19.7485 9.52894C19.964 9.7443 20.3145 9.7443 20.5298 9.52888L20.9834 9.07531C21.0987 9.12928 21.2165 9.17806 21.3363 9.22154V9.86302C21.3363 10.1676 21.5841 10.4155 21.8888 10.4155H23.6955C24.0001 10.4155 24.248 10.1677 24.248 9.86302V9.22154C24.3677 9.17806 24.4856 9.12928 24.6009 9.07531L25.0547 9.52905C25.159 9.63328 25.2976 9.6907 25.4452 9.6907C25.5928 9.6907 25.7315 9.63317 25.8358 9.52894L27.1133 8.25139C27.2176 8.14704 27.2751 8.00836 27.2751 7.86075C27.2751 7.71315 27.2176 7.57452 27.1133 7.47012L26.6596 7.01655C26.7136 6.90121 26.7624 6.78336 26.8059 6.6636H27.4473C27.7519 6.6636 27.9998 6.41581 27.9998 6.11114V4.30438C27.9998 3.99967 27.752 3.75182 27.4473 3.75182ZM27.1794 5.84312H26.507C26.3232 5.84312 26.1619 5.9654 26.1121 6.14237C26.0385 6.40432 25.9338 6.65736 25.8007 6.89438C25.7107 7.05472 25.7382 7.25531 25.8682 7.38536L26.3437 7.86075L25.445 8.75943L24.9696 8.28398C24.8395 8.15393 24.6389 8.12637 24.4786 8.21639C24.2416 8.34955 23.9886 8.45439 23.7267 8.52789C23.5497 8.5776 23.4274 8.73892 23.4274 8.92278V9.59511H22.1566V8.92278C22.1566 8.73898 22.0343 8.5776 21.8573 8.52789C21.5953 8.45428 21.3423 8.3495 21.1054 8.21644C20.9452 8.12632 20.7445 8.15393 20.6144 8.28398L20.139 8.75943L19.2404 7.86075L19.7158 7.38536C19.8458 7.25537 19.8734 7.05477 19.7833 6.89438C19.6503 6.65753 19.5455 6.40449 19.4719 6.14232C19.4221 5.9654 19.2608 5.84312 19.077 5.84312H18.4047V4.5723H19.077C19.2607 4.5723 19.4221 4.45007 19.4719 4.2731C19.5456 4.01093 19.6504 3.75789 19.7833 3.5211C19.8734 3.36081 19.8458 3.16022 19.7158 3.03017L19.2404 2.55466L20.139 1.65604L20.6145 2.13149C20.7445 2.26148 20.9453 2.28916 21.1055 2.19898C21.3423 2.06592 21.5953 1.96114 21.8574 1.88759C22.0343 1.83788 22.1566 1.67655 22.1566 1.49269V0.820364H23.4274V1.49269C23.4274 1.67649 23.5497 1.83788 23.7267 1.88759C23.9887 1.9612 24.2418 2.06598 24.4786 2.19903C24.6389 2.28905 24.8395 2.26148 24.9697 2.13149L25.4451 1.6561L26.3437 2.55472L25.8682 3.03017C25.7382 3.16022 25.7106 3.36086 25.8008 3.52121C25.9339 3.75806 26.0386 4.0111 26.1122 4.2731C26.1619 4.45002 26.3232 4.57235 26.5071 4.57235H27.1795V5.84312H27.1794Z" fill="white"/>
    <path d="M22.7924 3.0144C21.5831 3.0144 20.5991 3.99828 20.5991 5.20769C20.5991 6.4171 21.583 7.40098 22.7924 7.40098C24.0018 7.40098 24.9857 6.4171 24.9857 5.20769C24.9857 3.99828 24.0018 3.0144 22.7924 3.0144ZM22.7924 6.58062C22.0354 6.58062 21.4195 5.96468 21.4195 5.20764C21.4195 4.4506 22.0354 3.83466 22.7924 3.83466C23.5494 3.83466 24.1654 4.4506 24.1654 5.20764C24.1654 5.96473 23.5494 6.58062 22.7924 6.58062Z" fill="white"/>
    <path d="M7.97251 14.2237L6.86252 13.0458L7.97251 11.8679C8.12782 11.7031 8.12011 11.4436 7.95528 11.2881C7.79045 11.1328 7.53085 11.1405 7.37543 11.3053L6.00032 12.7645C5.85146 12.9225 5.85146 13.1691 6.00032 13.3272L7.37543 14.7864C7.53063 14.9512 7.79029 14.9591 7.95528 14.8036C8.12016 14.6482 8.12787 14.3886 7.97251 14.2237Z" fill="white"/>
    <path d="M13.0023 12.7646L11.6272 11.3054C11.4718 11.1405 11.2122 11.1328 11.0473 11.2882C10.8824 11.4436 10.8748 11.7032 11.0301 11.8681L12.1401 13.0459L11.0301 14.2239C10.8748 14.3887 10.8825 14.6482 11.0474 14.8037C11.2123 14.9591 11.4718 14.9513 11.6272 14.7865L13.0023 13.3272C13.1512 13.1693 13.1512 12.9226 13.0023 12.7646Z" fill="white"/>
    <path d="M10.0642 11.1971C9.84919 11.1262 9.61721 11.2435 9.5465 11.4586L8.5875 14.377C8.51679 14.5922 8.63393 14.824 8.84913 14.8948C9.06388 14.9655 9.29603 14.8487 9.36685 14.6332L10.3258 11.7148C10.3966 11.4996 10.2794 11.2678 10.0642 11.1971Z" fill="white"/>
    <path d="M18.3927 12.499C18.6193 12.499 18.8029 12.3154 18.8029 12.0889V11.3529C18.8027 10.9797 18.4991 10.6761 18.1259 10.6761H16.6679C16.5455 10.3006 16.394 9.93483 16.2152 9.58341L17.2463 8.55239C17.5101 8.28852 17.5101 7.85917 17.2463 7.59531L14.852 5.20099C14.5881 4.93717 14.1587 4.93723 13.8949 5.20099L12.8639 6.23201C12.5124 6.05318 12.1467 5.90175 11.7712 5.77936V4.32129C11.7712 3.94815 11.4676 3.64453 11.0944 3.64453H7.70829C7.33516 3.64453 7.03153 3.9481 7.03153 4.32129V5.77936C6.65605 5.9017 6.29035 6.05318 5.93882 6.23206L4.9078 5.20099C4.64399 4.93717 4.21453 4.93717 3.95072 5.20099L1.5564 7.59531C1.42854 7.72311 1.35816 7.89302 1.35816 8.07388C1.35816 8.25473 1.42854 8.42459 1.5564 8.55244L2.58742 9.58347C2.40865 9.93494 2.25716 10.3007 2.13483 10.6762H0.676756C0.303569 10.6761 0 10.9797 0 11.3529V14.739C0 15.1121 0.303569 15.4158 0.676756 15.4158H2.13488C2.25727 15.7913 2.4087 16.157 2.58748 16.5085L1.55651 17.5395C1.42865 17.6673 1.35827 17.8372 1.35827 18.018C1.35827 18.1988 1.42865 18.3687 1.55651 18.4966L3.95083 20.8909C4.21464 21.1547 4.6441 21.1547 4.90791 20.8909L5.93888 19.8599C6.29035 20.0386 6.6561 20.1901 7.03159 20.3125V21.7705C7.03159 22.1437 7.33516 22.4473 7.70834 22.4473H11.0945C11.4676 22.4473 11.7712 22.1437 11.7712 21.7705V20.3125C12.1468 20.1901 12.5125 20.0386 12.8639 19.8599L13.895 20.8909C14.1589 21.1547 14.5881 21.1547 14.852 20.8909L17.2464 18.4966C17.5102 18.2327 17.5102 17.8034 17.2464 17.5395L16.2153 16.5084C16.3942 16.1569 16.5456 15.7913 16.6679 15.4158H18.126C18.4991 15.4158 18.8028 15.1122 18.8028 14.739V14.003C18.8028 13.7765 18.6192 13.5929 18.3926 13.5929C18.166 13.5929 17.9825 13.7765 17.9825 14.003V14.5954H16.3639C16.1801 14.5954 16.0187 14.7176 15.969 14.8946C15.8232 15.4134 15.6159 15.914 15.3525 16.3825C15.2625 16.5428 15.2901 16.7434 15.4201 16.8734L16.5646 18.0181L14.3735 20.2092L13.2289 19.0646C13.0988 18.9347 12.8983 18.9069 12.7378 18.9971C12.2693 19.2603 11.7688 19.4678 11.2499 19.6136C11.073 19.6633 10.9508 19.8246 10.9508 20.0085V21.627H7.85206V20.0085C7.85206 19.8247 7.72978 19.6633 7.55287 19.6136C7.0341 19.4678 6.53349 19.2604 6.06499 18.9971C5.90464 18.907 5.704 18.9346 5.57395 19.0647L4.4294 20.2092L2.23819 18.0181L3.38274 16.8734C3.51273 16.7434 3.54035 16.5428 3.45028 16.3824C3.18707 15.914 2.97969 15.4134 2.83384 14.8946C2.78413 14.7176 2.6228 14.5953 2.439 14.5953H0.820365V11.4965H2.43895C2.62275 11.4965 2.78413 11.3742 2.83384 11.1972C2.97958 10.6785 3.18696 10.1779 3.45022 9.70936C3.54029 9.54907 3.51268 9.34842 3.38268 9.21832L2.23813 8.07377L4.42935 5.88261L5.57395 7.02722C5.70394 7.15715 5.90459 7.18488 6.06493 7.0947C6.5336 6.83143 7.0341 6.62401 7.55276 6.47832C7.72973 6.42861 7.85201 6.26728 7.85201 6.08342V4.46479H10.9509V6.08342C10.9509 6.26723 11.0731 6.42861 11.2501 6.47832C11.7688 6.62401 12.2694 6.83138 12.7379 7.0947C12.8983 7.18482 13.0989 7.15715 13.229 7.02722L14.3736 5.88261L16.5647 8.07377L15.4201 9.21832C15.2901 9.34836 15.2625 9.54901 15.3526 9.70936C15.6159 10.1779 15.8233 10.6785 15.9691 11.1972C16.0188 11.3742 16.1802 11.4965 16.364 11.4965H17.9826V12.0889C17.9826 12.3154 18.1661 12.499 18.3927 12.499Z" fill="white"/>
    <path d="M10.4333 7.68319C10.2109 7.64234 9.99671 7.78972 9.95575 8.01247C9.91479 8.23526 10.0622 8.44903 10.285 8.49C12.4809 8.89337 14.0747 10.8094 14.0747 13.0459C14.0747 15.6003 11.9966 17.6785 9.44218 17.6785C6.88779 17.6785 4.80962 15.6003 4.80962 13.0459C4.80962 10.8461 6.37242 8.93608 8.52563 8.50416C8.74771 8.45964 8.89165 8.24341 8.84708 8.02132C8.80256 7.79924 8.58638 7.6553 8.3643 7.69987C5.82921 8.20841 3.98926 10.4567 3.98926 13.0459C3.98926 16.0527 6.43548 18.4989 9.44218 18.4989C12.4489 18.4989 14.8951 16.0527 14.8951 13.0459C14.8951 10.4136 13.0186 8.15821 10.4333 7.68319Z" fill="white"/>
  </symbol>
  <symbol id="shield-2" viewBox="0 0 28 28">
    <path d="M22.2824 19.8759C22.2149 19.8758 22.1485 19.8584 22.0896 19.8253C22.0308 19.7921 21.9814 19.7444 21.9464 19.6867C21.9113 19.6289 21.8917 19.5632 21.8894 19.4957C21.8871 19.4282 21.9022 19.3612 21.9333 19.3012C22.1116 18.9564 22.2659 18.6274 22.4056 18.296C22.4474 18.2021 22.5242 18.1284 22.6196 18.0904C22.715 18.0524 22.8215 18.0532 22.9164 18.0927C23.0112 18.1321 23.0868 18.2071 23.1272 18.3015C23.1675 18.396 23.1693 18.5025 23.1322 18.5982C22.9862 18.9501 22.8232 19.2985 22.6343 19.6634C22.6009 19.7278 22.5504 19.7817 22.4883 19.8192C22.4262 19.8567 22.355 19.8763 22.2824 19.8759Z" fill="white"/>
    <path d="M13.6314 28C13.5698 27.9999 13.509 27.9855 13.4539 27.9579C6.90815 24.6543 3 19.1127 3 13.1334V5.17063C3.00002 5.11558 3.01159 5.06113 3.03396 5.01083C3.05634 4.96052 3.08902 4.91547 3.12989 4.87858C3.17089 4.84185 3.21906 4.81403 3.27137 4.79689C3.32368 4.77974 3.37897 4.77365 3.43376 4.77899C7.32616 5.17969 10.6561 3.76899 13.3299 0.587443C13.3665 0.544008 13.412 0.508996 13.4633 0.484809C13.5147 0.460622 13.5707 0.447833 13.6275 0.447318C13.6843 0.446381 13.7407 0.457953 13.7926 0.481215C13.8445 0.504477 13.8906 0.538861 13.9278 0.581933C16.2765 3.26832 19.6241 4.67941 23.8782 4.77703C23.9811 4.77939 24.0789 4.8219 24.1507 4.89546C24.2226 4.96902 24.2628 5.06779 24.2628 5.17063V11.6534C24.2628 11.7578 24.2213 11.8579 24.1475 11.9317C24.0737 12.0055 23.9736 12.047 23.8692 12.047C23.7648 12.047 23.6647 12.0055 23.5909 11.9317C23.517 11.8579 23.4756 11.7578 23.4756 11.6534V5.55244C19.3494 5.38122 16.0438 3.99768 13.6385 1.43489C10.9383 4.47355 7.62767 5.87165 3.78722 5.60006V13.1334C3.78722 18.7557 7.46314 23.9887 13.6314 27.1644C16.2916 25.8341 18.6265 23.9348 20.4704 21.6011C20.5018 21.56 20.541 21.5255 20.5857 21.4996C20.6304 21.4737 20.6798 21.4568 20.731 21.45C20.7823 21.4432 20.8344 21.4465 20.8843 21.4598C20.9343 21.4731 20.9811 21.4961 21.0222 21.5275C21.0633 21.5589 21.0978 21.5981 21.1237 21.6428C21.1496 21.6875 21.1665 21.7369 21.1733 21.7882C21.1801 21.8394 21.1768 21.8915 21.1635 21.9414C21.1502 21.9914 21.1272 22.0383 21.0958 22.0793C19.1368 24.5589 16.6468 26.5677 13.8089 27.9579C13.7538 27.9855 13.693 27.9999 13.6314 28Z" fill="white"/>
    <path d="M23.5979 16.1995C23.5715 16.1997 23.5451 16.1971 23.5192 16.1917C23.4169 16.1712 23.3268 16.111 23.2689 16.0242C23.2109 15.9374 23.1898 15.8311 23.2102 15.7288C23.2889 15.3466 23.3488 14.9561 23.3944 14.5676C23.3995 14.5156 23.4149 14.465 23.4398 14.419C23.4646 14.3729 23.4984 14.3323 23.5392 14.2994C23.5799 14.2666 23.6268 14.2422 23.6771 14.2277C23.7274 14.2132 23.7801 14.2089 23.832 14.215C23.884 14.2211 23.9343 14.2375 23.9798 14.2632C24.0254 14.289 24.0654 14.3235 24.0974 14.3649C24.1294 14.4063 24.1529 14.4536 24.1664 14.5042C24.1799 14.5548 24.1832 14.6075 24.1761 14.6594C24.1281 15.0687 24.0628 15.4804 23.9821 15.8831C23.9643 15.972 23.9164 16.0521 23.8464 16.1097C23.7764 16.1674 23.6886 16.1991 23.5979 16.1995Z" fill="white"/>
    <path d="M13.6317 25.4234C13.5641 25.4234 13.4977 25.4059 13.4389 25.3726C8.30148 22.4851 5.23486 17.9271 5.23486 13.1794V7.42911C5.23476 7.32772 5.27379 7.2302 5.34382 7.15687C5.41385 7.08354 5.50947 7.04007 5.61076 7.0355C8.52992 6.90891 11.3031 5.72348 13.4117 3.70084C13.4822 3.6355 13.5741 3.59818 13.6702 3.59593C13.7662 3.59369 13.8598 3.62666 13.9332 3.68864C16.1401 5.49677 18.8386 6.60122 21.6799 6.85917C21.7759 6.87009 21.8646 6.91596 21.929 6.98804C21.9933 7.06012 22.029 7.15337 22.029 7.25002V13.179C22.029 17.9267 18.962 22.4851 13.8246 25.3726C13.7658 25.4059 13.6993 25.4234 13.6317 25.4234ZM6.02208 7.80029V13.1794C6.02208 17.5795 8.86237 21.8262 13.6317 24.5755C18.4015 21.8254 21.2418 17.5779 21.2418 13.1778V7.59797C18.4881 7.28563 15.8748 6.21669 13.6916 4.50971C11.577 6.43647 8.8755 7.59554 6.02208 7.80029Z" fill="white"/>
    <path d="M11.9118 17.7316C11.8074 17.7315 11.7073 17.6901 11.6335 17.6162L9.41713 15.3998C9.34543 15.3256 9.30576 15.2262 9.30666 15.1229C9.30755 15.0197 9.34895 14.921 9.42193 14.848C9.49491 14.7751 9.59363 14.7337 9.69683 14.7328C9.80003 14.7319 9.89946 14.7716 9.9737 14.8432L11.9118 16.7822L17.2893 11.4035C17.3259 11.3669 17.3693 11.3379 17.417 11.3181C17.4648 11.2983 17.516 11.2881 17.5677 11.2881C17.6194 11.2881 17.6706 11.2982 17.7183 11.318C17.7661 11.3378 17.8095 11.3668 17.8461 11.4033C17.8827 11.4398 17.9117 11.4832 17.9315 11.531C17.9513 11.5787 17.9615 11.6299 17.9615 11.6816C17.9615 11.7333 17.9513 11.7845 17.9316 11.8323C17.9118 11.8801 17.8828 11.9235 17.8463 11.9601L12.1901 17.6162C12.1163 17.6901 12.0162 17.7315 11.9118 17.7316Z" fill="white"/>
  </symbol>
  <symbol id="parachute" viewBox="0 0 28 32">
    <path d="M13.9917 24.3824C13.8867 24.3824 13.7607 24.3404 13.6767 24.2354C13.5297 24.0674 13.5507 23.8154 13.7187 23.6683L26.9919 12.3273C27.1389 11.8862 27.1599 11.5082 27.1599 11.4662C27.1599 8.98798 25.5218 6.86678 25.5008 6.84578L25.4798 6.82477C23.2116 3.27544 20.0193 2.14134 18.4651 1.59529C17.583 1.28026 14.4117 0.356174 10.0643 1.42727C6.53601 2.28835 3.49072 4.66157 1.74756 7.93788C0.907483 9.49202 0.76047 10.6471 0.781471 11.3402C0.781471 11.4872 0.802473 11.6132 0.802473 11.7182C1.49554 10.9832 2.90267 9.87006 5.02387 9.97507C5.23388 9.97507 7.85913 10.1011 9.39227 12.5583C9.98033 11.6342 11.3034 10.1221 13.8447 9.97507C13.9287 9.97507 14.7688 9.91206 15.7769 10.2691C16.6169 10.5631 17.751 11.1932 18.6121 12.5373C19.1792 11.6132 20.4813 10.1221 22.9385 9.97507C23.1485 9.95406 23.3586 10.1221 23.3586 10.3531C23.3796 10.5841 23.2116 10.7731 22.9805 10.7731C20.0193 10.9412 19.0532 13.4194 19.0112 13.5244C18.9482 13.6714 18.8221 13.7764 18.6541 13.7764C18.5071 13.7764 18.3391 13.6924 18.2761 13.5454C16.806 10.5631 13.9497 10.7521 13.9077 10.7521C10.8414 10.9412 9.83331 13.4404 9.79131 13.5454C9.7283 13.6924 9.58129 13.7974 9.43427 13.7974C9.26626 13.7974 9.11925 13.7134 9.05624 13.5664C7.81712 10.8361 5.06587 10.7731 5.04487 10.7731H5.02387C2.35662 10.6681 0.991491 12.7893 0.991491 12.8103C0.907483 12.9363 0.781471 12.9993 0.634458 12.9993C0.487444 12.9993 0.361432 12.9153 0.298427 12.7893C0.256423 12.7263 -0.709667 10.8992 1.0755 7.58084C2.92367 4.11552 6.13697 1.59529 9.89632 0.671203C14.4537 -0.462902 17.8351 0.524189 18.7591 0.86022C20.2503 1.38527 23.7366 2.62438 26.1728 6.38373C26.3408 6.61476 28 8.81996 28 11.4872C28 11.5292 27.979 12.0963 27.748 12.7263C27.727 12.7893 27.685 12.8523 27.643 12.8943L14.2437 24.2984C14.1807 24.3614 14.0757 24.3824 13.9917 24.3824Z" />
    <path d="M13.9078 24.3194C13.8238 24.3194 13.7187 24.2984 13.6557 24.2144L0.382504 12.9154C0.214489 12.7684 0.193487 12.5163 0.3405 12.3483C0.487514 12.1803 0.739537 12.1593 0.907553 12.3063L14.1808 23.6264C14.3488 23.7734 14.3698 24.0254 14.2228 24.1934C14.1388 24.2774 14.0338 24.3194 13.9078 24.3194Z" />
    <path d="M13.9496 24.3194C13.8026 24.3194 13.6556 24.2354 13.5715 24.0884L9.03512 13.5874C8.95111 13.3774 9.03512 13.1464 9.24514 13.0623C9.45516 12.9783 9.68618 13.0623 9.77019 13.2724L14.3276 23.7733C14.4116 23.9834 14.3276 24.2144 14.1176 24.2984C14.0546 24.3194 14.0126 24.3194 13.9496 24.3194Z" />
    <path d="M13.9918 24.3824C13.9288 24.3824 13.8868 24.3614 13.8238 24.3404C13.6137 24.2564 13.5297 24.0254 13.6137 23.8154L18.2552 13.2304C18.3392 13.0204 18.5912 12.9363 18.7802 13.0204C18.9902 13.1044 19.0742 13.3354 18.9902 13.5454L14.3488 24.1304C14.2858 24.2984 14.1388 24.3824 13.9918 24.3824Z" />
    <path d="M18.6751 31.8591H9.20324C8.97221 31.8591 8.8042 31.6701 8.8042 31.4601V24.0044C8.8042 23.7734 8.99322 23.6053 9.20324 23.6053H11.5555C11.7865 23.6053 11.9545 23.7944 11.9545 24.0044C11.9545 24.2144 11.7655 24.4034 11.5555 24.4034H9.60227V31.061H18.2761V24.4034H14.0547C13.8237 24.4034 13.6557 24.2144 13.6557 24.0044C13.6557 23.7944 13.8447 23.6053 14.0547 23.6053H18.6751C18.9061 23.6053 19.0742 23.7944 19.0742 24.0044V31.4601C19.0742 31.6911 18.8851 31.8591 18.6751 31.8591Z" />
    <path d="M11.3455 24.9075C11.8442 24.9075 12.2486 24.5032 12.2486 24.0044C12.2486 23.5056 11.8442 23.1013 11.3455 23.1013C10.8467 23.1013 10.4424 23.5056 10.4424 24.0044C10.4424 24.5032 10.8467 24.9075 11.3455 24.9075Z" />
    <path d="M23.0857 11.2772C23.5845 11.2772 23.9888 10.8729 23.9888 10.3742C23.9888 9.87539 23.5845 9.47107 23.0857 9.47107C22.5869 9.47107 22.1826 9.87539 22.1826 10.3742C22.1826 10.8729 22.5869 11.2772 23.0857 11.2772Z" />
    <path d="M16.7638 30.1579C16.5328 30.1579 16.3647 29.9689 16.3647 29.7589V25.6635C16.3647 25.4955 16.4698 25.3485 16.6168 25.2855C16.7638 25.2225 16.9318 25.2645 17.0578 25.3695L17.9399 26.2516C18.0869 26.3986 18.0869 26.6716 17.9399 26.8186C17.7929 26.9656 17.5199 26.9656 17.3728 26.8186L17.1838 26.6296V29.7589C17.1628 29.9899 16.9738 30.1579 16.7638 30.1579Z" />
    <path d="M15.8818 26.9447C15.7768 26.9447 15.6718 26.9027 15.6088 26.8187C15.4618 26.6717 15.4618 26.3986 15.6088 26.2516L16.4909 25.3695C16.6379 25.2225 16.9109 25.2225 17.0579 25.3695C17.2049 25.5166 17.2049 25.7896 17.0579 25.9366L16.1758 26.8187C16.0918 26.9027 15.9868 26.9447 15.8818 26.9447Z" />
  </symbol>
  <symbol id="branching" viewBox="0 0 28 28">
    <path d="M26 20.3333H24.6667V15C24.6667 14.8232 24.5964 14.6536 24.4714 14.5286C24.3464 14.4036 24.1768 14.3333 24 14.3333H18V13.6666C18 13.1362 17.7893 12.6275 17.4142 12.2524C17.0391 11.8774 16.5304 11.6666 16 11.6666H14.6667V7.66665H16C16.5304 7.66665 17.0391 7.45593 17.4142 7.08086C17.7893 6.70579 18 6.19708 18 5.66665V2.33331C18 1.80288 17.7893 1.29417 17.4142 0.9191C17.0391 0.544027 16.5304 0.333313 16 0.333313H12C11.4696 0.333313 10.9609 0.544027 10.5858 0.9191C10.2107 1.29417 10 1.80288 10 2.33331V5.66665C10 6.19708 10.2107 6.70579 10.5858 7.08086C10.9609 7.45593 11.4696 7.66665 12 7.66665H13.3333V11.6666H12C11.4696 11.6666 10.9609 11.8774 10.5858 12.2524C10.2107 12.6275 10 13.1362 10 13.6666V14.3333H4C3.82319 14.3333 3.65362 14.4036 3.5286 14.5286C3.40357 14.6536 3.33333 14.8232 3.33333 15V20.3333H2C1.46957 20.3333 0.960859 20.544 0.585787 20.9191C0.210714 21.2942 0 21.8029 0 22.3333V25.6666C0 26.1971 0.210714 26.7058 0.585787 27.0809C0.960859 27.4559 1.46957 27.6666 2 27.6666H6C6.53043 27.6666 7.03914 27.4559 7.41421 27.0809C7.78929 26.7058 8 26.1971 8 25.6666V22.3333C8 21.8029 7.78929 21.2942 7.41421 20.9191C7.03914 20.544 6.53043 20.3333 6 20.3333H4.66667V15.6666H10V16.3333C10 16.8637 10.2107 17.3725 10.5858 17.7475C10.9609 18.1226 11.4696 18.3333 12 18.3333H16C16.5304 18.3333 17.0391 18.1226 17.4142 17.7475C17.7893 17.3725 18 16.8637 18 16.3333V15.6666H23.3333V20.3333H22C21.4696 20.3333 20.9609 20.544 20.5858 20.9191C20.2107 21.2942 20 21.8029 20 22.3333V25.6666C20 26.1971 20.2107 26.7058 20.5858 27.0809C20.9609 27.4559 21.4696 27.6666 22 27.6666H26C26.5304 27.6666 27.0391 27.4559 27.4142 27.0809C27.7893 26.7058 28 26.1971 28 25.6666V22.3333C28 21.8029 27.7893 21.2942 27.4142 20.9191C27.0391 20.544 26.5304 20.3333 26 20.3333ZM11.3333 5.66665V2.33331C11.3333 2.1565 11.4036 1.98693 11.5286 1.86191C11.6536 1.73688 11.8232 1.66665 12 1.66665H16C16.1768 1.66665 16.3464 1.73688 16.4714 1.86191C16.5964 1.98693 16.6667 2.1565 16.6667 2.33331V5.66665C16.6667 5.84346 16.5964 6.01303 16.4714 6.13805C16.3464 6.26308 16.1768 6.33331 16 6.33331H12C11.8232 6.33331 11.6536 6.26308 11.5286 6.13805C11.4036 6.01303 11.3333 5.84346 11.3333 5.66665ZM6.66667 22.3333V25.6666C6.66667 25.8435 6.59643 26.013 6.4714 26.1381C6.34638 26.2631 6.17681 26.3333 6 26.3333H2C1.82319 26.3333 1.65362 26.2631 1.5286 26.1381C1.40357 26.013 1.33333 25.8435 1.33333 25.6666V22.3333C1.33333 22.1565 1.40357 21.9869 1.5286 21.8619C1.65362 21.7369 1.82319 21.6666 2 21.6666H6C6.17681 21.6666 6.34638 21.7369 6.4714 21.8619C6.59643 21.9869 6.66667 22.1565 6.66667 22.3333ZM16.6667 16.3333C16.6667 16.5101 16.5964 16.6797 16.4714 16.8047C16.3464 16.9297 16.1768 17 16 17H12C11.8232 17 11.6536 16.9297 11.5286 16.8047C11.4036 16.6797 11.3333 16.5101 11.3333 16.3333V13.6666C11.3333 13.4898 11.4036 13.3203 11.5286 13.1952C11.6536 13.0702 11.8232 13 12 13H16C16.1768 13 16.3464 13.0702 16.4714 13.1952C16.5964 13.3203 16.6667 13.4898 16.6667 13.6666V16.3333ZM26.6667 25.6666C26.6667 25.8435 26.5964 26.013 26.4714 26.1381C26.3464 26.2631 26.1768 26.3333 26 26.3333H22C21.8232 26.3333 21.6536 26.2631 21.5286 26.1381C21.4036 26.013 21.3333 25.8435 21.3333 25.6666V22.3333C21.3333 22.1565 21.4036 21.9869 21.5286 21.8619C21.6536 21.7369 21.8232 21.6666 22 21.6666H26C26.1768 21.6666 26.3464 21.7369 26.4714 21.8619C26.5964 21.9869 26.6667 22.1565 26.6667 22.3333V25.6666Z" fill="white"/>
  </symbol>
  <symbol id="arrow-left" viewBox="0 0 9 17">
    <path d="M8.06067 1.33584L1 8.78877L8.06067 16.2417"  stroke-width="1.17678" stroke-linecap="round"/>
  </symbol>
  <symbol id="gear" viewBox="0 0 59 61">
    <path d="M57.272 37.5895L52.158 34.6633C52.6742 31.9036 52.6742 29.0726 52.158 26.3129L57.272 23.3867C57.8602 23.0537 58.1243 22.3637 57.9322 21.7214C56.5997 17.4867 54.3308 13.6565 51.3657 10.4686C50.9096 9.98092 50.1653 9.86197 49.5891 10.195L44.4751 13.1212C42.3263 11.2894 39.8534 9.87387 37.1764 8.94605V3.10555C37.1764 2.43942 36.7082 1.85656 36.0479 1.71382C31.6423 0.738419 27.1286 0.785999 22.939 1.71382C22.2788 1.85656 21.8106 2.43942 21.8106 3.10555V8.95794C19.1456 9.89766 16.6726 11.3132 14.5118 13.1331L9.4099 10.2069C8.82168 9.87387 8.08941 9.98092 7.63324 10.4805C4.66812 13.6565 2.39926 17.4867 1.06676 21.7333C0.862683 22.3756 1.13879 23.0656 1.72701 23.3986L6.84094 26.3248C6.32474 29.0845 6.32474 31.9155 6.84094 34.6752L1.72701 37.6014C1.13879 37.9344 0.874687 38.6244 1.06676 39.2667C2.39926 43.5014 4.66812 47.3316 7.63324 50.5195C8.08941 51.0072 8.83369 51.1261 9.4099 50.7931L14.5238 47.8669C16.6726 49.6987 19.1456 51.1142 21.8226 52.0421V57.8944C21.8226 58.5606 22.2908 59.1434 22.951 59.2862C27.3567 60.2616 31.8704 60.214 36.06 59.2862C36.7202 59.1434 37.1884 58.5606 37.1884 57.8944V52.0421C39.8534 51.1023 42.3263 49.6868 44.4871 47.8669L49.6011 50.7931C50.1893 51.1261 50.9216 51.0191 51.3777 50.5195C54.3428 47.3435 56.6117 43.5133 57.9442 39.2667C58.1243 38.6125 57.8602 37.9226 57.272 37.5895V37.5895ZM29.4935 40.0042C24.1995 40.0042 19.8899 35.7338 19.8899 30.4881C19.8899 25.2424 24.1995 20.972 29.4935 20.972C34.7875 20.972 39.0971 25.2424 39.0971 30.4881C39.0971 35.7338 34.7875 40.0042 29.4935 40.0042Z" stroke="#A41FE2" stroke-width="1.5"/>
  </symbol>
  <symbol id="people" viewBox="0 0 66 62">
    <path d="M59.1656 29.9141C59.4475 34.6681 58.4364 39.4096 56.2399 43.635C54.0434 47.8605 51.7603 50.3952 47.7073 52.8957" stroke="#A41FE2" stroke-width="1.5" stroke-linecap="round"/>
    <path d="M6.52826 29.9141C6.2464 34.6681 7.25743 39.4096 9.45396 43.635C11.6505 47.8605 13.9335 50.3952 17.9865 52.8957" stroke="#A41FE2" stroke-width="1.5" stroke-linecap="round"/>
    <path d="M24.3554 7.05554C29.7303 5.22681 35.552 5.182 40.9545 6.92779" stroke="#A41FE2" stroke-width="1.5" stroke-linecap="round"/>
    <path d="M14.039 15.5986C18.0527 15.5986 21.3065 12.3306 21.3065 8.2993C21.3065 4.26801 18.0527 1 14.039 1C10.0253 1 6.77148 4.26801 6.77148 8.2993C6.77148 12.3306 10.0253 15.5986 14.039 15.5986Z" stroke="#A41FE2" stroke-width="1.5" stroke-miterlimit="10"/>
    <path d="M10.4261 15.7148H17.6528C20.1527 15.7148 22.5503 16.7123 24.318 18.4878C26.0858 20.2632 27.0789 22.6713 27.0789 25.1822V27.0756H1V25.1822C1 22.6713 1.9931 20.2632 3.76084 18.4878C5.52858 16.7123 7.92614 15.7148 10.4261 15.7148V15.7148Z" stroke="#A41FE2" stroke-width="1.5" stroke-miterlimit="10"/>
    <path d="M10.1118 15.7937L14.3536 20.4485L18.6739 15.7937" stroke="#A41FE2" stroke-width="1.5" stroke-miterlimit="10"/>
    <path d="M51.3906 15.5986C55.4043 15.5986 58.6581 12.3306 58.6581 8.2993C58.6581 4.26801 55.4043 1 51.3906 1C47.3768 1 44.123 4.26801 44.123 8.2993C44.123 12.3306 47.3768 15.5986 51.3906 15.5986Z" stroke="#A41FE2" stroke-width="1.5" stroke-miterlimit="10"/>
    <path d="M47.7777 15.7148H55.0043C57.5043 15.7148 59.9019 16.7123 61.6696 18.4878C63.4373 20.2632 64.4304 22.6713 64.4304 25.1822V27.0756H38.3516V25.1822C38.3516 22.6713 39.3447 20.2632 41.1124 18.4878C42.8801 16.7123 45.2777 15.7148 47.7777 15.7148V15.7148Z" stroke="#A41FE2" stroke-width="1.5" stroke-miterlimit="10"/>
    <path d="M47.4634 15.7937L51.7051 20.4485L56.0254 15.7937" stroke="#A41FE2" stroke-width="1.5" stroke-miterlimit="10"/>
    <path d="M32.9008 49.5234C36.9146 49.5234 40.1683 46.2554 40.1683 42.2241C40.1683 38.1928 36.9146 34.9248 32.9008 34.9248C28.8871 34.9248 25.6333 38.1928 25.6333 42.2241C25.6333 46.2554 28.8871 49.5234 32.9008 49.5234Z" stroke="#A41FE2" stroke-width="1.5" stroke-miterlimit="10"/>
    <path d="M29.2879 49.6392H36.5146C39.0145 49.6392 41.4121 50.6366 43.1799 52.4121C44.9476 54.1875 45.9407 56.5956 45.9407 59.1065V60.9999H19.8618V59.1065C19.8618 56.5956 20.8549 54.1875 22.6227 52.4121C24.3904 50.6366 26.788 49.6392 29.2879 49.6392V49.6392Z" stroke="#A41FE2" stroke-width="1.5" stroke-miterlimit="10"/>
    <path d="M28.9736 49.7185L33.2154 54.3733L37.5357 49.7185" stroke="#A41FE2" stroke-width="1.5" stroke-miterlimit="10"/>
  </symbol>
  <symbol id="shield" viewBox="0 0 48 60">
    <path d="M26.811 3.69296C31.3427 6.92666 37.0548 9.58375 43.1855 11.2355C45.1807 11.7731 46.6174 13.4917 46.6422 15.4896C46.6755 18.1749 46.7291 22.5483 46.8156 29.6358C46.9154 37.823 43.2142 44.2237 38.7022 48.9874C34.1841 53.7575 28.8871 56.8467 25.9055 58.379C24.874 58.9091 23.6695 58.9339 22.6339 58.4369C19.6266 56.9936 14.2413 53.9981 9.5919 49.3016C4.948 44.6107 1.0754 38.2637 0.975792 30.0886L0.283539 30.0971L0.975792 30.0886C0.889972 23.0536 0.83656 18.6925 0.803194 16.0021C0.778088 13.9778 2.20037 12.1932 4.20863 11.6043C10.253 9.8319 15.8349 7.07289 20.2503 3.76763C22.1571 2.34023 24.872 2.30938 26.811 3.69296Z" stroke="#A41FE2" stroke-width="1.5"/>
    <path fill-rule="evenodd" clip-rule="evenodd" d="M32.1919 20.3234C33.8289 21.0977 34.5139 23.0228 33.7218 24.6232L26.4746 39.2653C25.9805 40.2635 24.9957 40.9428 23.868 41.0632C22.7404 41.1836 21.6288 40.7282 20.9259 39.8578L13.6787 30.8837C12.5518 29.4883 12.7954 27.464 14.2228 26.3623C15.6502 25.2607 17.7209 25.4988 18.8478 26.8943L22.8367 31.8336L27.7935 21.819C28.5856 20.2186 30.5549 19.549 32.1919 20.3234Z" stroke="#A41FE2" stroke-width="1.5" stroke-linecap="round"/>
  </symbol>
  <symbol id="comp" viewBox="0 0 89 60">
    <rect x="0.75" y="0.75" width="67.5007" height="44.5005" rx="3.25" stroke="#A41FE2" stroke-width="1.5"/>
    <path d="M0 37.9512H69.0007" stroke="#A41FE2" stroke-width="1.5"/>
    <path d="M25.5612 50.5006L27.2501 45.7505H41.7472L43.4361 50.5006H25.5612Z" stroke="#A41FE2" stroke-width="1.5"/>
    <rect x="18.001" y="51.0002" width="31.8504" height="4.25006" rx="1.25" stroke="#A41FE2" stroke-width="1.5"/>
    <path d="M39.5024 25.7498C39.5024 25.0594 40.0621 24.4998 40.7524 24.4998H81.7529C82.4433 24.4998 83.0029 25.0594 83.0029 25.7498V49.25C83.0029 49.9404 82.4433 50.5 81.7529 50.5H40.7524C40.0621 50.5 39.5024 49.9404 39.5024 49.25V25.7498Z" fill="white" stroke="#A41FE2" stroke-width="1.5"/>
    <path d="M43.2524 28.4998C43.2524 28.3617 43.3644 28.2498 43.5024 28.2498H79.0028C79.1409 28.2498 79.2528 28.3617 79.2528 28.4998V45.25C79.2528 45.388 79.1409 45.5 79.0028 45.5H43.5024C43.3644 45.5 43.2524 45.388 43.2524 45.25V28.4998Z" fill="white" stroke="#A41FE2" stroke-width="1.5"/>
    <path d="M39.145 49.6389C39.1873 49.5542 39.2739 49.5007 39.3686 49.5007H83.133C83.2277 49.5007 83.3142 49.5542 83.3566 49.6389L87.3566 57.639C87.4398 57.8053 87.3189 58.0008 87.133 58.0008H35.3685C35.1827 58.0008 35.0618 57.8053 35.1449 57.639L39.145 49.6389Z" fill="white" stroke="#A41FE2" stroke-width="1.5"/>
    <rect x="34" y="57.0002" width="54" height="3" rx="1.5" fill="#A41FE2"/>
  </symbol>
  <symbol id="warning" viewBox="0 0 66 60">
    <path d="M28.6955 3.29557C30.6118 -0.0985261 35.3882 -0.0985239 37.3045 3.29558L64.5714 51.5883C66.5066 55.0157 64.0711 59.25 60.2669 59.25H5.7331C1.92893 59.25 -0.506625 55.0157 1.42858 51.5883L28.6955 3.29557Z" stroke-width="1.5"/>
    <path d="M30.4998 49.4873L30.4998 49.4874L30.5085 49.496C31.3567 50.3418 32.4414 50.75 33.698 50.75C34.9378 50.75 36.01 50.3388 36.8552 49.496L36.8552 49.4961L36.8638 49.4873C37.6944 48.6314 38.1136 47.5804 38.1136 46.3773C38.1136 45.158 37.6982 44.1077 36.8503 43.2883C36.0195 42.464 34.9446 42.0736 33.698 42.0736C32.4489 42.0736 31.3672 42.4652 30.5176 43.2842C29.6668 44.1042 29.25 45.156 29.25 46.3773C29.25 47.5804 29.6692 48.6314 30.4998 49.4873ZM34.1126 22.25H33.2756C31.0893 22.25 29.3666 24.1126 29.537 26.2923L30.2934 35.9675C30.4317 37.7375 31.9084 39.1033 33.6839 39.1033C35.4566 39.1033 36.932 37.7416 37.0738 35.9746L37.8506 26.3001C38.0258 24.1177 36.302 22.25 34.1126 22.25Z" stroke-width="1.5"/>
  </symbol>
  <symbol id="heart" viewBox="0 0 11 11">
    <path d="M10.9994 3.6316C10.9994 3.62292 10.9994 3.61442 10.9994 3.60592C10.9994 1.98459 9.81097 0.5 8.02405 0.5C6.6043 0.5 5.78087 1.50691 5.50004 2.44943C5.21921 1.50691 4.39577 0.5 2.97603 0.5C1.18911 0.5 0.000704137 1.98459 0.000704137 3.60592C0.000704137 3.61442 0.000704137 3.62292 0.000704137 3.6316C-0.00882804 3.9843 0.000704311 7.57459 5.49766 10.4991V10.5H5.49857V10.4991C10.9994 7.57369 11.0082 3.9843 10.9994 3.6316Z" fill="#A41FE2"/>
  </symbol>
  <symbol id="github" viewBox="0 0 29 29">
    <path d="M14.5 0C6.525 0 0 6.68783 0 14.8618C0 21.4258 4.10833 26.999 9.90833 28.9806C10.6333 29.1045 10.875 28.6091 10.875 28.2375V25.5128C6.8875 26.3798 6.04167 23.779 6.04167 23.779C5.4375 22.0451 4.47083 21.5497 4.47083 21.5497C3.14167 20.6827 4.59167 20.6827 4.59167 20.6827C6.04167 20.8066 6.76667 22.1689 6.76667 22.1689C8.09583 24.3982 10.15 23.779 10.9958 23.4074C11.1167 22.4166 11.4792 21.7974 11.9625 21.4258C8.57917 21.0543 5.19583 19.8158 5.19583 14.1188C5.19583 12.5087 5.8 11.1464 6.64583 10.1556C6.64583 9.78405 6.04167 8.17402 6.8875 6.19244C6.8875 6.19244 8.09583 5.82089 10.875 7.67862C12.0833 7.30708 13.2917 7.18323 14.5 7.18323C15.7083 7.18323 16.9167 7.30708 18.125 7.67862C20.9042 5.82089 22.1125 6.19244 22.1125 6.19244C22.9583 8.29786 22.3542 9.78405 22.2333 10.1556C23.2 11.1464 23.6833 12.5087 23.6833 14.1188C23.6833 19.8158 20.3 21.0543 17.0375 21.4258C17.5208 21.9212 18.0042 22.7882 18.0042 24.1505V28.2375C18.0042 28.6091 18.2458 29.1045 18.9708 28.9806C24.8917 26.999 29 21.4258 29 14.8618C29 6.68783 22.475 0 14.5 0Z" fill="#333037"/>
  </symbol>
  <symbol id="star" viewBox="0 0 16 15">
    <path d="M8 0L10.3088 4.82218L15.6085 5.52786L11.7358 9.21382L12.7023 14.4721L8 11.928L3.29772 14.4721L4.26425 9.21382L0.391548 5.52786L5.69118 4.82218L8 0Z" fill="#A41FE2"/>
  </symbol>
  <symbol id="vault" viewBox="0 0 62 60">
    <path fill-rule="evenodd" clip-rule="evenodd" d="M31.3527 30.6667C32.3533 30.6667 33.104 29.8326 33.104 28.9167C33.104 28.0009 32.3533 27.1668 31.3527 27.1668C30.3521 27.1668 29.6016 28.0009 29.6016 28.9167C29.6016 29.8326 30.3521 30.6667 31.3527 30.6667ZM26.0993 25.8336C27.0999 25.8336 27.8504 24.9995 27.8504 24.0837C27.8504 23.0837 27.0999 22.3337 26.0993 22.3337C25.0987 22.3337 24.3483 23.1678 24.3483 24.0837C24.3483 25.0836 25.0987 25.8336 26.0993 25.8336ZM31.3527 25.8336C32.3533 25.8336 33.104 24.9995 33.104 24.0837C33.104 23.0837 32.3533 22.3337 31.3527 22.3337C30.3521 22.3337 29.6016 23.1678 29.6016 24.0837C29.6016 25.0834 30.3521 25.8334 31.3527 25.8334V25.8336ZM36.6061 25.8336C37.6067 25.8336 38.3571 24.9995 38.3571 24.0837C38.3571 23.0837 37.6067 22.3337 36.6061 22.3337C35.6055 22.3337 34.855 23.1678 34.855 24.0837C34.855 25.0834 35.6887 25.8334 36.6061 25.8334V25.8336ZM26.0993 21.0837C27.0999 21.0837 27.8504 20.2496 27.8504 19.3338C27.8504 18.3338 27.0999 17.5838 26.0993 17.5838C25.0987 17.5838 24.3483 18.4179 24.3483 19.3338C24.3485 20.334 25.099 21.0835 26.0996 21.0835L26.0993 21.0837ZM31.3527 21.0837C32.3533 21.0837 33.104 20.2496 33.104 19.3338C33.104 18.3338 32.3533 17.5838 31.3527 17.5838C30.3521 17.5838 29.6016 18.4179 29.6016 19.3338C29.6016 20.334 30.3521 21.0835 31.3527 21.0835V21.0837ZM36.6061 21.0837C37.6067 21.0837 38.3571 20.2496 38.3571 19.3338C38.3571 18.3338 37.6067 17.5838 36.6061 17.5838C35.6055 17.5838 34.855 18.4179 34.855 19.3338C34.855 20.334 35.6887 21.0835 36.6061 21.0835V21.0837ZM31.3527 16.3336C32.3533 16.3336 33.104 15.4994 33.104 14.5836C33.104 13.5836 32.3533 12.8336 31.3527 12.8336C30.3521 12.8336 29.6016 13.6678 29.6016 14.5836C29.6016 15.4994 30.3521 16.3333 31.3527 16.3333V16.3336ZM36.6061 16.3336C37.6067 16.3336 38.3571 15.4994 38.3571 14.5836C38.3571 13.5836 37.6067 12.8336 36.6061 12.8336C35.6055 12.8336 34.855 13.6678 34.855 14.5836C34.855 15.4994 35.6887 16.3333 36.6061 16.3333V16.3336ZM26.0993 16.3336C27.0999 16.3336 27.8504 15.4994 27.8504 14.5836C27.8504 13.5836 27.0999 12.8336 26.0993 12.8336C25.0987 12.8336 24.3483 13.6678 24.3483 14.5836C24.3483 15.4994 25.099 16.3333 26.0996 16.3333L26.0993 16.3336ZM30.6857 60.0003L0 0H61.3714L30.6857 60.0003Z" fill="#333037"/>
  </symbol>
  <symbol id="git" viewBox="0 0 60 61">
    <path d="M58.867 27.388L32.663 1.16599C31.137 -0.360994 28.7166 -0.360994 27.1906 1.16599L21.7709 6.64208L28.6639 13.5398C30.2425 13.0133 32.0842 13.3819 33.3996 14.6456C34.6625 15.9093 35.0308 17.8049 34.5046 19.3845L41.1345 26.019C42.7657 25.4398 44.6074 25.8084 45.8702 27.1247C47.6592 28.915 47.6592 31.811 45.8702 33.6013C44.0812 35.3915 41.1872 35.3915 39.3981 33.6013C38.03 32.2322 37.7143 30.284 38.3984 28.5991L32.1894 22.4385V38.7614C32.6103 38.972 33.0313 39.288 33.3996 39.6566C35.1886 41.4468 35.1886 44.3428 33.3996 46.1331C31.6106 47.9233 28.7166 47.9233 26.9275 46.1331C25.1385 44.3428 25.1385 41.4468 26.9275 39.6566C27.3485 39.2353 27.8747 38.8667 28.4535 38.6561V22.1225C27.9273 21.9119 27.4011 21.5433 26.9275 21.1221C25.5595 19.7531 25.2437 17.7522 25.9278 16.1199L19.14 9.27481L1.14445 27.2301C-0.381484 28.757 -0.381484 31.1792 1.14445 32.7061L27.2959 58.8755C28.8218 60.4025 31.2423 60.4025 32.7682 58.8755L58.8144 32.8114C60.3403 31.3371 60.3403 28.8623 58.867 27.388Z" fill="#F05133"/>
  </symbol>
  <symbol id="docker" viewBox="0 0 84 60">
    <path d="M82.8802 22.6609C82.6576 22.4853 80.5371 20.8817 76.0616 20.8817C74.8784 20.8817 73.7068 20.9871 72.5352 21.186C71.6682 15.2633 66.7711 12.3722 66.5485 12.2434L65.3535 11.5529L64.5685 12.6882C63.5844 14.2216 62.858 15.9071 62.4362 17.6746C61.6396 21.0573 62.1199 24.2293 63.8421 26.9449C61.7684 28.1037 58.4294 28.3846 57.7616 28.408H2.61558C1.17454 28.408 0.00296897 29.5785 0.00296897 31.0065C-0.0556098 35.829 0.752778 40.628 2.41641 45.1578C4.31437 50.1324 7.13786 53.7961 10.8166 56.0435C14.9406 58.56 21.6303 59.9997 29.2221 59.9997C32.6548 60.0114 36.0758 59.6954 39.4382 59.075C44.1245 58.2206 48.6351 56.5819 52.7707 54.2292C56.18 52.251 59.2613 49.7345 61.8739 46.7848C66.2439 41.8453 68.8447 36.344 70.7778 31.4513C71.0356 31.4513 71.2933 31.4513 71.5511 31.4513C76.3311 31.4513 79.2718 29.5434 80.9003 27.9398C81.9781 26.9215 82.8216 25.6691 83.3606 24.2879L83.7003 23.2812L82.8802 22.6609Z" fill="#2496ED"/>
    <path d="M7.72347 26.7926H15.1161C15.4676 26.7926 15.7605 26.5 15.7605 26.1488V19.5707C15.7605 19.2195 15.4793 18.9269 15.1161 18.9269H7.72347C7.372 18.9269 7.0791 19.2195 7.0791 19.5707V26.1488C7.0791 26.5 7.372 26.7926 7.72347 26.7926Z" fill="#2496ED"/>
    <path d="M17.9041 26.7926H25.2968C25.6482 26.7926 25.9411 26.5 25.9411 26.1488V19.5707C25.9411 19.2195 25.66 18.9269 25.2968 18.9269H17.9041C17.5409 18.9269 17.2598 19.2195 17.2598 19.5707V26.1488C17.2598 26.5 17.5527 26.7926 17.9041 26.7926Z" fill="#2496ED"/>
    <path d="M28.2502 26.7926H35.6428C35.9943 26.7926 36.2872 26.5 36.2872 26.1488V19.5707C36.2872 19.2195 36.006 18.9269 35.6428 18.9269H28.2502C27.8987 18.9269 27.6058 19.2195 27.6058 19.5707V26.1488C27.5941 26.5 27.887 26.7926 28.2502 26.7926Z" fill="#2496ED"/>
    <path d="M38.4539 26.7926H45.8466C46.198 26.7926 46.4909 26.5 46.4909 26.1488V19.5707C46.4909 19.2078 46.198 18.9269 45.8466 18.9269H38.4539C38.1025 18.9269 37.8096 19.2195 37.8096 19.5707V26.1488C37.8096 26.5 38.1025 26.7926 38.4539 26.7926Z" fill="#2496ED"/>
    <path d="M17.9041 17.3351H25.2968C25.6482 17.3351 25.9411 17.0425 25.9411 16.6913V10.1131C25.9411 9.76198 25.6482 9.46936 25.2968 9.46936H17.9041C17.5527 9.46936 17.2598 9.76198 17.2598 10.1131V16.6913C17.2598 17.0425 17.5527 17.3351 17.9041 17.3351Z" fill="#2496ED"/>
    <path d="M28.2502 17.3351H35.6428C35.9943 17.3351 36.2872 17.0425 36.2872 16.6913V10.1131C36.2872 9.76198 35.9943 9.46936 35.6428 9.46936H28.2502C27.8987 9.46936 27.6058 9.76198 27.6058 10.1131V16.6913C27.5941 17.0425 27.887 17.3351 28.2502 17.3351Z" fill="#2496ED"/>
    <path d="M38.4539 17.3351H45.8466C46.2098 17.3351 46.4909 17.0425 46.4909 16.6913V10.1131C46.4909 9.76198 46.198 9.46936 45.8466 9.46936H38.4539C38.1025 9.46936 37.8096 9.76198 37.8096 10.1131V16.6913C37.8096 17.0425 38.1025 17.3351 38.4539 17.3351Z" fill="#2496ED"/>
    <path d="M38.4539 7.86574H45.8466C46.198 7.86574 46.4909 7.57312 46.4909 7.22197V0.643773C46.4909 0.292624 46.198 0 45.8466 0H38.4539C38.1025 0 37.8096 0.292624 37.8096 0.643773V7.22197C37.8096 7.58482 38.1025 7.86574 38.4539 7.86574Z" fill="#2496ED"/>
    <path d="M48.7635 26.7926H56.1561C56.5076 26.7926 56.8005 26.5 56.8005 26.1488V19.5707C56.8005 19.2078 56.5076 18.9269 56.1561 18.9269H48.7635C48.412 18.9269 48.1191 19.2195 48.1191 19.5707V26.1488C48.1191 26.5 48.412 26.7926 48.7635 26.7926Z" fill="#2496ED"/>
  </symbol>
  <symbol id="ext-link" viewBox="0 0 16 16">
    <path d="M9.45455 0V1.45455H13.5L4.56818 10.3864L5.61364 11.4318L14.5455 2.5V6.54545H16V0.727273V0H15.2727H9.45455ZM0 2.90909V16H13.0909V6.54545L11.6364 8V14.5455H1.45455V4.36364H8L9.45455 2.90909H0Z"/>
  </symbol>
</svg>