<svg display="none" xmlns="http://www.w3.org/2000/svg">
  <symbol id="server" viewBox="0 0 21 26">
    <rect x="0.404423" y="0.489628" width="20.1389" height="6.72255" rx="1.7525" stroke="white" stroke-width="0.808846"/>
    <path d="M11.5879 3.31287H14.0392" stroke="white" stroke-width="0.808846" stroke-linecap="round"/>
    <path d="M16.0449 3.31287H18.4963" stroke="white" stroke-width="0.808846" stroke-linecap="round"/>
    <rect x="0.404423" y="9.63874" width="20.1389" height="6.72255" rx="1.7525" stroke="white" stroke-width="0.808846"/>
    <path d="M11.5879 12.4621H14.0392" stroke="white" stroke-width="0.808846" stroke-linecap="round"/>
    <path d="M16.0449 12.4621H18.4963" stroke="white" stroke-width="0.808846" stroke-linecap="round"/>
    <rect x="0.404423" y="18.7878" width="20.1389" height="6.72255" rx="1.7525" stroke="white" stroke-width="0.808846"/>
    <path d="M11.5879 21.6111H14.0392" stroke="white" stroke-width="0.808846" stroke-linecap="round"/>
    <path d="M16.0449 21.6111H18.4963" stroke="white" stroke-width="0.808846" stroke-linecap="round"/>
  </symbol>
  <symbol id="arrow-left" viewBox="0 0 9 17">
    <path d="M8.06067 1.33584L1 8.78877L8.06067 16.2417"  stroke-width="1.17678" stroke-linecap="round"/>
  </symbol>
  <symbol id="gear" viewBox="0 0 59 61">
    <path d="M57.272 37.5895L52.158 34.6633C52.6742 31.9036 52.6742 29.0726 52.158 26.3129L57.272 23.3867C57.8602 23.0537 58.1243 22.3637 57.9322 21.7214C56.5997 17.4867 54.3308 13.6565 51.3657 10.4686C50.9096 9.98092 50.1653 9.86197 49.5891 10.195L44.4751 13.1212C42.3263 11.2894 39.8534 9.87387 37.1764 8.94605V3.10555C37.1764 2.43942 36.7082 1.85656 36.0479 1.71382C31.6423 0.738419 27.1286 0.785999 22.939 1.71382C22.2788 1.85656 21.8106 2.43942 21.8106 3.10555V8.95794C19.1456 9.89766 16.6726 11.3132 14.5118 13.1331L9.4099 10.2069C8.82168 9.87387 8.08941 9.98092 7.63324 10.4805C4.66812 13.6565 2.39926 17.4867 1.06676 21.7333C0.862683 22.3756 1.13879 23.0656 1.72701 23.3986L6.84094 26.3248C6.32474 29.0845 6.32474 31.9155 6.84094 34.6752L1.72701 37.6014C1.13879 37.9344 0.874687 38.6244 1.06676 39.2667C2.39926 43.5014 4.66812 47.3316 7.63324 50.5195C8.08941 51.0072 8.83369 51.1261 9.4099 50.7931L14.5238 47.8669C16.6726 49.6987 19.1456 51.1142 21.8226 52.0421V57.8944C21.8226 58.5606 22.2908 59.1434 22.951 59.2862C27.3567 60.2616 31.8704 60.214 36.06 59.2862C36.7202 59.1434 37.1884 58.5606 37.1884 57.8944V52.0421C39.8534 51.1023 42.3263 49.6868 44.4871 47.8669L49.6011 50.7931C50.1893 51.1261 50.9216 51.0191 51.3777 50.5195C54.3428 47.3435 56.6117 43.5133 57.9442 39.2667C58.1243 38.6125 57.8602 37.9226 57.272 37.5895V37.5895ZM29.4935 40.0042C24.1995 40.0042 19.8899 35.7338 19.8899 30.4881C19.8899 25.2424 24.1995 20.972 29.4935 20.972C34.7875 20.972 39.0971 25.2424 39.0971 30.4881C39.0971 35.7338 34.7875 40.0042 29.4935 40.0042Z" stroke="#A41FE2" stroke-width="1.5"/>
  </symbol>
  <symbol id="people" viewBox="0 0 66 62">
    <path d="M59.1656 29.9141C59.4475 34.6681 58.4364 39.4096 56.2399 43.635C54.0434 47.8605 51.7603 50.3952 47.7073 52.8957" stroke="#A41FE2" stroke-width="1.5" stroke-linecap="round"/>
    <path d="M6.52826 29.9141C6.2464 34.6681 7.25743 39.4096 9.45396 43.635C11.6505 47.8605 13.9335 50.3952 17.9865 52.8957" stroke="#A41FE2" stroke-width="1.5" stroke-linecap="round"/>
    <path d="M24.3554 7.05554C29.7303 5.22681 35.552 5.182 40.9545 6.92779" stroke="#A41FE2" stroke-width="1.5" stroke-linecap="round"/>
    <path d="M14.039 15.5986C18.0527 15.5986 21.3065 12.3306 21.3065 8.2993C21.3065 4.26801 18.0527 1 14.039 1C10.0253 1 6.77148 4.26801 6.77148 8.2993C6.77148 12.3306 10.0253 15.5986 14.039 15.5986Z" stroke="#A41FE2" stroke-width="1.5" stroke-miterlimit="10"/>
    <path d="M10.4261 15.7148H17.6528C20.1527 15.7148 22.5503 16.7123 24.318 18.4878C26.0858 20.2632 27.0789 22.6713 27.0789 25.1822V27.0756H1V25.1822C1 22.6713 1.9931 20.2632 3.76084 18.4878C5.52858 16.7123 7.92614 15.7148 10.4261 15.7148V15.7148Z" stroke="#A41FE2" stroke-width="1.5" stroke-miterlimit="10"/>
    <path d="M10.1118 15.7937L14.3536 20.4485L18.6739 15.7937" stroke="#A41FE2" stroke-width="1.5" stroke-miterlimit="10"/>
    <path d="M51.3906 15.5986C55.4043 15.5986 58.6581 12.3306 58.6581 8.2993C58.6581 4.26801 55.4043 1 51.3906 1C47.3768 1 44.123 4.26801 44.123 8.2993C44.123 12.3306 47.3768 15.5986 51.3906 15.5986Z" stroke="#A41FE2" stroke-width="1.5" stroke-miterlimit="10"/>
    <path d="M47.7777 15.7148H55.0043C57.5043 15.7148 59.9019 16.7123 61.6696 18.4878C63.4373 20.2632 64.4304 22.6713 64.4304 25.1822V27.0756H38.3516V25.1822C38.3516 22.6713 39.3447 20.2632 41.1124 18.4878C42.8801 16.7123 45.2777 15.7148 47.7777 15.7148V15.7148Z" stroke="#A41FE2" stroke-width="1.5" stroke-miterlimit="10"/>
    <path d="M47.4634 15.7937L51.7051 20.4485L56.0254 15.7937" stroke="#A41FE2" stroke-width="1.5" stroke-miterlimit="10"/>
    <path d="M32.9008 49.5234C36.9146 49.5234 40.1683 46.2554 40.1683 42.2241C40.1683 38.1928 36.9146 34.9248 32.9008 34.9248C28.8871 34.9248 25.6333 38.1928 25.6333 42.2241C25.6333 46.2554 28.8871 49.5234 32.9008 49.5234Z" stroke="#A41FE2" stroke-width="1.5" stroke-miterlimit="10"/>
    <path d="M29.2879 49.6392H36.5146C39.0145 49.6392 41.4121 50.6366 43.1799 52.4121C44.9476 54.1875 45.9407 56.5956 45.9407 59.1065V60.9999H19.8618V59.1065C19.8618 56.5956 20.8549 54.1875 22.6227 52.4121C24.3904 50.6366 26.788 49.6392 29.2879 49.6392V49.6392Z" stroke="#A41FE2" stroke-width="1.5" stroke-miterlimit="10"/>
    <path d="M28.9736 49.7185L33.2154 54.3733L37.5357 49.7185" stroke="#A41FE2" stroke-width="1.5" stroke-miterlimit="10"/>
  </symbol>
  <symbol id="shield" viewBox="0 0 48 60">
    <path d="M26.811 3.69296C31.3427 6.92666 37.0548 9.58375 43.1855 11.2355C45.1807 11.7731 46.6174 13.4917 46.6422 15.4896C46.6755 18.1749 46.7291 22.5483 46.8156 29.6358C46.9154 37.823 43.2142 44.2237 38.7022 48.9874C34.1841 53.7575 28.8871 56.8467 25.9055 58.379C24.874 58.9091 23.6695 58.9339 22.6339 58.4369C19.6266 56.9936 14.2413 53.9981 9.5919 49.3016C4.948 44.6107 1.0754 38.2637 0.975792 30.0886L0.283539 30.0971L0.975792 30.0886C0.889972 23.0536 0.83656 18.6925 0.803194 16.0021C0.778088 13.9778 2.20037 12.1932 4.20863 11.6043C10.253 9.8319 15.8349 7.07289 20.2503 3.76763C22.1571 2.34023 24.872 2.30938 26.811 3.69296Z" stroke="#A41FE2" stroke-width="1.5"/>
    <path fill-rule="evenodd" clip-rule="evenodd" d="M32.1919 20.3234C33.8289 21.0977 34.5139 23.0228 33.7218 24.6232L26.4746 39.2653C25.9805 40.2635 24.9957 40.9428 23.868 41.0632C22.7404 41.1836 21.6288 40.7282 20.9259 39.8578L13.6787 30.8837C12.5518 29.4883 12.7954 27.464 14.2228 26.3623C15.6502 25.2607 17.7209 25.4988 18.8478 26.8943L22.8367 31.8336L27.7935 21.819C28.5856 20.2186 30.5549 19.549 32.1919 20.3234Z" stroke="#A41FE2" stroke-width="1.5" stroke-linecap="round"/>
  </symbol>
  <symbol id="comp" viewBox="0 0 89 60">
    <rect x="0.75" y="0.75" width="67.5007" height="44.5005" rx="3.25" stroke="#A41FE2" stroke-width="1.5"/>
    <path d="M0 37.9512H69.0007" stroke="#A41FE2" stroke-width="1.5"/>
    <path d="M25.5612 50.5006L27.2501 45.7505H41.7472L43.4361 50.5006H25.5612Z" stroke="#A41FE2" stroke-width="1.5"/>
    <rect x="18.001" y="51.0002" width="31.8504" height="4.25006" rx="1.25" stroke="#A41FE2" stroke-width="1.5"/>
    <path d="M39.5024 25.7498C39.5024 25.0594 40.0621 24.4998 40.7524 24.4998H81.7529C82.4433 24.4998 83.0029 25.0594 83.0029 25.7498V49.25C83.0029 49.9404 82.4433 50.5 81.7529 50.5H40.7524C40.0621 50.5 39.5024 49.9404 39.5024 49.25V25.7498Z" fill="white" stroke="#A41FE2" stroke-width="1.5"/>
    <path d="M43.2524 28.4998C43.2524 28.3617 43.3644 28.2498 43.5024 28.2498H79.0028C79.1409 28.2498 79.2528 28.3617 79.2528 28.4998V45.25C79.2528 45.388 79.1409 45.5 79.0028 45.5H43.5024C43.3644 45.5 43.2524 45.388 43.2524 45.25V28.4998Z" fill="white" stroke="#A41FE2" stroke-width="1.5"/>
    <path d="M39.145 49.6389C39.1873 49.5542 39.2739 49.5007 39.3686 49.5007H83.133C83.2277 49.5007 83.3142 49.5542 83.3566 49.6389L87.3566 57.639C87.4398 57.8053 87.3189 58.0008 87.133 58.0008H35.3685C35.1827 58.0008 35.0618 57.8053 35.1449 57.639L39.145 49.6389Z" fill="white" stroke="#A41FE2" stroke-width="1.5"/>
    <rect x="34" y="57.0002" width="54" height="3" rx="1.5" fill="#A41FE2"/>
  </symbol>
  <symbol id="warning" viewBox="0 0 66 60">
    <path d="M28.6955 3.29557C30.6118 -0.0985261 35.3882 -0.0985239 37.3045 3.29558L64.5714 51.5883C66.5066 55.0157 64.0711 59.25 60.2669 59.25H5.7331C1.92893 59.25 -0.506625 55.0157 1.42858 51.5883L28.6955 3.29557Z" stroke="#A41FE2" stroke-width="1.5"/>
    <path d="M30.4998 49.4873L30.4998 49.4874L30.5085 49.496C31.3567 50.3418 32.4414 50.75 33.698 50.75C34.9378 50.75 36.01 50.3388 36.8552 49.496L36.8552 49.4961L36.8638 49.4873C37.6944 48.6314 38.1136 47.5804 38.1136 46.3773C38.1136 45.158 37.6982 44.1077 36.8503 43.2883C36.0195 42.464 34.9446 42.0736 33.698 42.0736C32.4489 42.0736 31.3672 42.4652 30.5176 43.2842C29.6668 44.1042 29.25 45.156 29.25 46.3773C29.25 47.5804 29.6692 48.6314 30.4998 49.4873ZM34.1126 22.25H33.2756C31.0893 22.25 29.3666 24.1126 29.537 26.2923L30.2934 35.9675C30.4317 37.7375 31.9084 39.1033 33.6839 39.1033C35.4566 39.1033 36.932 37.7416 37.0738 35.9746L37.8506 26.3001C38.0258 24.1177 36.302 22.25 34.1126 22.25Z" stroke="#A41FE2" stroke-width="1.5"/>
  </symbol>
  <symbol id="heart" viewBox="0 0 11 11">
    <path d="M10.9994 3.6316C10.9994 3.62292 10.9994 3.61442 10.9994 3.60592C10.9994 1.98459 9.81097 0.5 8.02405 0.5C6.6043 0.5 5.78087 1.50691 5.50004 2.44943C5.21921 1.50691 4.39577 0.5 2.97603 0.5C1.18911 0.5 0.000704137 1.98459 0.000704137 3.60592C0.000704137 3.61442 0.000704137 3.62292 0.000704137 3.6316C-0.00882804 3.9843 0.000704311 7.57459 5.49766 10.4991V10.5H5.49857V10.4991C10.9994 7.57369 11.0082 3.9843 10.9994 3.6316Z" fill="#A41FE2"/>
  </symbol>
  <symbol id="github" viewBox="0 0 29 29">
    <path d="M14.5 0C6.525 0 0 6.68783 0 14.8618C0 21.4258 4.10833 26.999 9.90833 28.9806C10.6333 29.1045 10.875 28.6091 10.875 28.2375V25.5128C6.8875 26.3798 6.04167 23.779 6.04167 23.779C5.4375 22.0451 4.47083 21.5497 4.47083 21.5497C3.14167 20.6827 4.59167 20.6827 4.59167 20.6827C6.04167 20.8066 6.76667 22.1689 6.76667 22.1689C8.09583 24.3982 10.15 23.779 10.9958 23.4074C11.1167 22.4166 11.4792 21.7974 11.9625 21.4258C8.57917 21.0543 5.19583 19.8158 5.19583 14.1188C5.19583 12.5087 5.8 11.1464 6.64583 10.1556C6.64583 9.78405 6.04167 8.17402 6.8875 6.19244C6.8875 6.19244 8.09583 5.82089 10.875 7.67862C12.0833 7.30708 13.2917 7.18323 14.5 7.18323C15.7083 7.18323 16.9167 7.30708 18.125 7.67862C20.9042 5.82089 22.1125 6.19244 22.1125 6.19244C22.9583 8.29786 22.3542 9.78405 22.2333 10.1556C23.2 11.1464 23.6833 12.5087 23.6833 14.1188C23.6833 19.8158 20.3 21.0543 17.0375 21.4258C17.5208 21.9212 18.0042 22.7882 18.0042 24.1505V28.2375C18.0042 28.6091 18.2458 29.1045 18.9708 28.9806C24.8917 26.999 29 21.4258 29 14.8618C29 6.68783 22.475 0 14.5 0Z" fill="#333037"/>
  </symbol>
  <symbol id="star" viewBox="0 0 16 15">
    <path d="M8 0L10.3088 4.82218L15.6085 5.52786L11.7358 9.21382L12.7023 14.4721L8 11.928L3.29772 14.4721L4.26425 9.21382L0.391548 5.52786L5.69118 4.82218L8 0Z" fill="#A41FE2"/>
  </symbol>
</svg>