<svg width="509" height="602" viewBox="0 0 509 602" fill="none" xmlns="http://www.w3.org/2000/svg">
<path d="M191.854 496.98L199.688 483.412L184.021 483.412L191.854 496.98ZM193.211 412.256C193.211 411.507 192.604 410.9 191.854 410.9C191.105 410.9 190.498 411.507 190.498 412.256L193.211 412.256ZM193.211 484.769L193.211 412.256L190.498 412.256L190.498 484.769L193.211 484.769Z" fill="#A41FE2"/>
<path d="M169.241 483.412V501.503H213.563V483.412" stroke="#A41FE2" stroke-width="2.71357" stroke-linecap="round"/>
<rect x="56.1758" y="518.688" width="259.598" height="54.1809" rx="4.52261" fill="#333037"/>
<path d="M150.539 550.403C150.317 550.567 150.042 550.692 149.714 550.779C149.395 550.856 149.058 550.895 148.701 550.895C147.774 550.895 147.056 550.658 146.544 550.186C146.042 549.713 145.792 549.018 145.792 548.102V544.903H144.59V543.166H145.792V541.271H148.049V543.166H149.989V544.903H148.049V548.073C148.049 548.401 148.131 548.656 148.295 548.84C148.469 549.013 148.71 549.1 149.019 549.1C149.376 549.1 149.68 549.004 149.931 548.811L150.539 550.403ZM154.686 544.02C154.956 543.644 155.318 543.359 155.771 543.166C156.234 542.973 156.765 542.877 157.363 542.877V544.961C157.112 544.942 156.944 544.932 156.857 544.932C156.21 544.932 155.704 545.115 155.337 545.482C154.971 545.839 154.787 546.379 154.787 547.103V550.779H152.529V542.993H154.686V544.02ZM167.289 540.04V550.779H165.133V549.882C164.574 550.557 163.763 550.895 162.702 550.895C161.968 550.895 161.303 550.731 160.705 550.403C160.116 550.075 159.653 549.607 159.315 548.999C158.978 548.391 158.809 547.687 158.809 546.886C158.809 546.085 158.978 545.381 159.315 544.773C159.653 544.165 160.116 543.697 160.705 543.369C161.303 543.041 161.968 542.877 162.702 542.877C163.696 542.877 164.472 543.191 165.032 543.818V540.04H167.289ZM163.093 549.042C163.662 549.042 164.135 548.849 164.511 548.463C164.887 548.068 165.075 547.542 165.075 546.886C165.075 546.23 164.887 545.709 164.511 545.323C164.135 544.927 163.662 544.729 163.093 544.729C162.514 544.729 162.036 544.927 161.66 545.323C161.283 545.709 161.095 546.23 161.095 546.886C161.095 547.542 161.283 548.068 161.66 548.463C162.036 548.849 162.514 549.042 163.093 549.042ZM170.103 540.04H172.36V550.779H170.103V540.04ZM174.89 545.8H178.986V547.609H174.89V545.8ZM185.39 550.895C184.56 550.895 183.812 550.726 183.146 550.388C182.49 550.041 181.974 549.563 181.598 548.955C181.231 548.348 181.048 547.658 181.048 546.886C181.048 546.114 181.231 545.424 181.598 544.816C181.974 544.208 182.49 543.736 183.146 543.398C183.812 543.051 184.56 542.877 185.39 542.877C186.21 542.877 186.924 543.051 187.532 543.398C188.149 543.736 188.598 544.223 188.878 544.86L187.126 545.8C186.721 545.086 186.137 544.729 185.375 544.729C184.787 544.729 184.299 544.922 183.913 545.308C183.528 545.694 183.335 546.22 183.335 546.886C183.335 547.552 183.528 548.077 183.913 548.463C184.299 548.849 184.787 549.042 185.375 549.042C186.147 549.042 186.731 548.685 187.126 547.971L188.878 548.926C188.598 549.544 188.149 550.026 187.532 550.374C186.924 550.721 186.21 550.895 185.39 550.895ZM190.845 540.04H193.102V550.779H190.845V540.04ZM195.921 542.993H198.179V550.779H195.921V542.993ZM197.05 541.907C196.635 541.907 196.297 541.787 196.037 541.546C195.776 541.304 195.646 541.005 195.646 540.648C195.646 540.291 195.776 539.992 196.037 539.751C196.297 539.51 196.635 539.389 197.05 539.389C197.465 539.389 197.803 539.505 198.063 539.736C198.324 539.968 198.454 540.257 198.454 540.605C198.454 540.981 198.324 541.295 198.063 541.546C197.803 541.787 197.465 541.907 197.05 541.907ZM208.625 546.915C208.625 546.944 208.61 547.146 208.581 547.523H202.691C202.797 548.005 203.048 548.386 203.444 548.666C203.839 548.946 204.331 549.086 204.92 549.086C205.325 549.086 205.682 549.028 205.991 548.912C206.309 548.787 206.603 548.594 206.874 548.333L208.075 549.636C207.341 550.475 206.271 550.895 204.862 550.895C203.984 550.895 203.207 550.726 202.532 550.388C201.856 550.041 201.335 549.563 200.969 548.955C200.602 548.348 200.419 547.658 200.419 546.886C200.419 546.124 200.597 545.439 200.954 544.831C201.321 544.213 201.818 543.736 202.445 543.398C203.082 543.051 203.791 542.877 204.572 542.877C205.335 542.877 206.025 543.041 206.642 543.369C207.259 543.697 207.742 544.17 208.089 544.787C208.446 545.395 208.625 546.104 208.625 546.915ZM204.587 544.585C204.076 544.585 203.646 544.729 203.299 545.019C202.952 545.308 202.739 545.704 202.662 546.206H206.497C206.42 545.714 206.208 545.323 205.86 545.033C205.513 544.734 205.089 544.585 204.587 544.585ZM215.584 542.877C216.549 542.877 217.325 543.166 217.914 543.745C218.512 544.324 218.811 545.183 218.811 546.321V550.779H216.554V546.669C216.554 546.051 216.418 545.593 216.148 545.294C215.878 544.985 215.487 544.831 214.976 544.831C214.407 544.831 213.953 545.009 213.616 545.366C213.278 545.714 213.109 546.235 213.109 546.929V550.779H210.851V542.993H213.008V543.905C213.307 543.576 213.678 543.326 214.122 543.152C214.566 542.969 215.053 542.877 215.584 542.877ZM226.603 550.403C226.381 550.567 226.106 550.692 225.778 550.779C225.46 550.856 225.122 550.895 224.765 550.895C223.839 550.895 223.12 550.658 222.609 550.186C222.107 549.713 221.856 549.018 221.856 548.102V544.903H220.655V543.166H221.856V541.271H224.114V543.166H226.053V544.903H224.114V548.073C224.114 548.401 224.196 548.656 224.36 548.84C224.534 549.013 224.775 549.1 225.084 549.1C225.441 549.1 225.745 549.004 225.995 548.811L226.603 550.403Z" fill="white"/>
<rect x="56.1758" y="356.176" width="259.598" height="56.0804" rx="4.52261" fill="#333037"/>
<path d="M128.773 380.996H125.532V379.085H134.36V380.996H131.118V389.216H128.773V380.996ZM140.676 389.39C139.229 389.39 138.1 388.989 137.29 388.189C136.489 387.388 136.088 386.244 136.088 384.759V379.085H138.433V384.672C138.433 386.486 139.185 387.393 140.691 387.393C141.424 387.393 141.983 387.175 142.369 386.741C142.755 386.297 142.948 385.608 142.948 384.672V379.085H145.264V384.759C145.264 386.244 144.859 387.388 144.048 388.189C143.247 388.989 142.123 389.39 140.676 389.39ZM150.649 380.967V383.644H155.338V385.526H150.649V389.216H148.304V379.085H155.96V380.967H150.649ZM165.09 382.457C165.361 382.081 165.722 381.797 166.176 381.604C166.639 381.411 167.17 381.314 167.768 381.314V383.398C167.517 383.379 167.348 383.369 167.261 383.369C166.615 383.369 166.108 383.553 165.742 383.919C165.375 384.276 165.192 384.816 165.192 385.54V389.216H162.934V381.43H165.09V382.457ZM177.39 385.352C177.39 385.381 177.376 385.584 177.347 385.96H171.456C171.563 386.442 171.813 386.823 172.209 387.103C172.605 387.383 173.097 387.523 173.685 387.523C174.09 387.523 174.447 387.465 174.756 387.349C175.074 387.224 175.369 387.031 175.639 386.77L176.84 388.073C176.107 388.912 175.036 389.332 173.627 389.332C172.749 389.332 171.973 389.163 171.297 388.825C170.622 388.478 170.101 388 169.734 387.393C169.368 386.785 169.184 386.095 169.184 385.323C169.184 384.561 169.363 383.876 169.72 383.268C170.086 382.65 170.583 382.173 171.21 381.835C171.847 381.488 172.556 381.314 173.338 381.314C174.1 381.314 174.79 381.478 175.407 381.806C176.025 382.134 176.507 382.607 176.855 383.225C177.212 383.832 177.39 384.542 177.39 385.352ZM173.352 383.022C172.841 383.022 172.412 383.167 172.064 383.456C171.717 383.746 171.505 384.141 171.427 384.643H175.263C175.185 384.151 174.973 383.76 174.626 383.471C174.279 383.171 173.854 383.022 173.352 383.022ZM184.219 381.314C184.943 381.314 185.599 381.483 186.187 381.821C186.785 382.149 187.253 382.617 187.591 383.225C187.929 383.823 188.098 384.522 188.098 385.323C188.098 386.124 187.929 386.828 187.591 387.436C187.253 388.034 186.785 388.502 186.187 388.84C185.599 389.168 184.943 389.332 184.219 389.332C183.225 389.332 182.444 389.018 181.874 388.391V392.024H179.617V381.43H181.773V382.327C182.333 381.652 183.148 381.314 184.219 381.314ZM183.828 387.479C184.407 387.479 184.88 387.286 185.247 386.901C185.623 386.505 185.811 385.979 185.811 385.323C185.811 384.667 185.623 384.146 185.247 383.76C184.88 383.364 184.407 383.167 183.828 383.167C183.249 383.167 182.772 383.364 182.395 383.76C182.029 384.146 181.846 384.667 181.846 385.323C181.846 385.979 182.029 386.505 182.395 386.901C182.772 387.286 183.249 387.479 183.828 387.479ZM194.037 389.332C193.217 389.332 192.479 389.163 191.823 388.825C191.177 388.478 190.67 388 190.304 387.393C189.937 386.785 189.754 386.095 189.754 385.323C189.754 384.551 189.937 383.861 190.304 383.253C190.67 382.646 191.177 382.173 191.823 381.835C192.479 381.488 193.217 381.314 194.037 381.314C194.858 381.314 195.591 381.488 196.237 381.835C196.884 382.173 197.39 382.646 197.757 383.253C198.123 383.861 198.307 384.551 198.307 385.323C198.307 386.095 198.123 386.785 197.757 387.393C197.39 388 196.884 388.478 196.237 388.825C195.591 389.163 194.858 389.332 194.037 389.332ZM194.037 387.479C194.616 387.479 195.089 387.286 195.456 386.901C195.832 386.505 196.02 385.979 196.02 385.323C196.02 384.667 195.832 384.146 195.456 383.76C195.089 383.364 194.616 383.167 194.037 383.167C193.459 383.167 192.981 383.364 192.605 383.76C192.228 384.146 192.04 384.667 192.04 385.323C192.04 385.979 192.228 386.505 192.605 386.901C192.981 387.286 193.459 387.479 194.037 387.479ZM203.159 389.332C202.513 389.332 201.881 389.255 201.263 389.1C200.646 388.936 200.154 388.734 199.787 388.492L200.54 386.872C200.887 387.093 201.307 387.277 201.799 387.422C202.291 387.557 202.773 387.624 203.246 387.624C204.201 387.624 204.679 387.388 204.679 386.915C204.679 386.693 204.548 386.534 204.288 386.437C204.027 386.341 203.627 386.259 203.087 386.191C202.45 386.095 201.924 385.984 201.509 385.858C201.094 385.733 200.732 385.511 200.424 385.193C200.125 384.874 199.975 384.421 199.975 383.832C199.975 383.34 200.115 382.906 200.395 382.53C200.684 382.144 201.099 381.845 201.639 381.633C202.189 381.42 202.836 381.314 203.579 381.314C204.129 381.314 204.674 381.377 205.214 381.502C205.764 381.618 206.218 381.782 206.574 381.994L205.822 383.601C205.137 383.215 204.389 383.022 203.579 383.022C203.096 383.022 202.734 383.089 202.493 383.225C202.252 383.36 202.131 383.533 202.131 383.746C202.131 383.987 202.262 384.156 202.522 384.252C202.783 384.349 203.198 384.44 203.767 384.527C204.404 384.633 204.925 384.749 205.33 384.874C205.735 384.99 206.087 385.207 206.386 385.526C206.685 385.844 206.835 386.288 206.835 386.857C206.835 387.339 206.69 387.769 206.401 388.145C206.111 388.521 205.687 388.816 205.127 389.028C204.577 389.231 203.921 389.332 203.159 389.332ZM208.952 381.43H211.209V389.216H208.952V381.43ZM210.08 380.345C209.666 380.345 209.328 380.224 209.067 379.983C208.807 379.742 208.677 379.442 208.677 379.085C208.677 378.728 208.807 378.429 209.067 378.188C209.328 377.947 209.666 377.826 210.08 377.826C210.495 377.826 210.833 377.942 211.093 378.174C211.354 378.405 211.484 378.695 211.484 379.042C211.484 379.418 211.354 379.732 211.093 379.983C210.833 380.224 210.495 380.345 210.08 380.345ZM219.05 388.84C218.828 389.004 218.553 389.129 218.225 389.216C217.907 389.293 217.569 389.332 217.212 389.332C216.286 389.332 215.567 389.095 215.056 388.623C214.554 388.15 214.303 387.455 214.303 386.539V383.34H213.102V381.604H214.303V379.708H216.561V381.604H218.5V383.34H216.561V386.51C216.561 386.838 216.643 387.093 216.807 387.277C216.981 387.45 217.222 387.537 217.531 387.537C217.888 387.537 218.191 387.441 218.442 387.248L219.05 388.84ZM224.506 389.332C223.686 389.332 222.948 389.163 222.291 388.825C221.645 388.478 221.139 388 220.772 387.393C220.405 386.785 220.222 386.095 220.222 385.323C220.222 384.551 220.405 383.861 220.772 383.253C221.139 382.646 221.645 382.173 222.291 381.835C222.948 381.488 223.686 381.314 224.506 381.314C225.326 381.314 226.059 381.488 226.706 381.835C227.352 382.173 227.859 382.646 228.225 383.253C228.592 383.861 228.775 384.551 228.775 385.323C228.775 386.095 228.592 386.785 228.225 387.393C227.859 388 227.352 388.478 226.706 388.825C226.059 389.163 225.326 389.332 224.506 389.332ZM224.506 387.479C225.085 387.479 225.557 387.286 225.924 386.901C226.3 386.505 226.488 385.979 226.488 385.323C226.488 384.667 226.3 384.146 225.924 383.76C225.557 383.364 225.085 383.167 224.506 383.167C223.927 383.167 223.449 383.364 223.073 383.76C222.697 384.146 222.509 384.667 222.509 385.323C222.509 385.979 222.697 386.505 223.073 386.901C223.449 387.286 223.927 387.479 224.506 387.479ZM233.164 382.457C233.434 382.081 233.796 381.797 234.25 381.604C234.713 381.411 235.243 381.314 235.842 381.314V383.398C235.591 383.379 235.422 383.369 235.335 383.369C234.689 383.369 234.182 383.553 233.815 383.919C233.449 384.276 233.265 384.816 233.265 385.54V389.216H231.008V381.43H233.164V382.457ZM245.904 381.43L242.388 389.694C242.031 390.591 241.587 391.223 241.056 391.59C240.535 391.956 239.903 392.139 239.16 392.139C238.755 392.139 238.355 392.077 237.959 391.951C237.563 391.826 237.24 391.652 236.989 391.43L237.814 389.824C237.988 389.978 238.186 390.099 238.408 390.186C238.639 390.273 238.866 390.316 239.088 390.316C239.397 390.316 239.647 390.239 239.84 390.084C240.033 389.94 240.207 389.694 240.361 389.346L240.39 389.274L237.018 381.43H239.348L241.534 386.712L243.734 381.43H245.904Z" fill="white"/>
<mask id="path-7-inside-1_842_3008" fill="white">
<path d="M297.318 377.11C296.992 376.776 296.469 376.647 295.954 376.773C294.384 377.157 292.913 377.174 291.646 376.82C290.434 376.483 289.354 375.798 288.436 374.785C288.133 374.451 287.742 374.266 287.336 374.266C286.929 374.266 286.538 374.451 286.236 374.785C285.284 375.834 284.158 376.531 282.891 376.856C281.659 377.172 280.234 377.144 278.717 376.773C278.201 376.647 277.679 376.776 277.353 377.11C277.105 377.365 276.976 377.722 276.989 378.114C277.11 381.596 277.823 384.628 279.108 387.125C280.707 390.234 283.195 392.55 286.504 394.009C286.735 394.11 287.03 394.166 287.336 394.166C287.642 394.166 287.937 394.11 288.168 394.009C291.518 392.532 294.027 390.176 295.625 387.007C296.872 384.533 297.564 381.541 297.683 378.114C297.697 377.722 297.567 377.365 297.318 377.11Z"/>
</mask>
<path d="M297.318 377.11C296.992 376.776 296.469 376.647 295.954 376.773C294.384 377.157 292.913 377.174 291.646 376.82C290.434 376.483 289.354 375.798 288.436 374.785C288.133 374.451 287.742 374.266 287.336 374.266C286.929 374.266 286.538 374.451 286.236 374.785C285.284 375.834 284.158 376.531 282.891 376.856C281.659 377.172 280.234 377.144 278.717 376.773C278.201 376.647 277.679 376.776 277.353 377.11C277.105 377.365 276.976 377.722 276.989 378.114C277.11 381.596 277.823 384.628 279.108 387.125C280.707 390.234 283.195 392.55 286.504 394.009C286.735 394.11 287.03 394.166 287.336 394.166C287.642 394.166 287.937 394.11 288.168 394.009C291.518 392.532 294.027 390.176 295.625 387.007C296.872 384.533 297.564 381.541 297.683 378.114C297.697 377.722 297.567 377.365 297.318 377.11Z" stroke="#A41FE2" stroke-width="2.71357" mask="url(#path-7-inside-1_842_3008)"/>
<path d="M287.336 379.693L287.336 389.643" stroke="white" stroke-width="1.35678" stroke-linecap="round" stroke-linejoin="round"/>
<rect x="56.1758" y="255.946" width="259.598" height="56.0804" rx="4.52261" fill="#333037"/>
<path d="M149.04 287.66C148.819 287.824 148.544 287.949 148.216 288.036C147.897 288.113 147.559 288.152 147.202 288.152C146.276 288.152 145.557 287.915 145.046 287.443C144.544 286.97 144.294 286.275 144.294 285.359V282.16H143.092V280.424H144.294V278.528H146.551V280.424H148.491V282.16H146.551V285.33C146.551 285.658 146.633 285.913 146.797 286.097C146.971 286.27 147.212 286.357 147.521 286.357C147.878 286.357 148.182 286.261 148.433 286.068L149.04 287.66ZM153.188 281.277C153.458 280.901 153.82 280.616 154.273 280.424C154.736 280.231 155.267 280.134 155.865 280.134V282.218C155.614 282.199 155.446 282.189 155.359 282.189C154.712 282.189 154.206 282.372 153.839 282.739C153.472 283.096 153.289 283.636 153.289 284.36V288.036H151.031V280.25H153.188V281.277ZM165.791 277.297V288.036H163.635V287.139C163.075 287.814 162.265 288.152 161.204 288.152C160.47 288.152 159.805 287.988 159.207 287.66C158.618 287.332 158.155 286.864 157.817 286.256C157.479 285.648 157.311 284.944 157.311 284.143C157.311 283.342 157.479 282.638 157.817 282.03C158.155 281.422 158.618 280.954 159.207 280.626C159.805 280.298 160.47 280.134 161.204 280.134C162.197 280.134 162.974 280.448 163.534 281.075V277.297H165.791ZM161.594 286.299C162.164 286.299 162.636 286.106 163.013 285.72C163.389 285.325 163.577 284.799 163.577 284.143C163.577 283.487 163.389 282.966 163.013 282.58C162.636 282.184 162.164 281.987 161.594 281.987C161.016 281.987 160.538 282.184 160.162 282.58C159.785 282.966 159.597 283.487 159.597 284.143C159.597 284.799 159.785 285.325 160.162 285.72C160.538 286.106 161.016 286.299 161.594 286.299ZM168.605 277.297H170.862V288.036H168.605V277.297ZM173.392 283.057H177.487V284.867H173.392V283.057ZM182.607 288.152C181.961 288.152 181.329 288.075 180.711 287.92C180.094 287.756 179.602 287.554 179.235 287.312L179.987 285.691C180.335 285.913 180.755 286.097 181.247 286.241C181.739 286.376 182.221 286.444 182.694 286.444C183.649 286.444 184.127 286.208 184.127 285.735C184.127 285.513 183.996 285.354 183.736 285.257C183.475 285.161 183.075 285.079 182.535 285.011C181.898 284.915 181.372 284.804 180.957 284.678C180.542 284.553 180.18 284.331 179.872 284.013C179.573 283.694 179.423 283.241 179.423 282.652C179.423 282.16 179.563 281.726 179.843 281.35C180.132 280.964 180.547 280.665 181.087 280.452C181.637 280.24 182.284 280.134 183.027 280.134C183.577 280.134 184.122 280.197 184.662 280.322C185.212 280.438 185.665 280.602 186.022 280.814L185.27 282.421C184.585 282.035 183.837 281.842 183.027 281.842C182.544 281.842 182.182 281.909 181.941 282.044C181.7 282.179 181.579 282.353 181.579 282.565C181.579 282.807 181.71 282.975 181.97 283.072C182.231 283.168 182.646 283.26 183.215 283.347C183.852 283.453 184.373 283.569 184.778 283.694C185.183 283.81 185.535 284.027 185.834 284.346C186.133 284.664 186.283 285.108 186.283 285.677C186.283 286.159 186.138 286.589 185.849 286.965C185.559 287.341 185.135 287.636 184.575 287.848C184.025 288.05 183.369 288.152 182.607 288.152ZM196.026 284.172C196.026 284.201 196.012 284.403 195.983 284.78H190.093C190.199 285.262 190.45 285.643 190.845 285.923C191.241 286.203 191.733 286.343 192.322 286.343C192.727 286.343 193.084 286.285 193.393 286.169C193.711 286.044 194.005 285.851 194.275 285.59L195.477 286.893C194.743 287.732 193.672 288.152 192.264 288.152C191.386 288.152 190.609 287.983 189.934 287.645C189.258 287.298 188.737 286.82 188.371 286.212C188.004 285.605 187.821 284.915 187.821 284.143C187.821 283.381 187.999 282.696 188.356 282.088C188.723 281.47 189.22 280.993 189.847 280.655C190.484 280.308 191.193 280.134 191.974 280.134C192.736 280.134 193.426 280.298 194.044 280.626C194.661 280.954 195.144 281.427 195.491 282.044C195.848 282.652 196.026 283.361 196.026 284.172ZM191.989 281.842C191.477 281.842 191.048 281.987 190.701 282.276C190.353 282.565 190.141 282.961 190.064 283.463H193.899C193.822 282.971 193.61 282.58 193.262 282.29C192.915 281.991 192.49 281.842 191.989 281.842ZM200.41 281.277C200.68 280.901 201.042 280.616 201.495 280.424C201.958 280.231 202.489 280.134 203.087 280.134V282.218C202.836 282.199 202.667 282.189 202.58 282.189C201.934 282.189 201.427 282.372 201.061 282.739C200.694 283.096 200.511 283.636 200.511 284.36V288.036H198.253V280.25H200.41V281.277ZM213.15 280.25L209.865 288.036H207.534L204.264 280.25H206.594L208.75 285.547L210.979 280.25H213.15ZM222.21 284.172C222.21 284.201 222.195 284.403 222.166 284.78H216.276C216.382 285.262 216.633 285.643 217.028 285.923C217.424 286.203 217.916 286.343 218.505 286.343C218.91 286.343 219.267 286.285 219.576 286.169C219.894 286.044 220.188 285.851 220.458 285.59L221.66 286.893C220.926 287.732 219.855 288.152 218.447 288.152C217.569 288.152 216.792 287.983 216.117 287.645C215.441 287.298 214.92 286.82 214.554 286.212C214.187 285.605 214.004 284.915 214.004 284.143C214.004 283.381 214.182 282.696 214.539 282.088C214.906 281.47 215.403 280.993 216.03 280.655C216.667 280.308 217.376 280.134 218.157 280.134C218.92 280.134 219.609 280.298 220.227 280.626C220.844 280.954 221.327 281.427 221.674 282.044C222.031 282.652 222.21 283.361 222.21 284.172ZM218.172 281.842C217.66 281.842 217.231 281.987 216.884 282.276C216.536 282.565 216.324 282.961 216.247 283.463H220.082C220.005 282.971 219.793 282.58 219.445 282.29C219.098 281.991 218.673 281.842 218.172 281.842ZM226.593 281.277C226.863 280.901 227.225 280.616 227.678 280.424C228.141 280.231 228.672 280.134 229.27 280.134V282.218C229.019 282.199 228.85 282.189 228.764 282.189C228.117 282.189 227.611 282.372 227.244 282.739C226.877 283.096 226.694 283.636 226.694 284.36V288.036H224.436V280.25H226.593V281.277Z" fill="white"/>
<path d="M294.528 279.662C294.578 278.989 294.489 278.314 294.266 277.677C294.044 277.04 293.692 276.456 293.234 275.961C292.776 275.467 292.221 275.071 291.603 274.8C290.986 274.53 290.319 274.389 289.644 274.387C288.97 274.385 288.303 274.522 287.683 274.79C287.064 275.057 286.507 275.449 286.046 275.942C285.585 276.434 285.231 277.016 285.005 277.651C284.779 278.287 284.686 278.962 284.732 279.635L286.296 279.527C286.264 279.069 286.327 278.609 286.481 278.177C286.635 277.744 286.876 277.348 287.19 277.013C287.504 276.677 287.883 276.41 288.305 276.228C288.727 276.046 289.181 275.953 289.64 275.954C290.099 275.955 290.553 276.051 290.974 276.236C291.394 276.42 291.772 276.689 292.084 277.026C292.396 277.363 292.635 277.761 292.787 278.194C292.938 278.628 292.999 279.088 292.965 279.545L294.528 279.662Z" fill="#A41FE2"/>
<rect x="282.122" y="279.534" width="14.8827" height="13.7227" rx="3.84422" stroke="#A41FE2" stroke-width="1.35678"/>
<circle cx="289.717" cy="284.779" r="1.89434" fill="white"/>
<rect x="288.771" y="284.78" width="1.89434" height="4.73584" rx="0.904523" fill="white"/>
<path d="M275.354 284.076L275.354 288.681M275.354 292.776L275.354 288.681M275.354 288.681H277.964" stroke="white" stroke-width="1.35678" stroke-linecap="round" stroke-linejoin="round"/>
<path d="M275.644 291.616H277.963" stroke="white" stroke-width="1.35678" stroke-linecap="round" stroke-linejoin="round"/>
<rect x="272.262" y="279.534" width="6.18296" height="4.44302" rx="2.22151" stroke="white" stroke-width="1.35678" stroke-linejoin="round"/>
<rect x="56.1758" y="127.202" width="259.598" height="54.2714" rx="4.52261" fill="#333037"/>
<path d="M152.024 159.466C150.992 159.466 150.056 159.244 149.216 158.8C148.387 158.347 147.731 157.724 147.248 156.933C146.775 156.132 146.539 155.23 146.539 154.227C146.539 153.224 146.775 152.326 147.248 151.535C147.731 150.734 148.387 150.112 149.216 149.668C150.056 149.215 150.997 148.988 152.039 148.988C152.917 148.988 153.708 149.142 154.412 149.451C155.126 149.76 155.724 150.204 156.207 150.783L154.701 152.172C154.016 151.381 153.167 150.985 152.154 150.985C151.527 150.985 150.968 151.125 150.476 151.405C149.983 151.675 149.598 152.056 149.318 152.548C149.048 153.04 148.912 153.6 148.912 154.227C148.912 154.854 149.048 155.414 149.318 155.906C149.598 156.398 149.983 156.784 150.476 157.064C150.968 157.334 151.527 157.469 152.154 157.469C153.167 157.469 154.016 157.068 154.701 156.268L156.207 157.657C155.724 158.245 155.126 158.694 154.412 159.003C153.698 159.312 152.902 159.466 152.024 159.466ZM158.513 149.162H160.858V159.292H158.513V149.162ZM171.268 159.408C170.622 159.408 169.99 159.331 169.372 159.177C168.755 159.012 168.263 158.81 167.896 158.569L168.649 156.948C168.996 157.17 169.416 157.353 169.908 157.498C170.4 157.633 170.882 157.7 171.355 157.7C172.31 157.7 172.788 157.464 172.788 156.991C172.788 156.769 172.658 156.61 172.397 156.514C172.137 156.417 171.736 156.335 171.196 156.268C170.559 156.171 170.033 156.06 169.618 155.935C169.204 155.809 168.842 155.587 168.533 155.269C168.234 154.951 168.084 154.497 168.084 153.909C168.084 153.417 168.224 152.982 168.504 152.606C168.794 152.22 169.208 151.921 169.749 151.709C170.299 151.497 170.945 151.39 171.688 151.39C172.238 151.39 172.783 151.453 173.323 151.579C173.873 151.694 174.327 151.858 174.684 152.071L173.931 153.677C173.246 153.291 172.498 153.098 171.688 153.098C171.206 153.098 170.844 153.166 170.603 153.301C170.361 153.436 170.241 153.609 170.241 153.822C170.241 154.063 170.371 154.232 170.632 154.328C170.892 154.425 171.307 154.516 171.876 154.603C172.513 154.709 173.034 154.825 173.439 154.951C173.844 155.066 174.197 155.283 174.496 155.602C174.795 155.92 174.944 156.364 174.944 156.933C174.944 157.416 174.8 157.845 174.51 158.221C174.221 158.598 173.796 158.892 173.237 159.104C172.687 159.307 172.031 159.408 171.268 159.408ZM184.648 151.506L181.131 159.77C180.774 160.667 180.33 161.299 179.8 161.666C179.279 162.032 178.647 162.216 177.904 162.216C177.498 162.216 177.098 162.153 176.702 162.028C176.307 161.902 175.984 161.728 175.733 161.507L176.558 159.9C176.731 160.055 176.929 160.175 177.151 160.262C177.383 160.349 177.609 160.392 177.831 160.392C178.14 160.392 178.391 160.315 178.584 160.161C178.777 160.016 178.951 159.77 179.105 159.423L179.134 159.35L175.762 151.506H178.092L180.277 156.789L182.477 151.506H184.648ZM188.799 159.408C188.153 159.408 187.521 159.331 186.903 159.177C186.286 159.012 185.794 158.81 185.427 158.569L186.18 156.948C186.527 157.17 186.947 157.353 187.439 157.498C187.931 157.633 188.413 157.7 188.886 157.7C189.841 157.7 190.319 157.464 190.319 156.991C190.319 156.769 190.188 156.61 189.928 156.514C189.667 156.417 189.267 156.335 188.727 156.268C188.09 156.171 187.564 156.06 187.149 155.935C186.734 155.809 186.373 155.587 186.064 155.269C185.765 154.951 185.615 154.497 185.615 153.909C185.615 153.417 185.755 152.982 186.035 152.606C186.324 152.22 186.739 151.921 187.28 151.709C187.829 151.497 188.476 151.39 189.219 151.39C189.769 151.39 190.314 151.453 190.854 151.579C191.404 151.694 191.858 151.858 192.215 152.071L191.462 153.677C190.777 153.291 190.029 153.098 189.219 153.098C188.736 153.098 188.375 153.166 188.133 153.301C187.892 153.436 187.772 153.609 187.772 153.822C187.772 154.063 187.902 154.232 188.162 154.328C188.423 154.425 188.838 154.516 189.407 154.603C190.044 154.709 190.565 154.825 190.97 154.951C191.375 155.066 191.727 155.283 192.026 155.602C192.326 155.92 192.475 156.364 192.475 156.933C192.475 157.416 192.33 157.845 192.041 158.221C191.751 158.598 191.327 158.892 190.767 159.104C190.217 159.307 189.561 159.408 188.799 159.408ZM199.614 158.916C199.392 159.08 199.117 159.205 198.789 159.292C198.47 159.369 198.133 159.408 197.776 159.408C196.849 159.408 196.131 159.172 195.619 158.699C195.118 158.226 194.867 157.531 194.867 156.615V153.417H193.665V151.68H194.867V149.784H197.124V151.68H199.064V153.417H197.124V156.586C197.124 156.914 197.206 157.17 197.37 157.353C197.544 157.527 197.785 157.614 198.094 157.614C198.451 157.614 198.755 157.517 199.006 157.324L199.614 158.916ZM208.991 155.428C208.991 155.457 208.977 155.66 208.948 156.036H203.058C203.164 156.518 203.415 156.9 203.81 157.179C204.206 157.459 204.698 157.599 205.286 157.599C205.692 157.599 206.049 157.541 206.357 157.425C206.676 157.3 206.97 157.107 207.24 156.846L208.441 158.149C207.708 158.988 206.637 159.408 205.228 159.408C204.35 159.408 203.574 159.239 202.898 158.902C202.223 158.554 201.702 158.077 201.335 157.469C200.969 156.861 200.785 156.171 200.785 155.399C200.785 154.637 200.964 153.952 201.321 153.344C201.688 152.727 202.184 152.249 202.812 151.911C203.448 151.564 204.157 151.39 204.939 151.39C205.701 151.39 206.391 151.554 207.009 151.882C207.626 152.21 208.108 152.683 208.456 153.301C208.813 153.909 208.991 154.618 208.991 155.428ZM204.953 153.098C204.442 153.098 204.013 153.243 203.665 153.532C203.318 153.822 203.106 154.217 203.029 154.719H206.864C206.787 154.227 206.574 153.836 206.227 153.547C205.88 153.248 205.455 153.098 204.953 153.098ZM221.189 151.39C222.164 151.39 222.936 151.68 223.505 152.259C224.084 152.828 224.373 153.687 224.373 154.835V159.292H222.116V155.182C222.116 154.565 221.985 154.106 221.725 153.807C221.474 153.499 221.112 153.344 220.639 153.344C220.109 153.344 219.689 153.518 219.38 153.865C219.072 154.203 218.917 154.709 218.917 155.385V159.292H216.66V155.182C216.66 153.957 216.167 153.344 215.183 153.344C214.662 153.344 214.247 153.518 213.939 153.865C213.63 154.203 213.476 154.709 213.476 155.385V159.292H211.218V151.506H213.374V152.403C213.664 152.075 214.016 151.825 214.431 151.651C214.855 151.477 215.318 151.39 215.82 151.39C216.37 151.39 216.867 151.501 217.311 151.723C217.755 151.936 218.112 152.249 218.382 152.664C218.7 152.259 219.101 151.945 219.583 151.723C220.075 151.501 220.61 151.39 221.189 151.39Z" fill="white"/>
<rect x="56.1758" y="23.9146" width="259.598" height="58.9657" rx="4.52261" fill="#333037"/>
<path d="M191.394 49.7616C190.195 49.7616 189.316 50.3413 189.316 51.7607C189.316 52.8202 189.896 53.5598 191.334 53.5598C192.553 53.5598 193.372 52.8402 193.372 51.7207C193.372 50.4413 192.633 49.7616 191.394 49.7616ZM188.997 59.737C188.717 60.0768 188.437 60.4566 188.437 60.8964C188.437 61.756 189.536 62.0359 191.074 62.0359C192.333 62.0359 194.051 61.9559 194.051 60.7765C194.051 60.0768 193.232 60.0368 192.173 59.9769L188.997 59.737ZM195.429 49.8216C195.829 50.3213 196.228 51.021 196.228 52.0205C196.228 54.4394 194.331 55.8388 191.594 55.8388C190.895 55.8388 190.275 55.7588 189.876 55.6389L189.157 56.7983L191.294 56.9383C195.05 57.1782 197.267 57.2781 197.267 60.1768C197.267 62.6756 195.07 64.0949 191.294 64.0949C187.359 64.0949 185.86 63.0954 185.86 61.3762C185.86 60.3967 186.3 59.8769 187.059 59.1572C186.34 58.8574 186.1 58.3176 186.1 57.7179C186.1 57.2381 186.34 56.7983 186.739 56.3985C187.139 55.9787 187.558 55.5789 188.078 55.0991C187.019 54.5794 186.2 53.4399 186.2 51.8406C186.2 49.3418 187.858 47.6226 191.174 47.6226C192.113 47.6226 192.673 47.7026 193.172 47.8425H197.407V49.6816L195.429 49.8216Z" fill="white"/>
<path d="M201.264 45.8832C200.025 45.8832 199.306 45.1636 199.306 43.9241C199.306 42.6847 200.025 42.005 201.264 42.005C202.523 42.005 203.242 42.6847 203.242 43.9241C203.242 45.1636 202.523 45.8832 201.264 45.8832ZM198.447 58.9372V57.218L199.566 57.0581C199.866 57.0181 199.906 56.9581 199.906 56.6183V50.2212C199.906 49.9813 199.846 49.8214 199.626 49.7614L198.447 49.3416L198.687 47.5824H203.182V56.5983C203.182 56.9381 203.202 56.9981 203.521 57.0381L204.62 57.198V58.9172L198.447 58.9372Z" fill="white"/>
<path d="M213.252 58.0975C212.313 58.5573 210.954 58.9571 209.716 58.9571C207.139 58.9571 206.16 57.9176 206.16 55.4587V49.7813C206.16 49.6414 206.16 49.5614 205.98 49.5614H204.462V47.6223C206.38 47.4024 207.139 46.4429 207.379 44.084H209.436V47.1825C209.436 47.3425 209.436 47.4024 209.616 47.4024H212.652V49.5814H209.416V54.779C209.416 56.0584 209.716 56.5582 210.895 56.5582C211.494 56.5582 212.133 56.3983 212.652 56.2184L213.252 58.0975Z" fill="white"/>
<path d="M181.048 52.4006L171.099 42.4452C170.52 41.8654 169.601 41.8654 169.021 42.4452L166.964 44.5242L169.581 47.143C170.18 46.9431 170.879 47.083 171.379 47.5628C171.858 48.0426 171.998 48.7622 171.798 49.362L174.315 51.8808C174.935 51.6609 175.634 51.8008 176.113 52.3006C176.792 52.9803 176.792 54.0798 176.113 54.7595C175.434 55.4391 174.335 55.4391 173.656 54.7595C173.137 54.2397 173.017 53.5 173.276 52.8603L170.919 50.5214V56.7186C171.079 56.7985 171.239 56.9185 171.379 57.0584C172.058 57.7381 172.058 58.8376 171.379 59.5173C170.699 60.1969 169.601 60.1969 168.921 59.5173C168.242 58.8376 168.242 57.7381 168.921 57.0584C169.081 56.8985 169.281 56.7585 169.501 56.6786V50.4015C169.301 50.3215 169.101 50.1816 168.921 50.0217C168.402 49.5019 168.282 48.7423 168.542 48.1225L165.965 45.5237L159.133 52.3406C158.553 52.9203 158.553 53.8399 159.133 54.4196L169.061 64.355C169.641 64.9347 170.56 64.9347 171.139 64.355L181.028 54.4596C181.607 53.8999 181.607 52.9603 181.048 52.4006Z" fill="#F05133"/>
<path d="M230.749 490.648H365.523C370.019 490.648 373.663 494.293 373.663 498.789V527.281M150.246 490.648H9.1407C4.64472 490.648 1 494.293 1 498.789V592.859C1 597.355 4.64473 601 9.14072 601H287.281H365.523C370.019 601 373.663 597.355 373.663 592.859V570.397" stroke="#9F9F9F" stroke-width="0.678392" stroke-linecap="square" stroke-linejoin="round" stroke-dasharray="4.52 4.52"/>
<path d="M362.507 551.779L384.818 551.779" stroke="#9F9F9F" stroke-width="1.35678"/>
<rect x="361.979" y="537.759" width="23.3668" height="17.6382" rx="2.33668" stroke="#9F9F9F" stroke-width="1.35678"/>
<path d="M372.268 555.472H375.359C376.428 555.472 377.454 555.896 378.21 556.65C378.966 557.404 379.391 558.426 379.391 559.492V560.296H368.235V559.492C368.235 558.426 368.66 557.404 369.416 556.65C370.173 555.896 371.198 555.472 372.268 555.472V555.472Z" stroke="#9F9F9F" stroke-width="1.35678" stroke-miterlimit="10"/>
<path d="M401.691 552.13C400.292 552.13 399.202 551.739 398.42 550.957C397.639 550.166 397.248 549.037 397.248 547.571V541.854H399.13V547.498C399.13 549.486 399.988 550.48 401.706 550.48C403.413 550.48 404.267 549.486 404.267 547.498V541.854H406.12V547.571C406.12 549.037 405.729 550.166 404.947 550.957C404.176 551.739 403.09 552.13 401.691 552.13ZM411.692 552.086C411.065 552.086 410.453 552.004 409.855 551.84C409.256 551.676 408.779 551.469 408.422 551.218L409.116 549.843C409.464 550.075 409.879 550.263 410.361 550.407C410.853 550.543 411.336 550.61 411.808 550.61C412.889 550.61 413.429 550.325 413.429 549.756C413.429 549.486 413.289 549.298 413.009 549.192C412.739 549.086 412.3 548.984 411.692 548.888C411.056 548.791 410.535 548.68 410.129 548.555C409.734 548.43 409.387 548.212 409.087 547.904C408.798 547.585 408.653 547.146 408.653 546.587C408.653 545.853 408.957 545.27 409.565 544.836C410.183 544.392 411.012 544.17 412.054 544.17C412.585 544.17 413.116 544.233 413.646 544.358C414.177 544.474 414.611 544.633 414.949 544.836L414.254 546.21C413.598 545.825 412.86 545.632 412.04 545.632C411.509 545.632 411.104 545.714 410.824 545.878C410.554 546.032 410.419 546.239 410.419 546.5C410.419 546.789 410.564 546.997 410.853 547.122C411.152 547.238 411.61 547.349 412.228 547.455C412.845 547.552 413.352 547.663 413.748 547.788C414.143 547.913 414.481 548.126 414.761 548.425C415.05 548.724 415.195 549.148 415.195 549.698C415.195 550.422 414.881 551.001 414.254 551.435C413.627 551.869 412.773 552.086 411.692 552.086ZM424.741 548.164C424.741 548.29 424.732 548.468 424.713 548.7H418.649C418.755 549.269 419.03 549.722 419.474 550.06C419.927 550.388 420.487 550.552 421.152 550.552C422.001 550.552 422.701 550.272 423.251 549.713L424.22 550.827C423.873 551.242 423.434 551.556 422.903 551.768C422.373 551.98 421.775 552.086 421.109 552.086C420.26 552.086 419.512 551.917 418.866 551.58C418.219 551.242 417.718 550.774 417.361 550.176C417.013 549.568 416.84 548.883 416.84 548.121C416.84 547.368 417.008 546.693 417.346 546.095C417.693 545.487 418.171 545.014 418.779 544.676C419.387 544.339 420.072 544.17 420.834 544.17C421.587 544.17 422.257 544.339 422.846 544.676C423.444 545.004 423.907 545.472 424.235 546.08C424.573 546.678 424.741 547.373 424.741 548.164ZM420.834 545.617C420.255 545.617 419.763 545.791 419.358 546.138C418.962 546.476 418.721 546.929 418.634 547.498H423.019C422.942 546.939 422.706 546.485 422.31 546.138C421.915 545.791 421.422 545.617 420.834 545.617ZM428.925 545.386C429.446 544.575 430.363 544.17 431.675 544.17V545.892C431.52 545.863 431.38 545.849 431.255 545.849C430.551 545.849 430.001 546.056 429.605 546.471C429.21 546.876 429.012 547.465 429.012 548.237V551.985H427.203V544.257H428.925V545.386Z" fill="#9F9F9F"/>
<path d="M212.658 236.176H365.523C370.019 236.176 373.663 239.821 373.663 244.317V312.005M168.337 236.176H9.1407C4.64472 236.176 1 239.821 1 244.317V428.839C1 433.335 4.64471 436.98 9.1407 436.98H168.337M212.658 436.98H365.523C370.019 436.98 373.663 433.335 373.663 428.839V361.151" stroke="#9F9F9F" stroke-width="1.35678"/>
<path d="M373.595 338.511C377.194 338.511 380.111 335.581 380.111 331.967C380.111 328.352 377.194 325.422 373.595 325.422C369.996 325.422 367.079 328.352 367.079 331.967C367.079 335.581 369.996 338.511 373.595 338.511Z" stroke="#9F9F9F" stroke-width="1.35678" stroke-miterlimit="10"/>
<path d="M370.356 338.615H376.835C379.077 338.615 381.226 339.51 382.811 341.102C384.396 342.694 385.287 344.853 385.287 347.104V348.802H361.904V347.104C361.904 344.853 362.795 342.694 364.38 341.102C365.965 339.51 368.114 338.615 370.356 338.615V338.615Z" stroke="#9F9F9F" stroke-width="1.35678" stroke-miterlimit="10"/>
<path d="M370.074 338.686L373.877 342.86L377.751 338.686" stroke="#9F9F9F" stroke-width="1.35678" stroke-miterlimit="10"/>
<path d="M403.905 340.093H398.84L397.842 342.437H395.902L400.461 332.307H402.314L406.887 342.437H404.919L403.905 340.093ZM403.283 338.616L401.373 334.188L399.477 338.616H403.283ZM416.223 331.699V342.437H414.487V341.439C414.188 341.805 413.816 342.08 413.372 342.264C412.938 342.447 412.456 342.538 411.925 342.538C411.182 342.538 410.512 342.374 409.914 342.046C409.325 341.718 408.862 341.255 408.524 340.657C408.186 340.049 408.018 339.355 408.018 338.573C408.018 337.792 408.186 337.102 408.524 336.504C408.862 335.905 409.325 335.442 409.914 335.114C410.512 334.786 411.182 334.622 411.925 334.622C412.437 334.622 412.904 334.709 413.329 334.883C413.754 335.056 414.115 335.317 414.414 335.664V331.699H416.223ZM412.142 340.99C412.576 340.99 412.967 340.893 413.315 340.701C413.662 340.498 413.937 340.213 414.139 339.847C414.342 339.48 414.443 339.055 414.443 338.573C414.443 338.091 414.342 337.666 414.139 337.299C413.937 336.933 413.662 336.653 413.315 336.46C412.967 336.257 412.576 336.156 412.142 336.156C411.708 336.156 411.317 336.257 410.97 336.46C410.623 336.653 410.348 336.933 410.145 337.299C409.942 337.666 409.841 338.091 409.841 338.573C409.841 339.055 409.942 339.48 410.145 339.847C410.348 340.213 410.623 340.498 410.97 340.701C411.317 340.893 411.708 340.99 412.142 340.99ZM429.068 334.622C430.043 334.622 430.814 334.907 431.384 335.476C431.953 336.036 432.237 336.88 432.237 338.009V342.437H430.428V338.24C430.428 337.565 430.279 337.058 429.98 336.721C429.681 336.373 429.251 336.2 428.692 336.2C428.084 336.2 427.597 336.402 427.23 336.807C426.863 337.203 426.68 337.772 426.68 338.515V342.437H424.871V338.24C424.871 337.565 424.722 337.058 424.422 336.721C424.123 336.373 423.694 336.2 423.134 336.2C422.517 336.2 422.025 336.397 421.658 336.793C421.301 337.189 421.123 337.763 421.123 338.515V342.437H419.314V334.709H421.036V335.693C421.325 335.346 421.687 335.08 422.121 334.897C422.555 334.714 423.038 334.622 423.569 334.622C424.147 334.622 424.659 334.733 425.103 334.955C425.556 335.167 425.913 335.486 426.174 335.91C426.492 335.505 426.902 335.191 427.404 334.969C427.905 334.738 428.46 334.622 429.068 334.622ZM435.273 334.709H437.082V342.437H435.273V334.709ZM436.185 333.435C435.857 333.435 435.582 333.334 435.36 333.131C435.138 332.919 435.027 332.659 435.027 332.35C435.027 332.041 435.138 331.786 435.36 331.583C435.582 331.371 435.857 331.265 436.185 331.265C436.513 331.265 436.788 331.366 437.01 331.568C437.231 331.761 437.342 332.007 437.342 332.307C437.342 332.625 437.231 332.895 437.01 333.117C436.797 333.329 436.522 333.435 436.185 333.435ZM444.565 334.622C445.539 334.622 446.321 334.907 446.91 335.476C447.498 336.045 447.792 336.889 447.792 338.009V342.437H445.983V338.24C445.983 337.565 445.824 337.058 445.506 336.721C445.187 336.373 444.734 336.2 444.145 336.2C443.48 336.2 442.954 336.402 442.568 336.807C442.182 337.203 441.989 337.777 441.989 338.53V342.437H440.18V334.709H441.902V335.708C442.201 335.351 442.577 335.08 443.031 334.897C443.484 334.714 443.996 334.622 444.565 334.622ZM450.811 334.709H452.62V342.437H450.811V334.709ZM451.723 333.435C451.395 333.435 451.12 333.334 450.898 333.131C450.676 332.919 450.565 332.659 450.565 332.35C450.565 332.041 450.676 331.786 450.898 331.583C451.12 331.371 451.395 331.265 451.723 331.265C452.051 331.265 452.326 331.366 452.548 331.568C452.769 331.761 452.88 332.007 452.88 332.307C452.88 332.625 452.769 332.895 452.548 333.117C452.335 333.329 452.06 333.435 451.723 333.435ZM458.106 342.538C457.479 342.538 456.866 342.456 456.268 342.292C455.67 342.128 455.192 341.921 454.835 341.67L455.53 340.295C455.877 340.527 456.292 340.715 456.774 340.86C457.266 340.995 457.749 341.062 458.222 341.062C459.302 341.062 459.842 340.778 459.842 340.208C459.842 339.938 459.703 339.75 459.423 339.644C459.153 339.538 458.714 339.437 458.106 339.34C457.469 339.244 456.948 339.133 456.543 339.007C456.147 338.882 455.8 338.665 455.501 338.356C455.211 338.038 455.067 337.599 455.067 337.039C455.067 336.306 455.371 335.722 455.978 335.288C456.596 334.844 457.426 334.622 458.468 334.622C458.998 334.622 459.529 334.685 460.06 334.81C460.59 334.926 461.024 335.085 461.362 335.288L460.667 336.663C460.011 336.277 459.273 336.084 458.453 336.084C457.922 336.084 457.517 336.166 457.237 336.33C456.967 336.484 456.832 336.692 456.832 336.952C456.832 337.242 456.977 337.449 457.266 337.574C457.566 337.69 458.024 337.801 458.641 337.907C459.259 338.004 459.765 338.115 460.161 338.24C460.556 338.366 460.894 338.578 461.174 338.877C461.463 339.176 461.608 339.601 461.608 340.151C461.608 340.874 461.295 341.453 460.667 341.887C460.04 342.321 459.186 342.538 458.106 342.538ZM468.535 342.017C468.323 342.191 468.063 342.321 467.754 342.408C467.455 342.495 467.136 342.538 466.799 342.538C465.95 342.538 465.293 342.317 464.83 341.873C464.367 341.429 464.136 340.783 464.136 339.933V336.214H462.862V334.767H464.136V333.001H465.945V334.767H468.014V336.214H465.945V339.89C465.945 340.266 466.036 340.556 466.22 340.758C466.403 340.951 466.668 341.048 467.016 341.048C467.421 341.048 467.759 340.942 468.029 340.729L468.535 342.017ZM472.469 335.838C472.99 335.027 473.907 334.622 475.219 334.622V336.344C475.065 336.315 474.925 336.301 474.799 336.301C474.095 336.301 473.545 336.508 473.149 336.923C472.754 337.328 472.556 337.917 472.556 338.689V342.437H470.747V334.709H472.469V335.838ZM480.387 334.622C481.526 334.622 482.394 334.897 482.992 335.447C483.6 335.987 483.904 336.807 483.904 337.907V342.437H482.196V341.496C481.974 341.834 481.656 342.095 481.241 342.278C480.836 342.452 480.344 342.538 479.765 342.538C479.186 342.538 478.68 342.442 478.245 342.249C477.811 342.046 477.473 341.771 477.232 341.424C477.001 341.067 476.885 340.667 476.885 340.223C476.885 339.528 477.141 338.973 477.652 338.559C478.173 338.134 478.988 337.922 480.098 337.922H482.095V337.806C482.095 337.266 481.931 336.851 481.603 336.561C481.285 336.272 480.807 336.127 480.17 336.127C479.736 336.127 479.307 336.195 478.882 336.33C478.467 336.465 478.115 336.653 477.826 336.894L477.117 335.577C477.522 335.269 478.009 335.032 478.578 334.868C479.147 334.704 479.75 334.622 480.387 334.622ZM480.141 341.222C480.595 341.222 480.995 341.12 481.342 340.918C481.699 340.705 481.95 340.406 482.095 340.02V339.123H480.228C479.186 339.123 478.665 339.466 478.665 340.151C478.665 340.479 478.795 340.739 479.056 340.932C479.316 341.125 479.678 341.222 480.141 341.222ZM491.595 342.017C491.383 342.191 491.122 342.321 490.813 342.408C490.514 342.495 490.196 342.538 489.858 342.538C489.009 342.538 488.353 342.317 487.89 341.873C487.427 341.429 487.195 340.783 487.195 339.933V336.214H485.922V334.767H487.195V333.001H489.004V334.767H491.074V336.214H489.004V339.89C489.004 340.266 489.096 340.556 489.279 340.758C489.463 340.951 489.728 341.048 490.075 341.048C490.481 341.048 490.818 340.942 491.088 340.729L491.595 342.017ZM497.026 342.538C496.244 342.538 495.54 342.37 494.913 342.032C494.286 341.694 493.794 341.226 493.437 340.628C493.089 340.02 492.916 339.335 492.916 338.573C492.916 337.811 493.089 337.131 493.437 336.532C493.794 335.934 494.286 335.466 494.913 335.129C495.54 334.791 496.244 334.622 497.026 334.622C497.817 334.622 498.526 334.791 499.153 335.129C499.78 335.466 500.268 335.934 500.615 336.532C500.972 337.131 501.15 337.811 501.15 338.573C501.15 339.335 500.972 340.02 500.615 340.628C500.268 341.226 499.78 341.694 499.153 342.032C498.526 342.37 497.817 342.538 497.026 342.538ZM497.026 340.99C497.691 340.99 498.241 340.768 498.676 340.324C499.11 339.88 499.327 339.297 499.327 338.573C499.327 337.849 499.11 337.266 498.676 336.822C498.241 336.378 497.691 336.156 497.026 336.156C496.36 336.156 495.81 336.378 495.376 336.822C494.951 337.266 494.739 337.849 494.739 338.573C494.739 339.297 494.951 339.88 495.376 340.324C495.81 340.768 496.36 340.99 497.026 340.99ZM505.326 335.838C505.847 335.027 506.764 334.622 508.076 334.622V336.344C507.921 336.315 507.782 336.301 507.656 336.301C506.952 336.301 506.402 336.508 506.006 336.923C505.611 337.328 505.413 337.917 505.413 338.689V342.437H503.604V334.709H505.326V335.838Z" fill="#9F9F9F"/>
<path d="M212.658 201.804H365.523C370.019 201.804 373.663 198.159 373.663 193.663V125.975M373.663 76.8291V9.1407C373.663 4.64472 370.019 1 365.523 1H9.1407C4.64472 1 1 4.64471 1 9.1407V193.663C1 198.159 4.64471 201.804 9.1407 201.804H168.337" stroke="#9F9F9F" stroke-width="1.35678"/>
<path d="M373.595 103.335C377.194 103.335 380.111 100.405 380.111 96.7908C380.111 93.1763 377.194 90.2462 373.595 90.2462C369.996 90.2462 367.079 93.1763 367.079 96.7908C367.079 100.405 369.996 103.335 373.595 103.335Z" stroke="#9F9F9F" stroke-width="1.35678" stroke-miterlimit="10"/>
<path d="M370.356 103.44H376.835C379.077 103.44 381.226 104.334 382.811 105.926C384.396 107.518 385.287 109.677 385.287 111.928V113.626H361.904V111.928C361.904 109.677 362.795 107.518 364.38 105.926C365.965 104.334 368.114 103.44 370.356 103.44V103.44Z" stroke="#9F9F9F" stroke-width="1.35678" stroke-miterlimit="10"/>
<path d="M370.074 103.51L373.877 107.684L377.751 103.51" stroke="#9F9F9F" stroke-width="1.35678" stroke-miterlimit="10"/>
<path d="M397.335 87.7839H401.764C402.844 87.7839 403.804 87.9962 404.644 88.4207C405.483 88.8356 406.134 89.4289 406.597 90.2008C407.06 90.963 407.292 91.8458 407.292 92.8492C407.292 93.8527 407.06 94.7403 406.597 95.5122C406.134 96.2744 405.483 96.8677 404.644 97.2923C403.804 97.7071 402.844 97.9146 401.764 97.9146H397.335V87.7839ZM401.677 96.3226C402.42 96.3226 403.071 96.1827 403.63 95.9029C404.2 95.6135 404.634 95.2082 404.933 94.6872C405.242 94.1566 405.396 93.5439 405.396 92.8492C405.396 92.1546 405.242 91.5467 404.933 91.0257C404.634 90.4951 404.2 90.0898 403.63 89.8101C403.071 89.5206 402.42 89.3759 401.677 89.3759H399.216V96.3226H401.677ZM417.107 94.0939C417.107 94.2193 417.097 94.3978 417.078 94.6293H411.014C411.12 95.1986 411.395 95.6521 411.839 95.9897C412.292 96.3178 412.852 96.4818 413.518 96.4818C414.367 96.4818 415.066 96.202 415.616 95.6424L416.586 96.7568C416.238 97.1717 415.799 97.4852 415.269 97.6975C414.738 97.9097 414.14 98.0159 413.474 98.0159C412.625 98.0159 411.877 97.847 411.231 97.5093C410.585 97.1717 410.083 96.7037 409.726 96.1055C409.379 95.4977 409.205 94.8127 409.205 94.0505C409.205 93.2979 409.374 92.6225 409.711 92.0243C410.059 91.4165 410.536 90.9437 411.144 90.606C411.752 90.2683 412.437 90.0995 413.199 90.0995C413.952 90.0995 414.622 90.2683 415.211 90.606C415.809 90.9341 416.272 91.402 416.6 92.0098C416.938 92.608 417.107 93.3027 417.107 94.0939ZM413.199 91.5467C412.62 91.5467 412.128 91.7204 411.723 92.0677C411.327 92.4054 411.086 92.8589 410.999 93.4281H415.385C415.307 92.8685 415.071 92.4151 414.675 92.0677C414.28 91.7204 413.788 91.5467 413.199 91.5467ZM426.663 90.1863L423.349 97.9146H421.482L418.168 90.1863H420.049L422.451 95.9174L424.926 90.1863H426.663ZM435.57 94.0939C435.57 94.2193 435.561 94.3978 435.541 94.6293H429.477C429.584 95.1986 429.859 95.6521 430.302 95.9897C430.756 96.3178 431.315 96.4818 431.981 96.4818C432.83 96.4818 433.53 96.202 434.08 95.6424L435.049 96.7568C434.702 97.1717 434.263 97.4852 433.732 97.6975C433.202 97.9097 432.603 98.0159 431.938 98.0159C431.089 98.0159 430.341 97.847 429.695 97.5093C429.048 97.1717 428.546 96.7037 428.189 96.1055C427.842 95.4977 427.668 94.8127 427.668 94.0505C427.668 93.2979 427.837 92.6225 428.175 92.0243C428.522 91.4165 429 90.9437 429.608 90.606C430.216 90.2683 430.901 90.0995 431.663 90.0995C432.415 90.0995 433.086 90.2683 433.674 90.606C434.273 90.9341 434.736 91.402 435.064 92.0098C435.401 92.608 435.57 93.3027 435.57 94.0939ZM431.663 91.5467C431.084 91.5467 430.592 91.7204 430.187 92.0677C429.791 92.4054 429.55 92.8589 429.463 93.4281H433.848C433.771 92.8685 433.535 92.4151 433.139 92.0677C432.743 91.7204 432.251 91.5467 431.663 91.5467ZM438.032 87.1761H439.841V97.9146H438.032V87.1761ZM446.412 98.0159C445.631 98.0159 444.926 97.847 444.299 97.5093C443.672 97.1717 443.18 96.7037 442.823 96.1055C442.476 95.4977 442.302 94.8127 442.302 94.0505C442.302 93.2882 442.476 92.608 442.823 92.0098C443.18 91.4117 443.672 90.9437 444.299 90.606C444.926 90.2683 445.631 90.0995 446.412 90.0995C447.203 90.0995 447.912 90.2683 448.539 90.606C449.167 90.9437 449.654 91.4117 450.001 92.0098C450.358 92.608 450.537 93.2882 450.537 94.0505C450.537 94.8127 450.358 95.4977 450.001 96.1055C449.654 96.7037 449.167 97.1717 448.539 97.5093C447.912 97.847 447.203 98.0159 446.412 98.0159ZM446.412 96.4673C447.078 96.4673 447.628 96.2454 448.062 95.8016C448.496 95.3578 448.713 94.7741 448.713 94.0505C448.713 93.3268 448.496 92.7431 448.062 92.2993C447.628 91.8555 447.078 91.6336 446.412 91.6336C445.746 91.6336 445.196 91.8555 444.762 92.2993C444.338 92.7431 444.125 93.3268 444.125 94.0505C444.125 94.7741 444.338 95.3578 444.762 95.8016C445.196 96.2454 445.746 96.4673 446.412 96.4673ZM457.274 90.0995C458.027 90.0995 458.697 90.2635 459.286 90.5916C459.884 90.9196 460.352 91.3827 460.689 91.9809C461.027 92.5791 461.196 93.2689 461.196 94.0505C461.196 94.832 461.027 95.5266 460.689 96.1345C460.352 96.7327 459.884 97.1958 459.286 97.5238C458.697 97.8519 458.027 98.0159 457.274 98.0159C456.232 98.0159 455.407 97.6685 454.799 96.9739V100.722H452.99V90.1863H454.712V91.1994C455.011 90.8328 455.378 90.5578 455.812 90.3745C456.256 90.1912 456.743 90.0995 457.274 90.0995ZM457.071 96.4673C457.737 96.4673 458.282 96.2454 458.707 95.8016C459.141 95.3578 459.358 94.7741 459.358 94.0505C459.358 93.3268 459.141 92.7431 458.707 92.2993C458.282 91.8555 457.737 91.6336 457.071 91.6336C456.637 91.6336 456.246 91.7349 455.899 91.9375C455.552 92.1305 455.277 92.4103 455.074 92.7769C454.872 93.1435 454.77 93.568 454.77 94.0505C454.77 94.5329 454.872 94.9574 455.074 95.324C455.277 95.6907 455.552 95.9753 455.899 96.1779C456.246 96.3709 456.637 96.4673 457.071 96.4673ZM473.39 90.0995C474.364 90.0995 475.136 90.3841 475.705 90.9534C476.274 91.513 476.559 92.3572 476.559 93.486V97.9146H474.75V93.7176C474.75 93.0422 474.6 92.5357 474.301 92.198C474.002 91.8507 473.573 91.677 473.013 91.677C472.406 91.677 471.918 91.8796 471.552 92.2848C471.185 92.6804 471.002 93.2496 471.002 93.9926V97.9146H469.193V93.7176C469.193 93.0422 469.043 92.5357 468.744 92.198C468.445 91.8507 468.016 91.677 467.456 91.677C466.838 91.677 466.346 91.8748 465.98 92.2704C465.623 92.6659 465.444 93.24 465.444 93.9926V97.9146H463.635V90.1863H465.357V91.1705C465.647 90.8231 466.009 90.5578 466.443 90.3745C466.877 90.1912 467.359 90.0995 467.89 90.0995C468.469 90.0995 468.98 90.2105 469.424 90.4324C469.878 90.6446 470.235 90.963 470.495 91.3875C470.814 90.9823 471.224 90.6687 471.725 90.4468C472.227 90.2153 472.782 90.0995 473.39 90.0995ZM486.93 94.0939C486.93 94.2193 486.921 94.3978 486.901 94.6293H480.837C480.944 95.1986 481.218 95.6521 481.662 95.9897C482.116 96.3178 482.675 96.4818 483.341 96.4818C484.19 96.4818 484.89 96.202 485.44 95.6424L486.409 96.7568C486.062 97.1717 485.623 97.4852 485.092 97.6975C484.562 97.9097 483.963 98.0159 483.298 98.0159C482.449 98.0159 481.701 97.847 481.054 97.5093C480.408 97.1717 479.906 96.7037 479.549 96.1055C479.202 95.4977 479.028 94.8127 479.028 94.0505C479.028 93.2979 479.197 92.6225 479.535 92.0243C479.882 91.4165 480.36 90.9437 480.968 90.606C481.575 90.2683 482.26 90.0995 483.023 90.0995C483.775 90.0995 484.446 90.2683 485.034 90.606C485.633 90.9341 486.096 91.402 486.424 92.0098C486.761 92.608 486.93 93.3027 486.93 94.0939ZM483.023 91.5467C482.444 91.5467 481.952 91.7204 481.547 92.0677C481.151 92.4054 480.91 92.8589 480.823 93.4281H485.208C485.131 92.8685 484.894 92.4151 484.499 92.0677C484.103 91.7204 483.611 91.5467 483.023 91.5467ZM493.777 90.0995C494.751 90.0995 495.533 90.3841 496.121 90.9534C496.71 91.5226 497.004 92.3668 497.004 93.486V97.9146H495.195V93.7176C495.195 93.0422 495.036 92.5357 494.717 92.198C494.399 91.8507 493.946 91.677 493.357 91.677C492.691 91.677 492.165 91.8796 491.779 92.2848C491.394 92.6804 491.201 93.2545 491.201 94.007V97.9146H489.392V90.1863H491.114V91.1849C491.413 90.8279 491.789 90.5578 492.243 90.3745C492.696 90.1912 493.207 90.0995 493.777 90.0995ZM504.668 97.4949C504.456 97.6685 504.195 97.7988 503.887 97.8856C503.588 97.9725 503.269 98.0159 502.931 98.0159C502.082 98.0159 501.426 97.794 500.963 97.3502C500.5 96.9063 500.269 96.2599 500.269 95.4109V91.6915H498.995V90.2442H500.269V88.4786H502.078V90.2442H504.147V91.6915H502.078V95.3674C502.078 95.7437 502.169 96.0332 502.353 96.2358C502.536 96.4287 502.801 96.5252 503.149 96.5252C503.554 96.5252 503.891 96.4191 504.162 96.2068L504.668 97.4949ZM401.807 115.495C401.595 115.669 401.334 115.799 401.025 115.886C400.726 115.972 400.408 116.016 400.07 116.016C399.221 116.016 398.565 115.794 398.102 115.35C397.639 114.906 397.407 114.26 397.407 113.411V109.691H396.134V108.244H397.407V106.479H399.216V108.244H401.286V109.691H399.216V113.367C399.216 113.744 399.308 114.033 399.491 114.236C399.675 114.429 399.94 114.525 400.287 114.525C400.693 114.525 401.03 114.419 401.3 114.207L401.807 115.495ZM411.029 112.094C411.029 112.219 411.02 112.398 411.001 112.629H404.937C405.043 113.199 405.318 113.652 405.762 113.99C406.215 114.318 406.775 114.482 407.44 114.482C408.289 114.482 408.989 114.202 409.539 113.642L410.508 114.757C410.161 115.172 409.722 115.485 409.191 115.697C408.661 115.91 408.063 116.016 407.397 116.016C406.548 116.016 405.8 115.847 405.154 115.509C404.507 115.172 404.006 114.704 403.649 114.106C403.301 113.498 403.128 112.813 403.128 112.05C403.128 111.298 403.296 110.623 403.634 110.024C403.981 109.416 404.459 108.944 405.067 108.606C405.675 108.268 406.36 108.099 407.122 108.099C407.875 108.099 408.545 108.268 409.134 108.606C409.732 108.934 410.195 109.402 410.523 110.01C410.861 110.608 411.029 111.303 411.029 112.094ZM407.122 109.547C406.543 109.547 406.051 109.72 405.646 110.068C405.25 110.405 405.009 110.859 404.922 111.428H409.307C409.23 110.869 408.994 110.415 408.598 110.068C408.203 109.72 407.71 109.547 407.122 109.547ZM416.231 108.099C417.37 108.099 418.238 108.374 418.836 108.924C419.444 109.465 419.748 110.285 419.748 111.385V115.915H418.04V114.974C417.818 115.312 417.5 115.572 417.085 115.755C416.68 115.929 416.188 116.016 415.609 116.016C415.03 116.016 414.523 115.919 414.089 115.726C413.655 115.524 413.317 115.249 413.076 114.902C412.845 114.545 412.729 114.144 412.729 113.7C412.729 113.006 412.985 112.451 413.496 112.036C414.017 111.611 414.832 111.399 415.942 111.399H417.939V111.283C417.939 110.743 417.775 110.328 417.447 110.039C417.128 109.749 416.651 109.605 416.014 109.605C415.58 109.605 415.151 109.672 414.726 109.807C414.311 109.942 413.959 110.13 413.67 110.372L412.96 109.055C413.366 108.746 413.853 108.51 414.422 108.346C414.991 108.182 415.594 108.099 416.231 108.099ZM415.985 114.699C416.439 114.699 416.839 114.598 417.186 114.395C417.543 114.183 417.794 113.884 417.939 113.498V112.6H416.072C415.03 112.6 414.509 112.943 414.509 113.628C414.509 113.956 414.639 114.216 414.9 114.409C415.16 114.602 415.522 114.699 415.985 114.699ZM432.548 108.099C433.522 108.099 434.294 108.384 434.863 108.953C435.432 109.513 435.717 110.357 435.717 111.486V115.915H433.908V111.718C433.908 111.042 433.758 110.536 433.459 110.198C433.16 109.851 432.731 109.677 432.171 109.677C431.564 109.677 431.076 109.88 430.71 110.285C430.343 110.68 430.16 111.25 430.16 111.993V115.915H428.351V111.718C428.351 111.042 428.201 110.536 427.902 110.198C427.603 109.851 427.174 109.677 426.614 109.677C425.996 109.677 425.504 109.875 425.138 110.27C424.781 110.666 424.602 111.24 424.602 111.993V115.915H422.793V108.186H424.515V109.17C424.805 108.823 425.167 108.558 425.601 108.374C426.035 108.191 426.517 108.099 427.048 108.099C427.627 108.099 428.138 108.21 428.582 108.432C429.036 108.645 429.393 108.963 429.653 109.388C429.972 108.982 430.382 108.669 430.883 108.447C431.385 108.215 431.94 108.099 432.548 108.099Z" fill="#9F9F9F"/>
<path d="M191.854 256.075L199.688 242.508L184.021 242.508L191.854 256.075ZM193.211 243.864L193.211 181.302L190.498 181.302L190.498 243.864L193.211 243.864Z" fill="#A41FE2"/>
<path d="M191.854 357.08L199.688 343.513L184.021 343.513L191.854 357.08ZM193.211 344.869L193.211 311.854L190.498 311.854L190.498 344.869L193.211 344.869Z" fill="#A41FE2"/>
<path d="M191.854 127.935L199.688 114.367L184.021 114.367L191.854 127.935ZM193.211 115.724L193.211 82.7085L190.498 82.7085L190.498 115.724L193.211 115.724Z" fill="#A41FE2"/>
</svg>
