<svg width="529" height="602" viewBox="0 0 529 602" fill="none" xmlns="http://www.w3.org/2000/svg">
<path d="M191.854 496.98L199.688 483.412L184.021 483.412L191.854 496.98ZM193.211 412.256C193.211 411.507 192.604 410.9 191.854 410.9C191.105 410.9 190.498 411.507 190.498 412.256L193.211 412.256ZM193.211 484.769L193.211 412.256L190.498 412.256L190.498 484.769L193.211 484.769Z" fill="#A41FE2"/>
<path d="M169.241 483.412V501.503H213.563V483.412" stroke="#A41FE2" stroke-width="2.71357" stroke-linecap="round"/>
<rect x="56.1758" y="518.688" width="259.598" height="54.1809" rx="4.52261" fill="#333037"/>
<path d="M144.039 550.403C143.817 550.567 143.542 550.692 143.214 550.779C142.895 550.856 142.558 550.895 142.201 550.895C141.274 550.895 140.556 550.658 140.044 550.186C139.542 549.713 139.292 549.018 139.292 548.101V544.903H138.09V543.166H139.292V541.271H141.549V543.166H143.489V544.903H141.549V548.073C141.549 548.401 141.631 548.656 141.795 548.84C141.969 549.013 142.21 549.1 142.519 549.1C142.876 549.1 143.18 549.004 143.431 548.811L144.039 550.403ZM148.186 544.02C148.456 543.644 148.818 543.359 149.271 543.166C149.734 542.973 150.265 542.877 150.863 542.877V544.961C150.612 544.942 150.444 544.932 150.357 544.932C149.71 544.932 149.204 545.115 148.837 545.482C148.471 545.839 148.287 546.379 148.287 547.103V550.779H146.029V542.993H148.186V544.02ZM160.789 540.04V550.779H158.633V549.882C158.074 550.557 157.263 550.895 156.202 550.895C155.468 550.895 154.803 550.731 154.205 550.403C153.616 550.075 153.153 549.607 152.815 548.999C152.478 548.391 152.309 547.687 152.309 546.886C152.309 546.085 152.478 545.381 152.815 544.773C153.153 544.165 153.616 543.697 154.205 543.369C154.803 543.041 155.468 542.877 156.202 542.877C157.196 542.877 157.972 543.191 158.532 543.818V540.04H160.789ZM156.593 549.042C157.162 549.042 157.635 548.849 158.011 548.463C158.387 548.068 158.575 547.542 158.575 546.886C158.575 546.23 158.387 545.709 158.011 545.323C157.635 544.927 157.162 544.729 156.593 544.729C156.014 544.729 155.536 544.927 155.16 545.323C154.783 545.709 154.595 546.23 154.595 546.886C154.595 547.542 154.783 548.068 155.16 548.463C155.536 548.849 156.014 549.042 156.593 549.042ZM163.603 540.04H165.86V550.779H163.603V540.04ZM168.39 545.8H172.486V547.609H168.39V545.8ZM178.459 547.827H177.287V550.779H175.029V542.993H177.287V546.017H178.502L180.615 542.993H183.018L180.297 546.727L183.206 550.779H180.543L178.459 547.827ZM192.506 542.993V550.779H190.248V544.845H187.788L187.715 546.22C187.677 547.243 187.58 548.092 187.426 548.767C187.272 549.443 187.021 549.973 186.673 550.359C186.326 550.745 185.844 550.938 185.226 550.938C184.898 550.938 184.507 550.88 184.054 550.764L184.17 548.912C184.324 548.931 184.435 548.941 184.503 548.941C184.84 548.941 185.091 548.82 185.255 548.579C185.429 548.328 185.545 548.015 185.602 547.638C185.66 547.252 185.704 546.746 185.733 546.119L185.849 542.993H192.506ZM195.4 542.993H197.644V547.624L201.435 542.993H203.505V550.779H201.262V546.148L197.485 550.779H195.4V542.993ZM213.968 546.915C213.968 546.944 213.953 547.146 213.925 547.523H208.034C208.14 548.005 208.391 548.386 208.787 548.666C209.182 548.946 209.674 549.086 210.263 549.086C210.668 549.086 211.025 549.028 211.334 548.912C211.652 548.787 211.947 548.594 212.217 548.333L213.418 549.636C212.685 550.475 211.614 550.895 210.205 550.895C209.327 550.895 208.55 550.726 207.875 550.388C207.2 550.041 206.679 549.563 206.312 548.955C205.945 548.348 205.762 547.658 205.762 546.886C205.762 546.124 205.941 545.439 206.298 544.831C206.664 544.213 207.161 543.736 207.788 543.398C208.425 543.051 209.134 542.877 209.916 542.877C210.678 542.877 211.368 543.041 211.985 543.369C212.603 543.697 213.085 544.17 213.432 544.787C213.789 545.395 213.968 546.104 213.968 546.915ZM209.93 544.585C209.419 544.585 208.989 544.729 208.642 545.019C208.295 545.308 208.083 545.704 208.005 546.206H211.841C211.763 545.714 211.551 545.323 211.204 545.033C210.856 544.734 210.432 544.585 209.93 544.585ZM216.422 542.993H218.665V546.032H222.052V542.993H224.31V550.779H222.052V547.87H218.665V550.779H216.422V542.993ZM233.736 544.845H231.102V550.779H228.859V544.845H226.225V542.993H233.736V544.845Z" fill="white"/>
<rect x="56.1758" y="356.176" width="259.598" height="56.0804" rx="4.52261" fill="#333037"/>
<path d="M114.274 380.996H111.032V379.085H119.861V380.996H116.619V389.216H114.274V380.996ZM126.177 389.39C124.73 389.39 123.601 388.989 122.791 388.189C121.99 387.388 121.589 386.244 121.589 384.759V379.085H123.934V384.672C123.934 386.486 124.686 387.393 126.192 387.393C126.925 387.393 127.484 387.175 127.87 386.741C128.256 386.297 128.449 385.608 128.449 384.672V379.085H130.765V384.759C130.765 386.244 130.36 387.388 129.549 388.189C128.748 388.989 127.624 389.39 126.177 389.39ZM136.15 380.967V383.644H140.839V385.526H136.15V389.216H133.805V379.085H141.461V380.967H136.15ZM143.323 384.238H147.419V386.047H143.323V384.238ZM154.55 381.314C155.274 381.314 155.93 381.483 156.518 381.821C157.117 382.149 157.584 382.617 157.922 383.225C158.26 383.823 158.429 384.522 158.429 385.323C158.429 386.124 158.26 386.828 157.922 387.436C157.584 388.034 157.117 388.502 156.518 388.84C155.93 389.168 155.274 389.332 154.55 389.332C153.556 389.332 152.775 389.018 152.206 388.391V392.024H149.948V381.43H152.104V382.327C152.664 381.652 153.479 381.314 154.55 381.314ZM154.159 387.479C154.738 387.479 155.211 387.286 155.578 386.9C155.954 386.505 156.142 385.979 156.142 385.323C156.142 384.667 155.954 384.146 155.578 383.76C155.211 383.364 154.738 383.167 154.159 383.167C153.58 383.167 153.103 383.364 152.727 383.76C152.36 384.146 152.177 384.667 152.177 385.323C152.177 385.979 152.36 386.505 152.727 386.9C153.103 387.286 153.58 387.479 154.159 387.479ZM168.304 385.352C168.304 385.381 168.289 385.584 168.26 385.96H162.37C162.476 386.442 162.727 386.823 163.123 387.103C163.518 387.383 164.01 387.523 164.599 387.523C165.004 387.523 165.361 387.465 165.67 387.349C165.988 387.224 166.282 387.031 166.553 386.77L167.754 388.073C167.02 388.912 165.95 389.332 164.541 389.332C163.663 389.332 162.886 389.163 162.211 388.825C161.535 388.478 161.014 388 160.648 387.393C160.281 386.785 160.098 386.095 160.098 385.323C160.098 384.561 160.276 383.876 160.633 383.268C161 382.65 161.497 382.173 162.124 381.835C162.761 381.488 163.47 381.314 164.251 381.314C165.014 381.314 165.704 381.478 166.321 381.806C166.938 382.134 167.421 382.607 167.768 383.225C168.125 383.832 168.304 384.541 168.304 385.352ZM164.266 383.022C163.755 383.022 163.325 383.167 162.978 383.456C162.631 383.746 162.418 384.141 162.341 384.643H166.176C166.099 384.151 165.887 383.76 165.539 383.471C165.192 383.171 164.768 383.022 164.266 383.022ZM178.501 381.43V389.216H176.243V383.282H173.001V389.216H170.758V381.43H178.501ZM185.036 389.332C184.216 389.332 183.478 389.163 182.822 388.825C182.175 388.478 181.669 388 181.302 387.393C180.935 386.785 180.752 386.095 180.752 385.323C180.752 384.551 180.935 383.861 181.302 383.253C181.669 382.646 182.175 382.173 182.822 381.835C183.478 381.488 184.216 381.314 185.036 381.314C185.856 381.314 186.589 381.488 187.236 381.835C187.882 382.173 188.389 382.646 188.755 383.253C189.122 383.861 189.305 384.551 189.305 385.323C189.305 386.095 189.122 386.785 188.755 387.393C188.389 388 187.882 388.478 187.236 388.825C186.589 389.163 185.856 389.332 185.036 389.332ZM185.036 387.479C185.615 387.479 186.088 387.286 186.454 386.9C186.83 386.505 187.019 385.979 187.019 385.323C187.019 384.667 186.83 384.146 186.454 383.76C186.088 383.364 185.615 383.167 185.036 383.167C184.457 383.167 183.979 383.364 183.603 383.76C183.227 384.146 183.039 384.667 183.039 385.323C183.039 385.979 183.227 386.505 183.603 386.9C183.979 387.286 184.457 387.479 185.036 387.479ZM196.491 385.164C196.954 385.309 197.311 385.53 197.562 385.83C197.823 386.129 197.953 386.486 197.953 386.9C197.953 387.393 197.784 387.827 197.446 388.203C197.109 388.57 196.646 388.854 196.057 389.057C195.469 389.259 194.803 389.361 194.06 389.361C193.452 389.361 192.854 389.298 192.265 389.173C191.677 389.047 191.132 388.859 190.63 388.608L191.238 387.031C192.058 387.426 192.965 387.624 193.959 387.624C194.489 387.624 194.904 387.547 195.203 387.393C195.512 387.229 195.666 387.002 195.666 386.712C195.666 386.461 195.56 386.273 195.348 386.148C195.136 386.013 194.827 385.945 194.422 385.945H192.83V384.541H194.219C194.615 384.541 194.919 384.479 195.131 384.353C195.343 384.228 195.449 384.045 195.449 383.803C195.449 383.553 195.314 383.36 195.044 383.225C194.783 383.089 194.407 383.022 193.915 383.022C193.163 383.022 192.342 383.2 191.455 383.557L190.905 381.994C191.986 381.522 193.037 381.285 194.06 381.285C194.764 381.285 195.391 381.372 195.941 381.546C196.501 381.719 196.94 381.975 197.258 382.313C197.577 382.641 197.736 383.027 197.736 383.471C197.736 383.837 197.625 384.17 197.403 384.469C197.181 384.759 196.877 384.99 196.491 385.164ZM200.319 381.43H202.562V386.061L206.354 381.43H208.423V389.216H206.18V384.585L202.403 389.216H200.319V381.43ZM217.859 383.282H215.225V389.216H212.982V383.282H210.348V381.43H217.859V383.282ZM223.108 389.332C222.288 389.332 221.55 389.163 220.894 388.825C220.247 388.478 219.741 388 219.374 387.393C219.007 386.785 218.824 386.095 218.824 385.323C218.824 384.551 219.007 383.861 219.374 383.253C219.741 382.646 220.247 382.173 220.894 381.835C221.55 381.488 222.288 381.314 223.108 381.314C223.928 381.314 224.661 381.488 225.308 381.835C225.954 382.173 226.461 382.646 226.827 383.253C227.194 383.861 227.377 384.551 227.377 385.323C227.377 386.095 227.194 386.785 226.827 387.393C226.461 388 225.954 388.478 225.308 388.825C224.661 389.163 223.928 389.332 223.108 389.332ZM223.108 387.479C223.687 387.479 224.159 387.286 224.526 386.9C224.902 386.505 225.091 385.979 225.091 385.323C225.091 384.667 224.902 384.146 224.526 383.76C224.159 383.364 223.687 383.167 223.108 383.167C222.529 383.167 222.051 383.364 221.675 383.76C221.299 384.146 221.111 384.667 221.111 385.323C221.111 385.979 221.299 386.505 221.675 386.9C222.051 387.286 222.529 387.479 223.108 387.479ZM234.241 381.314C234.965 381.314 235.621 381.483 236.21 381.821C236.808 382.149 237.276 382.617 237.613 383.225C237.951 383.823 238.12 384.522 238.12 385.323C238.12 386.124 237.951 386.828 237.613 387.436C237.276 388.034 236.808 388.502 236.21 388.84C235.621 389.168 234.965 389.332 234.241 389.332C233.248 389.332 232.466 389.018 231.897 388.391V392.024H229.639V381.43H231.796V382.327C232.355 381.652 233.17 381.314 234.241 381.314ZM233.851 387.479C234.43 387.479 234.902 387.286 235.269 386.9C235.645 386.505 235.833 385.979 235.833 385.323C235.833 384.667 235.645 384.146 235.269 383.76C234.902 383.364 234.43 383.167 233.851 383.167C233.272 383.167 232.794 383.364 232.418 383.76C232.051 384.146 231.868 384.667 231.868 385.323C231.868 385.979 232.051 386.505 232.418 386.9C232.794 387.286 233.272 387.479 233.851 387.479ZM240.426 381.43H242.669V386.061L246.461 381.43H248.53V389.216H246.287V384.585L242.51 389.216H240.426V381.43ZM251.424 381.43H253.668V386.061L257.459 381.43H259.529V389.216H257.286V384.585L253.508 389.216H251.424V381.43ZM255.332 380.591C253.634 380.591 252.78 379.843 252.77 378.347H254.246C254.256 378.685 254.348 378.95 254.521 379.143C254.705 379.327 254.97 379.418 255.317 379.418C255.665 379.418 255.93 379.327 256.113 379.143C256.306 378.95 256.403 378.685 256.403 378.347H257.908C257.898 379.843 257.04 380.591 255.332 380.591Z" fill="white"/>
<mask id="path-7-inside-1_842_2891" fill="white">
<path d="M297.318 377.11C296.992 376.776 296.469 376.647 295.954 376.773C294.384 377.157 292.913 377.174 291.646 376.82C290.434 376.483 289.354 375.798 288.436 374.785C288.133 374.451 287.742 374.266 287.336 374.266C286.929 374.266 286.538 374.451 286.236 374.785C285.284 375.834 284.158 376.531 282.891 376.856C281.659 377.172 280.234 377.144 278.717 376.773C278.201 376.647 277.679 376.776 277.353 377.11C277.105 377.365 276.976 377.722 276.989 378.114C277.11 381.596 277.823 384.628 279.108 387.125C280.707 390.234 283.195 392.55 286.504 394.009C286.735 394.11 287.03 394.166 287.336 394.166C287.642 394.166 287.937 394.11 288.168 394.009C291.518 392.532 294.027 390.176 295.625 387.007C296.872 384.533 297.564 381.541 297.683 378.114C297.697 377.722 297.567 377.365 297.318 377.11Z"/>
</mask>
<path d="M297.318 377.11C296.992 376.776 296.469 376.647 295.954 376.773C294.384 377.157 292.913 377.174 291.646 376.82C290.434 376.483 289.354 375.798 288.436 374.785C288.133 374.451 287.742 374.266 287.336 374.266C286.929 374.266 286.538 374.451 286.236 374.785C285.284 375.834 284.158 376.531 282.891 376.856C281.659 377.172 280.234 377.144 278.717 376.773C278.201 376.647 277.679 376.776 277.353 377.11C277.105 377.365 276.976 377.722 276.989 378.114C277.11 381.596 277.823 384.628 279.108 387.125C280.707 390.234 283.195 392.55 286.504 394.009C286.735 394.11 287.03 394.166 287.336 394.166C287.642 394.166 287.937 394.11 288.168 394.009C291.518 392.532 294.027 390.176 295.625 387.007C296.872 384.533 297.564 381.541 297.683 378.114C297.697 377.722 297.567 377.365 297.318 377.11Z" stroke="#A41FE2" stroke-width="2.71357" mask="url(#path-7-inside-1_842_2891)"/>
<path d="M287.336 379.693L287.336 389.643" stroke="white" stroke-width="1.35678" stroke-linecap="round" stroke-linejoin="round"/>
<rect x="56.1758" y="255.946" width="259.598" height="56.0804" rx="4.52261" fill="#333037"/>
<path d="M140.04 287.66C139.819 287.824 139.544 287.949 139.216 288.036C138.897 288.113 138.559 288.152 138.202 288.152C137.276 288.152 136.557 287.915 136.046 287.443C135.544 286.97 135.294 286.275 135.294 285.359V282.16H134.092V280.424H135.294V278.528H137.551V280.424H139.491V282.16H137.551V285.33C137.551 285.658 137.633 285.913 137.797 286.097C137.971 286.27 138.212 286.357 138.521 286.357C138.878 286.357 139.182 286.261 139.433 286.068L140.04 287.66ZM144.188 281.277C144.458 280.901 144.82 280.616 145.273 280.424C145.736 280.231 146.267 280.134 146.865 280.134V282.218C146.614 282.199 146.446 282.189 146.359 282.189C145.712 282.189 145.206 282.372 144.839 282.739C144.472 283.096 144.289 283.636 144.289 284.36V288.036H142.031V280.25H144.188V281.277ZM156.791 277.298V288.036H154.635V287.139C154.075 287.814 153.265 288.152 152.204 288.152C151.47 288.152 150.805 287.988 150.207 287.66C149.618 287.332 149.155 286.864 148.817 286.256C148.479 285.648 148.311 284.944 148.311 284.143C148.311 283.342 148.479 282.638 148.817 282.03C149.155 281.422 149.618 280.954 150.207 280.626C150.805 280.298 151.47 280.134 152.204 280.134C153.197 280.134 153.974 280.448 154.534 281.075V277.298H156.791ZM152.594 286.299C153.164 286.299 153.636 286.106 154.013 285.72C154.389 285.325 154.577 284.799 154.577 284.143C154.577 283.487 154.389 282.966 154.013 282.58C153.636 282.184 153.164 281.987 152.594 281.987C152.016 281.987 151.538 282.184 151.162 282.58C150.785 282.966 150.597 283.487 150.597 284.143C150.597 284.799 150.785 285.325 151.162 285.72C151.538 286.106 152.016 286.299 152.594 286.299ZM159.605 277.298H161.862V288.036H159.605V277.298ZM164.392 283.058H168.487V284.867H164.392V283.058ZM174.877 288.152C174.047 288.152 173.3 287.983 172.634 287.645C171.978 287.298 171.462 286.82 171.085 286.212C170.719 285.605 170.535 284.915 170.535 284.143C170.535 283.371 170.719 282.681 171.085 282.073C171.462 281.466 171.978 280.993 172.634 280.655C173.3 280.308 174.047 280.134 174.877 280.134C175.697 280.134 176.411 280.308 177.019 280.655C177.637 280.993 178.085 281.48 178.365 282.117L176.614 283.058C176.209 282.344 175.625 281.987 174.863 281.987C174.274 281.987 173.787 282.18 173.401 282.565C173.015 282.951 172.822 283.477 172.822 284.143C172.822 284.809 173.015 285.334 173.401 285.72C173.787 286.106 174.274 286.299 174.863 286.299C175.635 286.299 176.218 285.942 176.614 285.228L178.365 286.184C178.085 286.801 177.637 287.283 177.019 287.631C176.411 287.978 175.697 288.152 174.877 288.152ZM187.931 284.172C187.931 284.201 187.916 284.403 187.887 284.78H181.997C182.103 285.262 182.354 285.643 182.75 285.923C183.145 286.203 183.637 286.343 184.226 286.343C184.631 286.343 184.988 286.285 185.297 286.169C185.615 286.044 185.909 285.851 186.18 285.59L187.381 286.893C186.647 287.732 185.576 288.152 184.168 288.152C183.29 288.152 182.513 287.983 181.838 287.645C181.162 287.298 180.641 286.82 180.275 286.212C179.908 285.605 179.725 284.915 179.725 284.143C179.725 283.381 179.903 282.696 180.26 282.088C180.627 281.47 181.124 280.993 181.751 280.655C182.388 280.308 183.097 280.134 183.878 280.134C184.641 280.134 185.33 280.298 185.948 280.626C186.565 280.954 187.048 281.427 187.395 282.044C187.752 282.652 187.931 283.361 187.931 284.172ZM183.893 281.842C183.382 281.842 182.952 281.987 182.605 282.276C182.257 282.565 182.045 282.961 181.968 283.463H185.803C185.726 282.971 185.514 282.58 185.166 282.29C184.819 281.991 184.395 281.842 183.893 281.842ZM194.973 280.134C195.696 280.134 196.352 280.303 196.941 280.641C197.539 280.969 198.007 281.437 198.345 282.044C198.682 282.643 198.851 283.342 198.851 284.143C198.851 284.944 198.682 285.648 198.345 286.256C198.007 286.854 197.539 287.322 196.941 287.66C196.352 287.988 195.696 288.152 194.973 288.152C193.979 288.152 193.197 287.838 192.628 287.211V290.844H190.37V280.25H192.527V281.147C193.086 280.472 193.902 280.134 194.973 280.134ZM194.582 286.299C195.161 286.299 195.634 286.106 196 285.72C196.376 285.325 196.565 284.799 196.565 284.143C196.565 283.487 196.376 282.966 196 282.58C195.634 282.184 195.161 281.987 194.582 281.987C194.003 281.987 193.525 282.184 193.149 282.58C192.782 282.966 192.599 283.487 192.599 284.143C192.599 284.799 192.782 285.325 193.149 285.72C193.525 286.106 194.003 286.299 194.582 286.299ZM207.105 283.969C208.022 284.278 208.48 284.895 208.48 285.822C208.48 286.526 208.215 287.071 207.684 287.457C207.154 287.843 206.362 288.036 205.311 288.036H201.157V280.25H205.137C206.112 280.25 206.874 280.428 207.424 280.785C207.974 281.133 208.249 281.625 208.249 282.262C208.249 282.647 208.147 282.99 207.945 283.289C207.752 283.579 207.472 283.805 207.105 283.969ZM203.227 283.448H204.934C205.726 283.448 206.121 283.168 206.121 282.609C206.121 282.059 205.726 281.784 204.934 281.784H203.227V283.448ZM205.123 286.502C205.952 286.502 206.367 286.217 206.367 285.648C206.367 285.349 206.271 285.132 206.078 284.997C205.885 284.852 205.581 284.78 205.166 284.78H203.227V286.502H205.123ZM218.453 284.172C218.453 284.201 218.438 284.403 218.409 284.78H212.519C212.625 285.262 212.876 285.643 213.272 285.923C213.667 286.203 214.159 286.343 214.748 286.343C215.153 286.343 215.51 286.285 215.819 286.169C216.137 286.044 216.431 285.851 216.701 285.59L217.903 286.893C217.169 287.732 216.098 288.152 214.69 288.152C213.812 288.152 213.035 287.983 212.36 287.645C211.684 287.298 211.163 286.82 210.797 286.212C210.43 285.605 210.247 284.915 210.247 284.143C210.247 283.381 210.425 282.696 210.782 282.088C211.149 281.47 211.646 280.993 212.273 280.655C212.91 280.308 213.619 280.134 214.4 280.134C215.163 280.134 215.852 280.298 216.47 280.626C217.087 280.954 217.57 281.427 217.917 282.044C218.274 282.652 218.453 283.361 218.453 284.172ZM214.415 281.842C213.903 281.842 213.474 281.987 213.127 282.276C212.779 282.565 212.567 282.961 212.49 283.463H216.325C216.248 282.971 216.036 282.58 215.688 282.29C215.341 281.991 214.917 281.842 214.415 281.842ZM225.495 280.134C226.218 280.134 226.874 280.303 227.463 280.641C228.061 280.969 228.529 281.437 228.867 282.044C229.204 282.643 229.373 283.342 229.373 284.143C229.373 284.944 229.204 285.648 228.867 286.256C228.529 286.854 228.061 287.322 227.463 287.66C226.874 287.988 226.218 288.152 225.495 288.152C224.501 288.152 223.719 287.838 223.15 287.211V290.844H220.892V280.25H223.049V281.147C223.608 280.472 224.424 280.134 225.495 280.134ZM225.104 286.299C225.683 286.299 226.155 286.106 226.522 285.72C226.898 285.325 227.087 284.799 227.087 284.143C227.087 283.487 226.898 282.966 226.522 282.58C226.155 282.184 225.683 281.987 225.104 281.987C224.525 281.987 224.047 282.184 223.671 282.58C223.304 282.966 223.121 283.487 223.121 284.143C223.121 284.799 223.304 285.325 223.671 285.72C224.047 286.106 224.525 286.299 225.104 286.299Z" fill="white"/>
<path d="M294.529 279.662C294.579 278.989 294.49 278.314 294.267 277.677C294.045 277.04 293.693 276.456 293.235 275.961C292.777 275.467 292.222 275.071 291.604 274.8C290.987 274.53 290.32 274.389 289.645 274.387C288.971 274.385 288.304 274.522 287.684 274.79C287.065 275.057 286.508 275.449 286.047 275.942C285.586 276.434 285.232 277.016 285.006 277.651C284.78 278.287 284.687 278.962 284.733 279.635L286.297 279.527C286.265 279.069 286.328 278.609 286.482 278.177C286.636 277.744 286.877 277.348 287.191 277.013C287.505 276.677 287.884 276.41 288.306 276.228C288.727 276.046 289.182 275.953 289.641 275.954C290.1 275.955 290.554 276.051 290.975 276.236C291.395 276.42 291.773 276.689 292.085 277.026C292.397 277.363 292.636 277.761 292.788 278.194C292.939 278.628 293 279.088 292.966 279.545L294.529 279.662Z" fill="#A41FE2"/>
<rect x="282.123" y="279.534" width="14.8827" height="13.7227" rx="3.84422" stroke="#A41FE2" stroke-width="1.35678"/>
<circle cx="289.72" cy="284.779" r="1.89434" fill="white"/>
<rect x="288.773" y="284.78" width="1.89434" height="4.73584" rx="0.904523" fill="white"/>
<path d="M275.355 284.076L275.355 288.681M275.355 292.776L275.355 288.681M275.355 288.681H277.965" stroke="white" stroke-width="1.35678" stroke-linecap="round" stroke-linejoin="round"/>
<path d="M275.645 291.616H277.964" stroke="white" stroke-width="1.35678" stroke-linecap="round" stroke-linejoin="round"/>
<rect x="272.263" y="279.534" width="6.18296" height="4.44302" rx="2.22151" stroke="white" stroke-width="1.35678" stroke-linejoin="round"/>
<rect x="56.1758" y="127.202" width="259.598" height="54.2714" rx="4.52261" fill="#333037"/>
<path d="M145.524 159.466C144.492 159.466 143.556 159.244 142.716 158.8C141.887 158.347 141.231 157.724 140.748 156.933C140.275 156.133 140.039 155.23 140.039 154.227C140.039 153.224 140.275 152.326 140.748 151.535C141.231 150.734 141.887 150.112 142.716 149.668C143.556 149.215 144.497 148.988 145.539 148.988C146.417 148.988 147.208 149.142 147.912 149.451C148.626 149.76 149.224 150.204 149.707 150.783L148.201 152.172C147.516 151.381 146.667 150.985 145.654 150.985C145.027 150.985 144.468 151.125 143.976 151.405C143.483 151.675 143.098 152.056 142.818 152.548C142.548 153.04 142.412 153.6 142.412 154.227C142.412 154.854 142.548 155.414 142.818 155.906C143.098 156.398 143.483 156.784 143.976 157.064C144.468 157.334 145.027 157.469 145.654 157.469C146.667 157.469 147.516 157.068 148.201 156.268L149.707 157.657C149.224 158.245 148.626 158.694 147.912 159.003C147.198 159.312 146.402 159.466 145.524 159.466ZM152.013 149.162H154.358V159.292H152.013V149.162ZM157.037 154.314H161.133V156.123H157.037V154.314ZM167.522 159.408C166.693 159.408 165.945 159.239 165.279 158.902C164.623 158.554 164.107 158.077 163.731 157.469C163.364 156.861 163.181 156.171 163.181 155.399C163.181 154.627 163.364 153.938 163.731 153.33C164.107 152.722 164.623 152.249 165.279 151.911C165.945 151.564 166.693 151.39 167.522 151.39C168.343 151.39 169.057 151.564 169.664 151.911C170.282 152.249 170.731 152.736 171.01 153.373L169.259 154.314C168.854 153.6 168.27 153.243 167.508 153.243C166.919 153.243 166.432 153.436 166.046 153.822C165.66 154.208 165.467 154.734 165.467 155.399C165.467 156.065 165.66 156.591 166.046 156.977C166.432 157.363 166.919 157.556 167.508 157.556C168.28 157.556 168.864 157.199 169.259 156.485L171.01 157.44C170.731 158.057 170.282 158.54 169.664 158.887C169.057 159.234 168.343 159.408 167.522 159.408ZM173.106 151.506H175.349V156.137L179.141 151.506H181.21V159.292H178.967V154.661L175.19 159.292H173.106V151.506ZM187.809 159.408C186.979 159.408 186.232 159.239 185.566 158.902C184.91 158.554 184.394 158.077 184.017 157.469C183.651 156.861 183.468 156.171 183.468 155.399C183.468 154.627 183.651 153.938 184.017 153.33C184.394 152.722 184.91 152.249 185.566 151.911C186.232 151.564 186.979 151.39 187.809 151.39C188.629 151.39 189.343 151.564 189.951 151.911C190.569 152.249 191.017 152.736 191.297 153.373L189.546 154.314C189.141 153.6 188.557 153.243 187.795 153.243C187.206 153.243 186.719 153.436 186.333 153.822C185.947 154.208 185.754 154.734 185.754 155.399C185.754 156.065 185.947 156.591 186.333 156.977C186.719 157.363 187.206 157.556 187.795 157.556C188.567 157.556 189.15 157.199 189.546 156.485L191.297 157.44C191.017 158.057 190.569 158.54 189.951 158.887C189.343 159.234 188.629 159.408 187.809 159.408ZM199.906 153.359H197.272V159.292H195.029V153.359H192.395V151.506H199.906V153.359ZM209.077 155.428C209.077 155.457 209.062 155.66 209.034 156.036H203.143C203.249 156.518 203.5 156.9 203.896 157.179C204.291 157.459 204.783 157.599 205.372 157.599C205.777 157.599 206.134 157.541 206.443 157.425C206.761 157.3 207.056 157.107 207.326 156.846L208.527 158.149C207.794 158.988 206.723 159.408 205.314 159.408C204.436 159.408 203.659 159.239 202.984 158.902C202.309 158.554 201.788 158.077 201.421 157.469C201.054 156.861 200.871 156.171 200.871 155.399C200.871 154.637 201.05 153.952 201.407 153.344C201.773 152.727 202.27 152.249 202.897 151.911C203.534 151.564 204.243 151.39 205.025 151.39C205.787 151.39 206.477 151.554 207.094 151.882C207.712 152.21 208.194 152.683 208.541 153.301C208.898 153.909 209.077 154.618 209.077 155.428ZM205.039 153.098C204.528 153.098 204.098 153.243 203.751 153.532C203.404 153.822 203.192 154.217 203.114 154.719H206.95C206.872 154.227 206.66 153.836 206.313 153.547C205.965 153.248 205.541 153.098 205.039 153.098ZM219.129 159.292V154.632L216.799 158.54H215.844L213.572 154.618V159.292H211.531V151.506H213.89L216.379 156.007L219.028 151.506H221.141L221.17 159.292H219.129ZM227.081 151.39C228.287 151.39 229.213 151.68 229.859 152.259C230.506 152.828 230.829 153.692 230.829 154.849V159.292H228.716V158.323C228.292 159.046 227.5 159.408 226.343 159.408C225.744 159.408 225.223 159.307 224.78 159.104C224.345 158.902 224.013 158.622 223.781 158.265C223.549 157.908 223.434 157.503 223.434 157.049C223.434 156.325 223.704 155.756 224.244 155.341C224.794 154.926 225.638 154.719 226.777 154.719H228.571C228.571 154.227 228.422 153.851 228.123 153.59C227.824 153.32 227.375 153.185 226.777 153.185C226.362 153.185 225.952 153.253 225.547 153.388C225.151 153.513 224.813 153.687 224.534 153.909L223.723 152.331C224.148 152.032 224.654 151.8 225.243 151.636C225.841 151.472 226.454 151.39 227.081 151.39ZM226.907 157.888C227.293 157.888 227.635 157.802 227.935 157.628C228.234 157.445 228.446 157.179 228.571 156.832V156.036H227.023C226.097 156.036 225.633 156.34 225.633 156.948C225.633 157.237 225.744 157.469 225.966 157.642C226.198 157.806 226.511 157.888 226.907 157.888Z" fill="white"/>
<rect x="56.1758" y="23.9146" width="259.598" height="58.9657" rx="4.52261" fill="#333037"/>
<path d="M191.394 49.7616C190.195 49.7616 189.316 50.3413 189.316 51.7607C189.316 52.8202 189.896 53.5598 191.334 53.5598C192.553 53.5598 193.372 52.8402 193.372 51.7207C193.372 50.4413 192.633 49.7616 191.394 49.7616ZM188.997 59.737C188.717 60.0768 188.437 60.4566 188.437 60.8964C188.437 61.756 189.536 62.0359 191.074 62.0359C192.333 62.0359 194.051 61.9559 194.051 60.7765C194.051 60.0768 193.232 60.0368 192.173 59.9768L188.997 59.737ZM195.429 49.8216C195.829 50.3213 196.228 51.021 196.228 52.0205C196.228 54.4394 194.331 55.8388 191.594 55.8388C190.895 55.8388 190.275 55.7588 189.876 55.6389L189.157 56.7983L191.294 56.9383C195.05 57.1781 197.267 57.2781 197.267 60.1767C197.267 62.6756 195.07 64.0949 191.294 64.0949C187.359 64.0949 185.86 63.0954 185.86 61.3762C185.86 60.3966 186.3 59.8769 187.059 59.1572C186.34 58.8574 186.1 58.3176 186.1 57.7179C186.1 57.2381 186.34 56.7983 186.739 56.3985C187.139 55.9787 187.558 55.5789 188.078 55.0991C187.019 54.5793 186.2 53.4399 186.2 51.8406C186.2 49.3418 187.858 47.6226 191.174 47.6226C192.113 47.6226 192.673 47.7025 193.172 47.8425H197.407V49.6816L195.429 49.8216Z" fill="white"/>
<path d="M201.263 45.8832C200.024 45.8832 199.305 45.1636 199.305 43.9241C199.305 42.6847 200.024 42.005 201.263 42.005C202.522 42.005 203.241 42.6847 203.241 43.9241C203.241 45.1636 202.522 45.8832 201.263 45.8832ZM198.446 58.9372V57.218L199.565 57.058C199.865 57.0181 199.905 56.9581 199.905 56.6182V50.2212C199.905 49.9813 199.845 49.8214 199.625 49.7614L198.446 49.3416L198.686 47.5824H203.181V56.5982C203.181 56.9381 203.201 56.9981 203.52 57.038L204.619 57.198V58.9172L198.446 58.9372Z" fill="white"/>
<path d="M213.251 58.0975C212.312 58.5573 210.953 58.9571 209.715 58.9571C207.138 58.9571 206.159 57.9175 206.159 55.4587V49.7813C206.159 49.6414 206.159 49.5614 205.979 49.5614H204.461V47.6223C206.379 47.4024 207.138 46.4429 207.378 44.084H209.435V47.1825C209.435 47.3425 209.435 47.4024 209.615 47.4024H212.652V49.5814H209.415V54.779C209.415 56.0584 209.715 56.5582 210.894 56.5582C211.493 56.5582 212.132 56.3983 212.652 56.2183L213.251 58.0975Z" fill="white"/>
<path d="M181.048 52.4005L171.099 42.4452C170.52 41.8654 169.601 41.8654 169.021 42.4452L166.964 44.5242L169.581 47.143C170.18 46.9431 170.879 47.083 171.379 47.5628C171.858 48.0426 171.998 48.7622 171.798 49.362L174.315 51.8808C174.935 51.6609 175.634 51.8008 176.113 52.3006C176.792 52.9803 176.792 54.0798 176.113 54.7594C175.434 55.4391 174.335 55.4391 173.656 54.7594C173.137 54.2397 173.017 53.5 173.276 52.8603L170.919 50.5214V56.7185C171.079 56.7985 171.239 56.9184 171.379 57.0584C172.058 57.7381 172.058 58.8376 171.379 59.5172C170.699 60.1969 169.601 60.1969 168.921 59.5172C168.242 58.8376 168.242 57.7381 168.921 57.0584C169.081 56.8985 169.281 56.7585 169.501 56.6786V50.4015C169.301 50.3215 169.101 50.1816 168.921 50.0216C168.402 49.5019 168.282 48.7422 168.542 48.1225L165.965 45.5237L159.133 52.3406C158.553 52.9203 158.553 53.8399 159.133 54.4196L169.061 64.355C169.641 64.9347 170.56 64.9347 171.139 64.355L181.028 54.4596C181.607 53.8998 181.607 52.9603 181.048 52.4005Z" fill="#F05133"/>
<path d="M230.749 490.648H365.523C370.019 490.648 373.663 494.293 373.663 498.789V527.281M150.246 490.648H9.1407C4.64472 490.648 1 494.293 1 498.789V592.859C1 597.355 4.64473 601 9.14072 601H287.281H365.523C370.019 601 373.663 597.355 373.663 592.859V570.397" stroke="#9F9F9F" stroke-width="0.678392" stroke-linecap="square" stroke-linejoin="round" stroke-dasharray="4.52 4.52"/>
<path d="M362.509 551.779L384.82 551.779" stroke="#9F9F9F" stroke-width="1.35678"/>
<rect x="361.981" y="537.759" width="23.3668" height="17.6382" rx="2.33668" stroke="#9F9F9F" stroke-width="1.35678"/>
<path d="M372.27 555.472H375.361C376.43 555.472 377.456 555.896 378.212 556.65C378.968 557.404 379.393 558.426 379.393 559.492V560.296H368.237V559.492C368.237 558.426 368.662 557.404 369.418 556.65C370.174 555.896 371.2 555.472 372.27 555.472V555.472Z" stroke="#9F9F9F" stroke-width="1.35678" stroke-miterlimit="10"/>
<path d="M406.367 541.854V551.985H404.514V543.446H399.261V551.985H397.408V541.854H406.367ZM413.189 552.086C412.407 552.086 411.703 551.917 411.076 551.58C410.449 551.242 409.957 550.774 409.6 550.176C409.252 549.568 409.079 548.883 409.079 548.121C409.079 547.359 409.252 546.678 409.6 546.08C409.957 545.482 410.449 545.014 411.076 544.676C411.703 544.339 412.407 544.17 413.189 544.17C413.98 544.17 414.689 544.339 415.316 544.676C415.943 545.014 416.431 545.482 416.778 546.08C417.135 546.678 417.313 547.359 417.313 548.121C417.313 548.883 417.135 549.568 416.778 550.176C416.431 550.774 415.943 551.242 415.316 551.58C414.689 551.917 413.98 552.086 413.189 552.086ZM413.189 550.538C413.854 550.538 414.404 550.316 414.839 549.872C415.273 549.428 415.49 548.844 415.49 548.121C415.49 547.397 415.273 546.813 414.839 546.37C414.404 545.926 413.854 545.704 413.189 545.704C412.523 545.704 411.973 545.926 411.539 546.37C411.114 546.813 410.902 547.397 410.902 548.121C410.902 548.844 411.114 549.428 411.539 549.872C411.973 550.316 412.523 550.538 413.189 550.538ZM426.744 544.257V551.985H424.935V545.791H422.04L421.968 547.325C421.92 548.348 421.823 549.206 421.679 549.901C421.544 550.586 421.307 551.131 420.969 551.536C420.641 551.932 420.188 552.13 419.609 552.13C419.339 552.13 419.006 552.077 418.61 551.97L418.697 550.451C418.832 550.48 418.948 550.494 419.045 550.494C419.411 550.494 419.686 550.35 419.87 550.06C420.053 549.761 420.169 549.409 420.217 549.004C420.275 548.589 420.323 548 420.362 547.238L420.492 544.257H426.744ZM433.782 546.804C434.767 546.804 435.519 547.026 436.04 547.47C436.571 547.913 436.836 548.541 436.836 549.351C436.836 550.2 436.547 550.856 435.968 551.319C435.389 551.782 434.574 552.009 433.522 551.999L429.904 551.985V544.257H431.713V546.789L433.782 546.804ZM433.363 550.668C433.893 550.678 434.299 550.567 434.578 550.335C434.858 550.104 434.998 549.766 434.998 549.322C434.998 548.888 434.863 548.569 434.593 548.367C434.323 548.164 433.913 548.058 433.363 548.048L431.713 548.034V550.653L433.363 550.668ZM443.625 547.962C444.108 548.097 444.479 548.319 444.74 548.627C445.01 548.926 445.145 549.288 445.145 549.713C445.145 550.186 444.986 550.605 444.667 550.972C444.349 551.329 443.91 551.609 443.35 551.811C442.791 552.014 442.154 552.115 441.44 552.115C440.842 552.115 440.258 552.048 439.689 551.913C439.119 551.768 438.603 551.565 438.14 551.305L438.661 549.959C439.037 550.171 439.462 550.335 439.935 550.451C440.407 550.567 440.88 550.625 441.353 550.625C441.961 550.625 442.434 550.533 442.771 550.35C443.119 550.157 443.292 549.896 443.292 549.568C443.292 549.269 443.157 549.037 442.887 548.873C442.627 548.709 442.255 548.627 441.773 548.627H440.268V547.412H441.628C442.081 547.412 442.434 547.334 442.684 547.18C442.945 547.026 443.075 546.809 443.075 546.529C443.075 546.249 442.921 546.027 442.612 545.863C442.303 545.699 441.879 545.617 441.339 545.617C440.567 545.617 439.751 545.805 438.893 546.182L438.43 544.85C439.443 544.377 440.465 544.141 441.498 544.141C442.154 544.141 442.742 544.233 443.263 544.416C443.784 544.59 444.19 544.84 444.479 545.168C444.778 545.487 444.928 545.853 444.928 546.268C444.928 546.645 444.812 546.982 444.58 547.281C444.349 547.571 444.03 547.798 443.625 547.962ZM451.19 552.086C450.409 552.086 449.704 551.917 449.077 551.58C448.45 551.242 447.958 550.774 447.601 550.176C447.254 549.568 447.08 548.883 447.08 548.121C447.08 547.359 447.254 546.678 447.601 546.08C447.958 545.482 448.45 545.014 449.077 544.676C449.704 544.339 450.409 544.17 451.19 544.17C451.981 544.17 452.69 544.339 453.317 544.676C453.945 545.014 454.432 545.482 454.779 546.08C455.136 546.678 455.315 547.359 455.315 548.121C455.315 548.883 455.136 549.568 454.779 550.176C454.432 550.774 453.945 551.242 453.317 551.58C452.69 551.917 451.981 552.086 451.19 552.086ZM451.19 550.538C451.856 550.538 452.406 550.316 452.84 549.872C453.274 549.428 453.491 548.844 453.491 548.121C453.491 547.397 453.274 546.813 452.84 546.37C452.406 545.926 451.856 545.704 451.19 545.704C450.524 545.704 449.974 545.926 449.54 546.37C449.116 546.813 448.903 547.397 448.903 548.121C448.903 548.844 449.116 549.428 449.54 549.872C449.974 550.316 450.524 550.538 451.19 550.538ZM463.426 547.962C464.381 548.251 464.859 548.869 464.859 549.814C464.859 550.509 464.598 551.044 464.077 551.421C463.556 551.797 462.785 551.985 461.762 551.985H457.825V544.257H461.603C462.548 544.257 463.286 544.43 463.817 544.778C464.348 545.125 464.613 545.617 464.613 546.254C464.613 546.649 464.507 546.992 464.295 547.281C464.092 547.571 463.802 547.798 463.426 547.962ZM459.548 547.484H461.443C462.379 547.484 462.847 547.161 462.847 546.514C462.847 545.887 462.379 545.574 461.443 545.574H459.548V547.484ZM461.617 550.668C462.611 550.668 463.108 550.345 463.108 549.698C463.108 549.361 462.992 549.11 462.76 548.946C462.529 548.772 462.167 548.685 461.675 548.685H459.548V550.668H461.617ZM470.389 544.17C471.528 544.17 472.396 544.445 472.994 544.995C473.602 545.535 473.906 546.355 473.906 547.455V551.985H472.198V551.044C471.977 551.382 471.658 551.642 471.243 551.826C470.838 551.999 470.346 552.086 469.767 552.086C469.188 552.086 468.682 551.99 468.248 551.797C467.813 551.594 467.476 551.319 467.234 550.972C467.003 550.615 466.887 550.214 466.887 549.771C466.887 549.076 467.143 548.521 467.654 548.106C468.175 547.682 468.99 547.47 470.1 547.47H472.097V547.354C472.097 546.813 471.933 546.399 471.605 546.109C471.287 545.82 470.809 545.675 470.172 545.675C469.738 545.675 469.309 545.743 468.884 545.878C468.469 546.013 468.117 546.201 467.828 546.442L467.119 545.125C467.524 544.816 468.011 544.58 468.58 544.416C469.15 544.252 469.753 544.17 470.389 544.17ZM470.143 550.769C470.597 550.769 470.997 550.668 471.345 550.465C471.702 550.253 471.952 549.954 472.097 549.568V548.671H470.23C469.188 548.671 468.667 549.013 468.667 549.698C468.667 550.026 468.797 550.287 469.058 550.48C469.318 550.673 469.68 550.769 470.143 550.769ZM482.99 545.791H480.284V551.985H478.475V545.791H475.754V544.257H482.99V545.791ZM491.923 548.164C491.923 548.29 491.913 548.468 491.894 548.7H485.83C485.936 549.269 486.211 549.722 486.655 550.06C487.109 550.388 487.668 550.552 488.334 550.552C489.183 550.552 489.882 550.272 490.432 549.713L491.402 550.827C491.055 551.242 490.616 551.556 490.085 551.768C489.554 551.98 488.956 552.086 488.29 552.086C487.441 552.086 486.694 551.917 486.047 551.58C485.401 551.242 484.899 550.774 484.542 550.176C484.195 549.568 484.021 548.883 484.021 548.121C484.021 547.368 484.19 546.693 484.528 546.095C484.875 545.487 485.353 545.014 485.96 544.676C486.568 544.339 487.253 544.17 488.016 544.17C488.768 544.17 489.439 544.339 490.027 544.676C490.625 545.004 491.088 545.472 491.417 546.08C491.754 546.678 491.923 547.373 491.923 548.164ZM488.016 545.617C487.437 545.617 486.945 545.791 486.539 546.138C486.144 546.476 485.903 546.929 485.816 547.498H490.201C490.124 546.939 489.887 546.485 489.492 546.138C489.096 545.791 488.604 545.617 488.016 545.617ZM501.531 544.257V551.985H499.722V545.791H496.827L496.755 547.325C496.707 548.348 496.61 549.206 496.466 549.901C496.331 550.586 496.094 551.131 495.757 551.536C495.428 551.932 494.975 552.13 494.396 552.13C494.126 552.13 493.793 552.077 493.398 551.97L493.484 550.451C493.619 550.48 493.735 550.494 493.832 550.494C494.198 550.494 494.473 550.35 494.657 550.06C494.84 549.761 494.956 549.409 495.004 549.004C495.062 548.589 495.11 548 495.149 547.238L495.279 544.257H501.531ZM508.57 546.804C509.554 546.804 510.306 547.026 510.827 547.47C511.358 547.913 511.623 548.541 511.623 549.351C511.623 550.2 511.334 550.856 510.755 551.319C510.176 551.782 509.361 552.009 508.309 551.999L504.691 551.985V544.257H506.5V546.789L508.57 546.804ZM508.15 550.668C508.68 550.678 509.086 550.567 509.366 550.335C509.645 550.104 509.785 549.766 509.785 549.322C509.785 548.888 509.65 548.569 509.38 548.367C509.11 548.164 508.7 548.058 508.15 548.048L506.5 548.034V550.653L508.15 550.668Z" fill="#9F9F9F"/>
<path d="M212.658 236.176H365.523C370.019 236.176 373.663 239.821 373.663 244.317V312.005M168.337 236.176H9.1407C4.64472 236.176 1 239.821 1 244.317V428.839C1 433.335 4.64471 436.98 9.14069 436.98H168.337M212.658 436.98H365.523C370.019 436.98 373.663 433.335 373.663 428.839V361.151" stroke="#9F9F9F" stroke-width="1.35678"/>
<path d="M373.594 338.511C377.193 338.511 380.11 335.581 380.11 331.967C380.11 328.352 377.193 325.422 373.594 325.422C369.995 325.422 367.078 328.352 367.078 331.967C367.078 335.581 369.995 338.511 373.594 338.511Z" stroke="#9F9F9F" stroke-width="1.35678" stroke-miterlimit="10"/>
<path d="M370.355 338.615H376.834C379.076 338.615 381.225 339.51 382.81 341.102C384.395 342.694 385.286 344.853 385.286 347.104V348.802H361.903V347.104C361.903 344.853 362.794 342.694 364.379 341.102C365.964 339.51 368.113 338.615 370.355 338.615V338.615Z" stroke="#9F9F9F" stroke-width="1.35678" stroke-miterlimit="10"/>
<path d="M370.074 338.686L373.877 342.86L377.751 338.686" stroke="#9F9F9F" stroke-width="1.35678" stroke-miterlimit="10"/>
<path d="M404.109 340.093H399.044L398.045 342.437H396.106L400.665 332.307H402.517L407.09 342.437H405.122L404.109 340.093ZM403.487 338.616L401.576 334.188L399.681 338.616H403.487ZM417.485 340.903V344.159H415.792V342.437H409.829V344.159H408.15V340.903H408.512C409.004 340.884 409.337 340.57 409.511 339.962C409.694 339.345 409.814 338.477 409.872 337.357L409.974 334.709H416.341V340.903H417.485ZM411.522 337.488C411.484 338.375 411.411 339.099 411.305 339.658C411.199 340.218 411.006 340.633 410.726 340.903H414.532V336.243H411.566L411.522 337.488ZM427.422 342.437V337.314L424.817 341.627H424.036L421.474 337.299V342.437H419.824V334.709H421.72L424.47 339.543L427.35 334.709H429.043L429.057 342.437H427.422ZM432.208 334.709H434.017V339.803L438.286 334.709H439.936V342.437H438.127V337.343L433.872 342.437H432.208V334.709ZM443.093 334.709H444.902V337.849H448.795V334.709H450.604V342.437H448.795V339.383H444.902V342.437H443.093V334.709ZM453.752 334.709H455.561V339.803L459.831 334.709H461.48V342.437H459.671V337.343L455.417 342.437H453.752V334.709ZM468.154 342.538C467.354 342.538 466.635 342.37 465.998 342.032C465.361 341.694 464.864 341.226 464.507 340.628C464.15 340.02 463.972 339.335 463.972 338.573C463.972 337.811 464.15 337.131 464.507 336.532C464.864 335.934 465.356 335.466 465.983 335.129C466.62 334.791 467.344 334.622 468.154 334.622C468.917 334.622 469.582 334.776 470.152 335.085C470.73 335.394 471.165 335.838 471.454 336.417L470.065 337.227C469.843 336.87 469.563 336.605 469.225 336.431C468.897 336.248 468.535 336.156 468.14 336.156C467.464 336.156 466.905 336.378 466.461 336.822C466.017 337.256 465.795 337.84 465.795 338.573C465.795 339.306 466.012 339.895 466.447 340.339C466.89 340.773 467.455 340.99 468.14 340.99C468.535 340.99 468.897 340.903 469.225 340.729C469.563 340.546 469.843 340.276 470.065 339.919L471.454 340.729C471.155 341.308 470.716 341.757 470.137 342.075C469.568 342.384 468.907 342.538 468.154 342.538ZM479.822 336.243H477.115V342.437H475.306V336.243H472.585V334.709H479.822V336.243ZM486.141 334.622C486.894 334.622 487.564 334.786 488.153 335.114C488.751 335.442 489.219 335.905 489.557 336.503C489.894 337.102 490.063 337.792 490.063 338.573C490.063 339.355 489.894 340.049 489.557 340.657C489.219 341.255 488.751 341.718 488.153 342.046C487.564 342.374 486.894 342.538 486.141 342.538C485.099 342.538 484.274 342.191 483.666 341.496V345.245H481.857V334.709H483.58V335.722C483.879 335.355 484.245 335.08 484.68 334.897C485.123 334.714 485.611 334.622 486.141 334.622ZM485.939 340.99C486.604 340.99 487.149 340.768 487.574 340.324C488.008 339.88 488.225 339.297 488.225 338.573C488.225 337.849 488.008 337.266 487.574 336.822C487.149 336.378 486.604 336.156 485.939 336.156C485.504 336.156 485.114 336.257 484.766 336.46C484.419 336.653 484.144 336.933 483.941 337.299C483.739 337.666 483.638 338.091 483.638 338.573C483.638 339.055 483.739 339.48 483.941 339.847C484.144 340.213 484.419 340.498 484.766 340.7C485.114 340.893 485.504 340.99 485.939 340.99ZM495.368 334.622C496.507 334.622 497.375 334.897 497.973 335.447C498.581 335.987 498.885 336.807 498.885 337.907V342.437H497.177V341.496C496.956 341.834 496.637 342.095 496.222 342.278C495.817 342.452 495.325 342.538 494.746 342.538C494.167 342.538 493.661 342.442 493.226 342.249C492.792 342.046 492.455 341.771 492.213 341.424C491.982 341.067 491.866 340.667 491.866 340.223C491.866 339.528 492.122 338.973 492.633 338.559C493.154 338.134 493.969 337.922 495.079 337.922H497.076V337.806C497.076 337.266 496.912 336.851 496.584 336.561C496.266 336.272 495.788 336.127 495.151 336.127C494.717 336.127 494.288 336.195 493.863 336.33C493.448 336.465 493.096 336.653 492.807 336.894L492.098 335.577C492.503 335.269 492.99 335.032 493.559 334.868C494.129 334.704 494.732 334.622 495.368 334.622ZM495.122 341.221C495.576 341.221 495.976 341.12 496.324 340.918C496.681 340.705 496.931 340.406 497.076 340.02V339.123H495.209C494.167 339.123 493.646 339.466 493.646 340.151C493.646 340.479 493.776 340.739 494.037 340.932C494.297 341.125 494.659 341.221 495.122 341.221ZM507.969 336.243H505.263V342.437H503.454V336.243H500.733V334.709H507.969V336.243ZM513.11 342.538C512.329 342.538 511.624 342.37 510.997 342.032C510.37 341.694 509.878 341.226 509.521 340.628C509.174 340.02 509 339.335 509 338.573C509 337.811 509.174 337.131 509.521 336.532C509.878 335.934 510.37 335.466 510.997 335.129C511.624 334.791 512.329 334.622 513.11 334.622C513.901 334.622 514.611 334.791 515.238 335.129C515.865 335.466 516.352 335.934 516.699 336.532C517.056 337.131 517.235 337.811 517.235 338.573C517.235 339.335 517.056 340.02 516.699 340.628C516.352 341.226 515.865 341.694 515.238 342.032C514.611 342.37 513.901 342.538 513.11 342.538ZM513.11 340.99C513.776 340.99 514.326 340.768 514.76 340.324C515.194 339.88 515.411 339.297 515.411 338.573C515.411 337.849 515.194 337.266 514.76 336.822C514.326 336.378 513.776 336.156 513.11 336.156C512.445 336.156 511.895 336.378 511.46 336.822C511.036 337.266 510.824 337.849 510.824 338.573C510.824 339.297 511.036 339.88 511.46 340.324C511.895 340.768 512.445 340.99 513.11 340.99ZM524.029 334.622C524.782 334.622 525.453 334.786 526.041 335.114C526.639 335.442 527.107 335.905 527.445 336.503C527.783 337.102 527.951 337.792 527.951 338.573C527.951 339.355 527.783 340.049 527.445 340.657C527.107 341.255 526.639 341.718 526.041 342.046C525.453 342.374 524.782 342.538 524.029 342.538C522.987 342.538 522.162 342.191 521.555 341.496V345.245H519.746V334.709H521.468V335.722C521.767 335.355 522.134 335.08 522.568 334.897C523.012 334.714 523.499 334.622 524.029 334.622ZM523.827 340.99C524.493 340.99 525.038 340.768 525.462 340.324C525.896 339.88 526.113 339.297 526.113 338.573C526.113 337.849 525.896 337.266 525.462 336.822C525.038 336.378 524.493 336.156 523.827 336.156C523.393 336.156 523.002 336.257 522.655 336.46C522.307 336.653 522.032 336.933 521.83 337.299C521.627 337.666 521.526 338.091 521.526 338.573C521.526 339.055 521.627 339.48 521.83 339.847C522.032 340.213 522.307 340.498 522.655 340.7C523.002 340.893 523.393 340.99 523.827 340.99Z" fill="#9F9F9F"/>
<path d="M212.658 201.804H365.523C370.019 201.804 373.663 198.159 373.663 193.663V125.975M373.663 76.8292V9.1407C373.663 4.64472 370.019 1 365.523 1H9.1407C4.64472 1 1 4.64471 1 9.1407V193.663C1 198.159 4.64471 201.804 9.14069 201.804H168.337" stroke="#9F9F9F" stroke-width="1.35678"/>
<path d="M373.594 103.335C377.193 103.335 380.11 100.405 380.11 96.7908C380.11 93.1763 377.193 90.2462 373.594 90.2462C369.995 90.2462 367.078 93.1763 367.078 96.7908C367.078 100.405 369.995 103.335 373.594 103.335Z" stroke="#9F9F9F" stroke-width="1.35678" stroke-miterlimit="10"/>
<path d="M370.355 103.44H376.834C379.076 103.44 381.225 104.334 382.81 105.926C384.395 107.518 385.286 109.677 385.286 111.928V113.626H361.903V111.928C361.903 109.677 362.794 107.518 364.379 105.926C365.964 104.334 368.113 103.44 370.355 103.44V103.44Z" stroke="#9F9F9F" stroke-width="1.35678" stroke-miterlimit="10"/>
<path d="M370.074 103.51L373.877 107.684L377.751 103.51" stroke="#9F9F9F" stroke-width="1.35678" stroke-miterlimit="10"/>
<path d="M401.128 93.6452H399.246V97.9146H397.394V87.7839H399.246V92.0243H401.186L404.095 87.7839H406.092L402.633 92.6901L406.222 97.9146H404.095L401.128 93.6452ZM411.366 98.0159C410.584 98.0159 409.88 97.847 409.253 97.5093C408.625 97.1717 408.133 96.7037 407.776 96.1055C407.429 95.4977 407.255 94.8127 407.255 94.0505C407.255 93.2882 407.429 92.608 407.776 92.0098C408.133 91.4117 408.625 90.9437 409.253 90.606C409.88 90.2683 410.584 90.0995 411.366 90.0995C412.157 90.0995 412.866 90.2683 413.493 90.606C414.12 90.9437 414.607 91.4117 414.955 92.0098C415.312 92.608 415.49 93.2882 415.49 94.0505C415.49 94.8127 415.312 95.4977 414.955 96.1055C414.607 96.7037 414.12 97.1717 413.493 97.5093C412.866 97.847 412.157 98.0159 411.366 98.0159ZM411.366 96.4673C412.031 96.4673 412.581 96.2454 413.015 95.8016C413.45 95.3578 413.667 94.7741 413.667 94.0505C413.667 93.3268 413.45 92.7431 413.015 92.2993C412.581 91.8555 412.031 91.6336 411.366 91.6336C410.7 91.6336 410.15 91.8555 409.716 92.2993C409.291 92.7431 409.079 93.3268 409.079 94.0505C409.079 94.7741 409.291 95.3578 409.716 95.8016C410.15 96.2454 410.7 96.4673 411.366 96.4673ZM425.599 97.9146V92.7914L422.994 97.1041H422.212L419.651 92.7769V97.9146H418.001V90.1863H419.897L422.647 95.0201L425.527 90.1863H427.22L427.234 97.9146H425.599ZM433.264 90.0995C434.403 90.0995 435.271 90.3745 435.869 90.9244C436.477 91.4647 436.781 92.2848 436.781 93.3847V97.9146H435.073V96.9739C434.852 97.3116 434.533 97.5721 434.118 97.7554C433.713 97.929 433.221 98.0159 432.642 98.0159C432.063 98.0159 431.557 97.9194 431.123 97.7264C430.688 97.5238 430.351 97.2488 430.109 96.9015C429.878 96.5445 429.762 96.1441 429.762 95.7003C429.762 95.0056 430.018 94.4509 430.529 94.036C431.05 93.6115 431.865 93.3992 432.975 93.3992H434.972V93.2834C434.972 92.7431 434.808 92.3282 434.48 92.0388C434.162 91.7493 433.684 91.6046 433.047 91.6046C432.613 91.6046 432.184 91.6722 431.759 91.8072C431.344 91.9423 430.992 92.1305 430.703 92.3717L429.994 91.0547C430.399 90.7459 430.886 90.5095 431.455 90.3455C432.025 90.1815 432.628 90.0995 433.264 90.0995ZM433.018 96.6989C433.472 96.6989 433.872 96.5976 434.22 96.395C434.577 96.1827 434.827 95.8836 434.972 95.4977V94.6004H433.105C432.063 94.6004 431.542 94.9429 431.542 95.6279C431.542 95.956 431.672 96.2165 431.933 96.4094C432.193 96.6024 432.555 96.6989 433.018 96.6989ZM439.743 90.1863H441.552V93.3268H445.446V90.1863H447.255V97.9146H445.446V94.8609H441.552V97.9146H439.743V90.1863ZM458.652 96.3805V99.6368H456.959V97.9146H450.996V99.6368H449.317V96.3805H449.679C450.171 96.3612 450.504 96.0476 450.678 95.4398C450.861 94.8223 450.982 93.954 451.039 92.8348L451.141 90.1863H457.509V96.3805H458.652ZM452.689 92.965C452.651 93.8527 452.578 94.5763 452.472 95.1359C452.366 95.6955 452.173 96.1104 451.893 96.3805H455.7V91.7204H452.733L452.689 92.965ZM463.871 90.0995C465.01 90.0995 465.878 90.3745 466.476 90.9244C467.084 91.4647 467.388 92.2848 467.388 93.3847V97.9146H465.68V96.9739C465.458 97.3116 465.14 97.5721 464.725 97.7554C464.32 97.929 463.828 98.0159 463.249 98.0159C462.67 98.0159 462.163 97.9194 461.729 97.7264C461.295 97.5238 460.957 97.2488 460.716 96.9015C460.485 96.5445 460.369 96.1441 460.369 95.7003C460.369 95.0056 460.625 94.4509 461.136 94.036C461.657 93.6115 462.472 93.3992 463.582 93.3992H465.579V93.2834C465.579 92.7431 465.415 92.3282 465.087 92.0388C464.768 91.7493 464.291 91.6046 463.654 91.6046C463.22 91.6046 462.791 91.6722 462.366 91.8072C461.951 91.9423 461.599 92.1305 461.31 92.3717L460.6 91.0547C461.006 90.7459 461.493 90.5095 462.062 90.3455C462.631 90.1815 463.234 90.0995 463.871 90.0995ZM463.625 96.6989C464.079 96.6989 464.479 96.5976 464.826 96.395C465.183 96.1827 465.434 95.8836 465.579 95.4977V94.6004H463.712C462.67 94.6004 462.149 94.9429 462.149 95.6279C462.149 95.956 462.279 96.2165 462.54 96.4094C462.8 96.6024 463.162 96.6989 463.625 96.6989ZM401.475 108.099C402.228 108.099 402.898 108.264 403.487 108.592C404.085 108.92 404.553 109.383 404.891 109.981C405.228 110.579 405.397 111.269 405.397 112.05C405.397 112.832 405.228 113.527 404.891 114.134C404.553 114.733 404.085 115.196 403.487 115.524C402.898 115.852 402.228 116.016 401.475 116.016C400.433 116.016 399.608 115.669 399 114.974V118.722H397.191V108.186H398.913V109.199C399.213 108.833 399.579 108.558 400.013 108.374C400.457 108.191 400.944 108.099 401.475 108.099ZM401.272 114.467C401.938 114.467 402.483 114.245 402.908 113.802C403.342 113.358 403.559 112.774 403.559 112.05C403.559 111.327 403.342 110.743 402.908 110.299C402.483 109.855 401.938 109.634 401.272 109.634C400.838 109.634 400.448 109.735 400.1 109.937C399.753 110.13 399.478 110.41 399.275 110.777C399.073 111.144 398.971 111.568 398.971 112.05C398.971 112.533 399.073 112.957 399.275 113.324C399.478 113.691 399.753 113.975 400.1 114.178C400.448 114.371 400.838 114.467 401.272 114.467ZM410.702 108.099C411.841 108.099 412.709 108.374 413.307 108.924C413.915 109.465 414.219 110.285 414.219 111.385V115.915H412.511V114.974C412.289 115.312 411.971 115.572 411.556 115.755C411.151 115.929 410.659 116.016 410.08 116.016C409.501 116.016 408.994 115.919 408.56 115.726C408.126 115.524 407.788 115.249 407.547 114.902C407.316 114.545 407.2 114.144 407.2 113.7C407.2 113.006 407.456 112.451 407.967 112.036C408.488 111.611 409.303 111.399 410.413 111.399H412.41V111.283C412.41 110.743 412.246 110.328 411.918 110.039C411.6 109.749 411.122 109.605 410.485 109.605C410.051 109.605 409.622 109.672 409.197 109.807C408.782 109.942 408.43 110.13 408.141 110.372L407.431 109.055C407.837 108.746 408.324 108.51 408.893 108.346C409.462 108.182 410.065 108.099 410.702 108.099ZM410.456 114.699C410.91 114.699 411.31 114.598 411.657 114.395C412.014 114.183 412.265 113.884 412.41 113.498V112.6H410.543C409.501 112.6 408.98 112.943 408.98 113.628C408.98 113.956 409.11 114.216 409.371 114.409C409.631 114.602 409.993 114.699 410.456 114.699ZM421.699 111.891C422.181 112.026 422.553 112.248 422.813 112.557C423.083 112.856 423.219 113.218 423.219 113.642C423.219 114.115 423.059 114.535 422.741 114.902C422.423 115.258 421.984 115.538 421.424 115.741C420.864 115.944 420.228 116.045 419.514 116.045C418.915 116.045 418.332 115.977 417.762 115.842C417.193 115.697 416.677 115.495 416.214 115.234L416.735 113.888C417.111 114.101 417.536 114.265 418.009 114.381C418.481 114.496 418.954 114.554 419.427 114.554C420.035 114.554 420.507 114.463 420.845 114.279C421.192 114.086 421.366 113.826 421.366 113.498C421.366 113.199 421.231 112.967 420.961 112.803C420.7 112.639 420.329 112.557 419.847 112.557H418.341V111.341H419.702C420.155 111.341 420.507 111.264 420.758 111.11C421.019 110.955 421.149 110.738 421.149 110.458C421.149 110.179 420.995 109.957 420.686 109.793C420.377 109.629 419.953 109.547 419.412 109.547C418.64 109.547 417.825 109.735 416.967 110.111L416.503 108.78C417.516 108.307 418.539 108.071 419.572 108.071C420.228 108.071 420.816 108.162 421.337 108.346C421.858 108.519 422.263 108.77 422.553 109.098C422.852 109.416 423.001 109.783 423.001 110.198C423.001 110.574 422.886 110.912 422.654 111.211C422.423 111.501 422.104 111.727 421.699 111.891ZM430.103 108.099C430.856 108.099 431.526 108.264 432.115 108.592C432.713 108.92 433.181 109.383 433.519 109.981C433.856 110.579 434.025 111.269 434.025 112.05C434.025 112.832 433.856 113.527 433.519 114.134C433.181 114.733 432.713 115.196 432.115 115.524C431.526 115.852 430.856 116.016 430.103 116.016C429.061 116.016 428.236 115.669 427.628 114.974V118.722H425.819V108.186H427.542V109.199C427.841 108.833 428.207 108.558 428.642 108.374C429.085 108.191 429.573 108.099 430.103 108.099ZM429.901 114.467C430.566 114.467 431.111 114.245 431.536 113.802C431.97 113.358 432.187 112.774 432.187 112.05C432.187 111.327 431.97 110.743 431.536 110.299C431.111 109.855 430.566 109.634 429.901 109.634C429.466 109.634 429.076 109.735 428.728 109.937C428.381 110.13 428.106 110.41 427.903 110.777C427.701 111.144 427.6 111.568 427.6 112.05C427.6 112.533 427.701 112.957 427.903 113.324C428.106 113.691 428.381 113.975 428.728 114.178C429.076 114.371 429.466 114.467 429.901 114.467ZM439.33 108.099C440.469 108.099 441.337 108.374 441.935 108.924C442.543 109.465 442.847 110.285 442.847 111.385V115.915H441.139V114.974C440.918 115.312 440.599 115.572 440.184 115.755C439.779 115.929 439.287 116.016 438.708 116.016C438.129 116.016 437.623 115.919 437.188 115.726C436.754 115.524 436.417 115.249 436.175 114.902C435.944 114.545 435.828 114.144 435.828 113.7C435.828 113.006 436.084 112.451 436.595 112.036C437.116 111.611 437.931 111.399 439.041 111.399H441.038V111.283C441.038 110.743 440.874 110.328 440.546 110.039C440.228 109.749 439.75 109.605 439.113 109.605C438.679 109.605 438.25 109.672 437.825 109.807C437.41 109.942 437.058 110.13 436.769 110.372L436.06 109.055C436.465 108.746 436.952 108.51 437.521 108.346C438.091 108.182 438.694 108.099 439.33 108.099ZM439.084 114.699C439.538 114.699 439.938 114.598 440.286 114.395C440.643 114.183 440.893 113.884 441.038 113.498V112.6H439.171C438.129 112.6 437.608 112.943 437.608 113.628C437.608 113.956 437.738 114.216 437.999 114.409C438.259 114.602 438.621 114.699 439.084 114.699ZM449.992 108.563C450.725 108.563 451.372 108.722 451.931 109.04C452.491 109.349 452.925 109.783 453.234 110.343C453.552 110.902 453.711 111.544 453.711 112.268C453.711 113.01 453.538 113.671 453.19 114.25C452.843 114.819 452.356 115.263 451.729 115.582C451.101 115.9 450.387 116.059 449.587 116.059C448.246 116.059 447.208 115.615 446.475 114.728C445.742 113.84 445.375 112.562 445.375 110.893C445.375 109.339 445.708 108.109 446.374 107.202C447.04 106.295 448.057 105.697 449.427 105.408L453.017 104.641L453.277 106.262L450.021 106.927C449.085 107.12 448.385 107.448 447.922 107.911C447.459 108.374 447.189 109.026 447.112 109.865C447.459 109.45 447.879 109.132 448.371 108.91C448.863 108.678 449.403 108.563 449.992 108.563ZM449.63 114.598C450.296 114.598 450.831 114.385 451.236 113.961C451.651 113.527 451.859 112.977 451.859 112.311C451.859 111.645 451.651 111.11 451.236 110.705C450.831 110.299 450.296 110.097 449.63 110.097C448.955 110.097 448.41 110.299 447.995 110.705C447.58 111.11 447.372 111.645 447.372 112.311C447.372 112.986 447.58 113.536 447.995 113.961C448.419 114.385 448.964 114.598 449.63 114.598ZM459.63 116.016C458.849 116.016 458.145 115.847 457.517 115.509C456.89 115.172 456.398 114.704 456.041 114.106C455.694 113.498 455.52 112.813 455.52 112.05C455.52 111.288 455.694 110.608 456.041 110.01C456.398 109.412 456.89 108.944 457.517 108.606C458.145 108.268 458.849 108.099 459.63 108.099C460.422 108.099 461.131 108.268 461.758 108.606C462.385 108.944 462.872 109.412 463.219 110.01C463.576 110.608 463.755 111.288 463.755 112.05C463.755 112.813 463.576 113.498 463.219 114.106C462.872 114.704 462.385 115.172 461.758 115.509C461.131 115.847 460.422 116.016 459.63 116.016ZM459.63 114.467C460.296 114.467 460.846 114.245 461.28 113.802C461.714 113.358 461.931 112.774 461.931 112.05C461.931 111.327 461.714 110.743 461.28 110.299C460.846 109.855 460.296 109.634 459.63 109.634C458.965 109.634 458.415 109.855 457.981 110.299C457.556 110.743 457.344 111.327 457.344 112.05C457.344 112.774 457.556 113.358 457.981 113.802C458.415 114.245 458.965 114.467 459.63 114.467ZM472.105 109.72H469.399V115.915H467.589V109.72H464.869V108.186H472.105V109.72ZM477.354 112.817H475.95V115.915H474.141V108.186H475.95V111.312H477.397L479.684 108.186H481.623L478.815 111.906L481.811 115.915H479.684L477.354 112.817ZM483.811 108.186H485.62V113.281L489.889 108.186H491.539V115.915H489.73V110.82L485.475 115.915H483.811V108.186Z" fill="#9F9F9F"/>
<path d="M191.854 256.075L199.687 242.508L184.02 242.508L191.854 256.075ZM193.21 243.864L193.21 181.301L190.497 181.301L190.497 243.864L193.21 243.864Z" fill="#A41FE2"/>
<path d="M191.854 357.08L199.687 343.513L184.02 343.513L191.854 357.08ZM193.21 344.869L193.21 311.854L190.497 311.854L190.497 344.869L193.21 344.869Z" fill="#A41FE2"/>
<path d="M191.854 127.935L199.687 114.367L184.02 114.367L191.854 127.935ZM193.21 115.724L193.21 82.7085L190.497 82.7085L190.497 115.724L193.21 115.724Z" fill="#A41FE2"/>
</svg>
