<svg width="118" height="35" viewBox="0 0 118 35" fill="none" xmlns="http://www.w3.org/2000/svg">
<path d="M16.528 34.576C14.544 34.576 12.864 34.32 11.488 33.808C10.144 33.296 9.04 32.576 8.176 31.648C7.344 30.688 6.736 29.552 6.352 28.24C5.968 26.896 5.776 25.424 5.776 23.824V16.432H0.0160002V10.288L6.16 10L7.216 2.8H14.032V10H23.536V16.432H14.032V23.68C14.032 25.408 14.416 26.592 15.184 27.232C15.984 27.84 17.152 28.144 18.688 28.144C19.52 28.144 20.288 28.08 20.992 27.952C21.728 27.792 22.416 27.6 23.056 27.376L24.496 33.328C23.44 33.616 22.256 33.888 20.944 34.144C19.632 34.432 18.16 34.576 16.528 34.576ZM34.1732 34V10H40.9412L41.5653 15.088H41.7573C42.9093 13.104 44.3012 11.664 45.9332 10.768C47.5652 9.872 49.2933 9.424 51.1173 9.424C52.2373 9.424 53.1013 9.52 53.7093 9.712C54.3493 9.872 55.0053 10.096 55.6773 10.384L54.0452 17.296C53.3093 17.072 52.6373 16.912 52.0293 16.816C51.4533 16.688 50.7333 16.624 49.8693 16.624C48.4933 16.624 47.1333 17.04 45.7893 17.872C44.4453 18.672 43.3253 20.08 42.4293 22.096V34H34.1732Z" fill="#A41FE2"/>
<path d="M72.4105 34.576C70.8745 34.576 69.4825 34.288 68.2345 33.712C67.0185 33.136 65.9785 32.304 65.1145 31.216C64.2505 30.128 63.5785 28.816 63.0985 27.28C62.6185 25.712 62.3785 23.952 62.3785 22C62.3785 20.048 62.6665 18.288 63.2425 16.72C63.8185 15.152 64.5705 13.84 65.4985 12.784C66.4265 11.696 67.4985 10.864 68.7145 10.288C69.9305 9.712 71.1625 9.424 72.4105 9.424C73.6905 9.424 74.7625 9.632 75.6265 10.048C76.4905 10.464 77.2905 11.056 78.0265 11.824H78.2185L77.8345 8.368V0.591998H86.0905V34H79.3705L78.7945 31.792H78.6025C77.7705 32.624 76.7945 33.296 75.6745 33.808C74.5865 34.32 73.4985 34.576 72.4105 34.576ZM74.5705 27.856C75.2425 27.856 75.8345 27.744 76.3465 27.52C76.8905 27.264 77.3865 26.8 77.8345 26.128V17.296C77.3545 16.848 76.8425 16.544 76.2985 16.384C75.7865 16.224 75.2425 16.144 74.6665 16.144C73.6425 16.144 72.7465 16.576 71.9785 17.44C71.2105 18.304 70.8265 19.792 70.8265 21.904C70.8265 24.08 71.1465 25.616 71.7865 26.512C72.4585 27.408 73.3865 27.856 74.5705 27.856ZM110.312 34.576C108.712 34.576 107.304 34.32 106.088 33.808C104.904 33.296 103.896 32.592 103.064 31.696C102.264 30.768 101.656 29.664 101.24 28.384C100.856 27.104 100.664 25.68 100.664 24.112V7.024H93.4637V0.591998H108.92V24.4C108.92 25.104 109.032 25.68 109.256 26.128C109.48 26.576 109.752 26.944 110.072 27.232C110.424 27.488 110.808 27.68 111.224 27.808C111.672 27.904 112.104 27.952 112.52 27.952C113.512 27.952 114.664 27.728 115.976 27.28L117.752 33.328C117.112 33.52 116.504 33.696 115.928 33.856C115.384 34.016 114.824 34.144 114.248 34.24C113.672 34.336 113.064 34.416 112.424 34.48C111.784 34.544 111.08 34.576 110.312 34.576Z" fill="#333037"/>
</svg>
